<?xml version="1.0" standalone="no"?>
<!DOCTYPE svg PUBLIC "-//W3C//DTD SVG 1.1//EN" "http://www.w3.org/Graphics/SVG/1.1/DTD/svg11.dtd" >
<svg xmlns="http://www.w3.org/2000/svg">
<metadata></metadata>
<defs>
<font id="ywft_hannahbold" horiz-adv-x="829" >
<font-face units-per-em="2048" ascent="1638" descent="-410" />
<missing-glyph horiz-adv-x="385" />
<glyph horiz-adv-x="0" />
<glyph horiz-adv-x="682" />
<glyph horiz-adv-x="563" d="M31 41q-3 -47 37 -47h22q22 0 30.5 7.5t14.5 33.5q0 8 2 12q2 2 2 10q4 9 8 35l13 51q0 11 4 34.5t4 27.5q2 6 3 16t1.5 22.5t1.5 18.5q0 3 1 7.5t1 6.5q1 6 2 20t2 21q3 30 4 37h9q6 0 22.5 1t22.5 1l161 2q1 -13 1.5 -20t0 -8.5t-0.5 -2t-0.5 -2t0 -8.5t1.5 -20 q0 -2 1 -6t1 -6v-13q0 -13 5 -53q5 -64 8 -86q0 -2 1 -5t1 -5l14 -88q0 -14 8.5 -27.5t24.5 -13.5q6 0 15.5 1t11.5 1h12q11 3 17.5 16.5t6.5 26.5q-1 7 -3 24t-3 23q-4 47 -8 61q-9 49 -12 86q0 27 -2 35q0 33 -2 45q0 1 -1 4.5t-1 4.5q-2 6 -2 22q-2 10 -2 23l-7 86 q0 21 -4 41q0 1 -1 3t-1 3q-2 8 -2 16q-1 13 -3 46t-3 48v13q0 3 -1 10t-1 10q-2 12 -2 31v12q0 2 -1 5t-1 5v13q-5 70 -8 92q-4 57 -8 76l-13 79q-2 10 -6 36t-6 36q-11 121 -27 217q0 42 -8 78q-1 4 -3 13.5t-3 13.5q0 19 -12 51q-1 4 -4.5 11t-4.5 11q-3 11 -44.5 11.5 t-53.5 -11.5l-8 -28l-12 -54q-3 -28 -17 -112q-1 -6 -4 -17.5t-4 -17.5l-12 -64l-33 -212q0 -9 -4 -25q-1 -6 -2 -21t-2 -22q-4 -50 -16 -98q-14 -72 -17 -97q0 -10 -4 -34v2l-6 -37q-2 -31 -14 -105v2q-8 -47 -13 -82l-8 -67q0 -4 -1 -6q-1 -1 -1 -2v2l-6 -29 q-4 -24 -4 -33q0 -3 -1 -7.5t-1 -6.5q-4 -8 -4 -31l-7 -24q0 -1 -1 -4.5t-1 -4.5q-2 -10 -4 -16q-4 -10 -8 -45q-1 -5 -4 -16.5t-4 -16.5l-6 -31q-4 -8 -4 -22zM199 449l2 8l28 180q2 24 11 76q1 9 5 25.5t5 25.5q-2 -4 0 8q1 4 4 14q2 5 2 7q0 1 1 5t1 5q0 10 4 22 q9 26 12 78q0 3 1 10t1 9q5 31 7 47q0 2 1 5t1 5q9 58 10 65q4 38 10 64l8 39v10l2 -8l4 -62q0 -2 1.5 -6t1.5 -6q1 -8 3 -42t3 -40q0 -10 4 -22q0 -1 1 -3t1 -3v-9l6 -43q1 -5 4 -21t4 -26q0 -22 2 -28q0 -9 4 -17v2q2 -20 6.5 -64t6.5 -63q0 -20 2 -26v2q0 -1 1 -3t1 -3 q4 -28 4 -54q0 -22 2 -30q0 -4 1 -9t1 -6l10 -116h-115q-35 0 -43 -2h-32z" />
<glyph horiz-adv-x="563" d="M31 41q-3 -47 37 -47h22q22 0 30.5 7.5t14.5 33.5q0 8 2 12q2 2 2 10q4 9 8 35l13 51q0 11 4 34.5t4 27.5q2 6 3 16t1.5 22.5t1.5 18.5q0 3 1 7.5t1 6.5q1 6 2 20t2 21q3 30 4 37h9q6 0 22.5 1t22.5 1l161 2q1 -13 1.5 -20t0 -8.5t-0.5 -2t-0.5 -2t0 -8.5t1.5 -20 q0 -2 1 -6t1 -6v-13q0 -13 5 -53q5 -64 8 -86q0 -2 1 -5t1 -5l14 -88q0 -14 8.5 -27.5t24.5 -13.5q6 0 15.5 1t11.5 1h12q11 3 17.5 16.5t6.5 26.5q-1 7 -3 24t-3 23q-4 47 -8 61q-9 49 -12 86q0 27 -2 35q0 33 -2 45q0 1 -1 4.5t-1 4.5q-2 6 -2 22q-2 10 -2 23l-7 86 q0 21 -4 41q0 1 -1 3t-1 3q-2 8 -2 16q-1 13 -3 46t-3 48v13q0 3 -1 10t-1 10q-2 12 -2 31v12q0 2 -1 5t-1 5v13q-5 70 -8 92q-4 57 -8 76l-13 79q-2 10 -6 36t-6 36q-11 121 -27 217q0 42 -8 78q-1 4 -3 13.5t-3 13.5q0 19 -12 51q-1 4 -4.5 11t-4.5 11q-3 11 -44.5 11.5 t-53.5 -11.5l-8 -28l-12 -54q-3 -28 -17 -112q-1 -6 -4 -17.5t-4 -17.5l-12 -64l-33 -212q0 -9 -4 -25q-1 -6 -2 -21t-2 -22q-4 -50 -16 -98q-14 -72 -17 -97q0 -10 -4 -34v2l-6 -37q-2 -31 -14 -105v2q-8 -47 -13 -82l-8 -67q0 -4 -1 -6q-1 -1 -1 -2v2l-6 -29 q-4 -24 -4 -33q0 -3 -1 -7.5t-1 -6.5q-4 -8 -4 -31l-7 -24q0 -1 -1 -4.5t-1 -4.5q-2 -10 -4 -16q-4 -10 -8 -45q-1 -5 -4 -16.5t-4 -16.5l-6 -31q-4 -8 -4 -22zM199 449l2 8l28 180q2 24 11 76q1 9 5 25.5t5 25.5q-2 -4 0 8q1 4 4 14q2 5 2 7q0 1 1 5t1 5q0 10 4 22 q9 26 12 78q0 3 1 10t1 9q5 31 7 47q0 2 1 5t1 5q9 58 10 65q4 38 10 64l8 39v10l2 -8l4 -62q0 -2 1.5 -6t1.5 -6q1 -8 3 -42t3 -40q0 -10 4 -22q0 -1 1 -3t1 -3v-9l6 -43q1 -5 4 -21t4 -26q0 -22 2 -28q0 -9 4 -17v2q2 -20 6.5 -64t6.5 -63q0 -20 2 -26v2q0 -1 1 -3t1 -3 q4 -28 4 -54q0 -22 2 -30q0 -4 1 -9t1 -6l10 -116h-115q-35 0 -43 -2h-32z" />
<glyph unicode="&#xd;" horiz-adv-x="385" />
<glyph unicode=" "  horiz-adv-x="385" />
<glyph unicode="&#x09;" horiz-adv-x="385" />
<glyph unicode="&#xa0;" horiz-adv-x="385" />
<glyph unicode="!" horiz-adv-x="243" d="M68 1374v8q0 21 2 27q2 9 26 13.5t47 -1.5t23 -22v-23q0 -14 2 -24q0 -33 -2 -43q-4 -19 -2 -27v-78q2 -29 2 -106q0 -6 1 -17t1 -16v-31q2 -23 2 -82q0 -52 2 -75v-91q0 -4 -1 -13t-1 -13v-37v-31q-2 -29 -2 -102v-94q0 -3 -1 -8.5t-1 -8.5v-55q0 -1 1 -4t1 -4v-8 q2 -13 -1 -28.5t-11 -19.5q-20 -8 -50 -8q-19 0 -28 9.5t-8.5 22.5t0.5 26v18q0 7 1 30.5t1 41.5q1 23 1.5 54.5t1 85.5t1.5 97q0 66 -4 144v135q-2 41 -2 139v168q0 33 -2 51zM73.5 44q-0.5 19 0.5 42q2 12 2 74q-5 15 -2 33q-3 33 28.5 44t53.5 1h2q8 -6 12 -22.5t2 -31.5 v-43q0 -27 2 -41q5 -56 -4 -82q-8 -18 -61 -18q-17 0 -26 12.5t-9.5 31.5z" />
<glyph unicode="&#x22;" horiz-adv-x="364" d="M-25 1161q0 14 11 33q1 3 5 11.5t5 11.5l24 65q1 3 4.5 11.5t4.5 11.5q1 2 3 9.5t5.5 19.5t5.5 20q10 35 14 47q6 19 20.5 44t26.5 28q76 12 76 -39q0 -28 -10 -41l-4 -4q-1 -3 -8 -20.5t-13 -31.5q-16 -26 -22 -49l-23 -65q-5 -19 -12 -29h2q-3 -6 -6 -9t-4 -5 q-6 -10 -6 -13l-4 -8q-21 -35 -31 -39q-25 -3 -44.5 7t-19.5 34zM125 1165q0 26 16 62q1 3 7 15.5t8 19.5q7 27 14 38q19 31 27 54q9 28 18 39q2 8 8 20l21 35v-2q12 29 30 29l56 -13q13 -13 -8 -67q-4 -7 -27 -66l-6 -12l2 2q-1 -2 -5 -11t-5 -14q-2 -4 -3.5 -8.5t-4 -10 t-3.5 -9.5q-2 -4 -6 -13.5t-6 -13.5q-2 -6 -8 -19.5t-8 -19.5q-9 -9 -13 -24q-4 -8 -4 -15q-8 -35 -28 -39q-25 -3 -48.5 8.5t-23.5 34.5z" />
<glyph unicode="#" horiz-adv-x="657" d="M47 655q-1 16 3 27t9.5 16.5t18.5 8.5t23 3.5t28 0.5q9 0 17 -1l8 -1h18q5 0 15 -1t16 -1q2 14 2 45q4 20 4 30h-45q-1 0 -13 1t-20 1h-27q-11 0 -18 7t-9 13.5t-5 18.5q-5 21 11 35.5t38 18.5q31 3 53 0q12 -3 27 -3h18q0 19 2 27q2 16 2 41q0 37 6 66q5 30 24.5 49.5 t45.5 3.5h-2q1 -1 6 -4t6 -3.5t5.5 -4t5.5 -5t4.5 -5.5t2.5 -6.5t1 -8.5t0 -10q-1 -2 -1.5 -7.5t-1 -15t-1.5 -16.5q0 -7 -1 -22.5t-1 -16.5l-3 -59q27 0 41 2q1 13 3.5 35.5t3.5 29.5v31q2 23 4 36t6.5 29t11.5 23t18.5 11t28.5 1q30 -21 33 -78l-8 -104v-2q-2 -6 -2 -10h4 q44 0 90 -4q41 -7 49 -41q1 -16 -3 -27t-9.5 -16.5t-18.5 -8.5t-23 -3.5t-28 -0.5q-9 0 -16 1t-8 1q-27 0 -45 2q-1 -8 -4 -35.5t-3 -41.5q7 0 20.5 1t20.5 1q1 0 13 -1t20 -1h27q24 0 33 -39q5 -23 -11.5 -37.5t-38.5 -18.5q-31 -3 -53 0q-8 2 -26 2h-17q-2 -4 -2 -16 q-1 -9 -3 -30.5t-3 -35.5q-2 -16 -2 -40q0 -37 -6 -66q-5 -28 -23 -47t-39 -8q-11 6 -18 11t-12.5 15.5t-4.5 24.5q0 41 5 76q2 21 9 60t9 58l-6 -4q-14 -2 -49 -2q-4 -54 -4 -75q0 -9 -1 -24t-1 -19v-9q0 -14 -2 -24q-4 -38 -8 -57.5t-19 -34t-41 -9.5q-33 20 -33 78 q0 50 6 117l6 55h-4q-44 0 -90 4q-41 7 -49 43zM293 702q27 0 45 3h12q1 14 3 41t3 42q-33 0 -45 -2h-8q-1 -7 -2 -23.5t-2 -23.5z" />
<glyph unicode="$" horiz-adv-x="573" d="M59 221q0 131 47 131q64 0 64 -45q-10 -55 -10 -92v-12q0 -21 15.5 -41.5t41.5 -30.5v33q0 60 -4 170q-6 165 -6 180q0 43 2 59v58q8 32 8 108v23v7q0 24 -1 36.5t-7 32t-19 36.5l-26 50h2q-8 12 -12 16q-17 20 -35 72l-13 47q-22 57 -22 102q0 13 4 41q4 24 4 31 q0 8 14 50.5t21 47.5q10 10 10 17q40 46 99 63v33q0 10 2 14q0 2 1 5t1 5v9q0 2 -1 5t-1 5q0 11 3 20.5t15.5 19t34.5 9.5q31 0 39 -14.5t8 -46.5v-45l-2 -19q51 -10 91 -53t40 -103q0 -31 -1.5 -43t-11 -20t-30.5 -8q-30 0 -37 26l-6 52v-2q-3 7 -8 19.5t-7 16t-6.5 10 t-10.5 9t-15 4.5q0 -1 -1 -3t-1 -3q0 -30 -3 -92.5t-3 -73.5q-7 -110 -7 -189l-6 -96q12 -18 25 -31q24 -54 59 -106q4 -7 23.5 -37t25.5 -43q2 -4 4 -9t5.5 -13t5.5 -13q16 -45 33 -65l18 -43q8 -16 15.5 -75t7.5 -89q0 -117 -48 -205q-69 -110 -151 -110h-31q-2 0 -2 -3 q0 -10 2 -16q4 -20 4 -39q0 -32 -18 -35q-16 -4 -29 -4q-29 0 -37 14.5t-8 49.5v47q-28 9 -68 32.5t-59 53.5l-8 14v-2q-23 40 -23 86zM176 1174q0 -19 4 -39l10 -54q1 -3 5.5 -13t5.5 -13l18 -49q2 -3 3.5 -7.5t4.5 -9.5q0 37 1 111.5t1 111.5q0 21 4 45q5 45 5 60 q-13 -5 -19 -10q-17 -12 -30 -48.5t-13 -84.5zM299 373q0 -39 4 -133q4 -74 4 -109v-16l47 14v-2q3 3 10.5 9t10.5 9q2 2 9.5 15t12.5 18q31 85 35 150q0 10 4 30q0 13 -2 21q-4 16 -4 39l-22 92q-10 29 -17 39l-49 92q-8 15 -19 33t-14 24q-10 -127 -10 -325z" />
<glyph unicode="%" horiz-adv-x="778" d="M8 1223q0 49 23 110q2 8 37 60q2 4 6 8q4 6 16 18l25 15q36 16 90 16q66 0 121 -47q36 -31 53.5 -63.5t17.5 -84.5q0 -90 -10 -125q-5 -18 -25 -59q-15 -23 -38 -41q-4 -2 -23 -13t-22 -13q-34 -15 -48 -17t-34 2q-8 2 -25 2q-38 0 -63 15q-5 3 -15.5 11t-15.5 11 q-33 23 -44.5 39t-23.5 57q-4 59 -2 99zM68 41q0 31 16 57q0 6 2 8q14 35 45 113l4 12q3 6 6 15q3 11 12 35t11 30q11 29 16 47q1 4 4 13.5t4 13.5l17 51l24 74l7 14q0 14 10 31q5 15 10 25q12 27 23 67q20 45 40 107l5 10l6 -8q-2 21 6 41q4 8 8 24l8 21l37 116l17 37 q19 54 22 62q2 5 6.5 16.5t8.5 23t8 21.5q5 16 102 264q18 48 22 52q20 12 48.5 2.5t31.5 -29.5q4 -27 -14 -68q-4 -12 -12.5 -33.5t-12.5 -33.5q-20 -46 -53 -144q-3 -10 -18 -43l-15 -30q0 -4 -16 -54l-43 -116q0 -13 -10 -33l-31 -76q-2 -6 -7 -22.5t-7 -22.5 q1 -7 -3.5 -21.5t-16.5 -45t-17 -43.5q-5 -15 -13.5 -37.5t-14.5 -38.5t-9 -25l-8 -18q-1 -2 -3 -7.5t-3 -7.5q0 -1 -1 -4t-1 -4l-90 -276q-7 -23 -23 -71.5t-23 -70.5q-7 -26 -28 -53q-23 -10 -53.5 -1t-40.5 34zM102 1174l13 -56q1 -1 4 -5t4 -5q13 -13 27 -23h-3 q20 -10 54 -10q22 0 32 2q3 1 8.5 3t8.5 3q2 0 4 2l10 11q21 28 27 43q0 2 1 6t1 6q3 20 8 31q0 14 4 22v-2q6 44 -8 84q-6 19 -14 29q-29 37 -62 47q-4 2 -28 2l-19 -2h2q-2 -1 -7 -1.5t-8 -1.5t-7 -5q-21 -11 -41 -84q-11 -33 -11 -96zM340 217v41q0 3 1 11.5t1 11.5 q2 6 2 20l6 51l17 37q13 30 30 47q49 45 66 53q1 0 3 1.5t3 1.5q34 17 74 10q15 0 39 -6l12 -4q47 -12 72 -35l8 -8q38 -30 51 -52q3 -4 16 -30v2q17 -31 17 -74q0 -1 1 -6t1 -10q6 -113 -39 -189h-2q-1 -1 -2 -3t-2 -3h2q-30 -36 -41 -47q-14 -14 -37 -21q-1 -1 -4 -2 t-4 -2q-58 -24 -99 -24q-44 0 -90.5 34t-72.5 80q-23 44 -29 115zM438 270q-4 -97 23 -143h-2q2 -3 20 -21l19 -18q28 -21 75 -10q12 3 29 16t23 21q1 1 2 3t2 3l-2 -2q22 40 26 53q1 2 2 6t2 6l5 13v92q0 11 -11 39q4 0 4 12l-10 -2q-13 22 -41 47q-8 8 -12 10 q-53 20 -78 17q-9 -2 -22 -15l-13 -12q-2 -3 -8 -9t-8 -9q-18 -30 -25 -97z" />
<glyph unicode="&#x26;" horiz-adv-x="702" d="M47 305q0 91 12 150q1 3 2 9t2 9q1 6 5.5 19.5t5.5 17.5q13 59 51 152l14 28q1 2 6 17q2 5 7.5 15t7.5 15q17 36 39 70l-2 -2q1 2 5 7t5 7l31 53q27 36 30 39q13 13 15 17q0 9 -4 33q0 3 -1.5 7.5t-1.5 6.5q-2 7 -8 53v8q0 3 -6 72q0 3 -1 8t-1 8q-4 35 0 66q0 5 1 19.5 t1 19.5q0 19 4 31q10 74 43 124q53 62 113 62h16q11 0 27 -8l-2 2l12 -6q7 -1 37 -23q56 -51 53 -160l-6 -53q-2 -22 -31 -88q-21 -43 -32 -57q-10 -18 -33.5 -51t-30.5 -44q-10 -10 -16 -22q-9 -9 -33 -41q9 -71 72 -266q2 -4 6 -16t6 -15q11 -36 20 -59l29 -74l14 -39 q2 14 2 47q0 2 1.5 4.5t1.5 3.5v8q0 21 2 31q3 13 5 19t9 13t20 9q50 9 60 -29q0 -6 -1 -15t-1 -11q0 -23 -2 -31q-1 -7 -5.5 -22.5t-5.5 -22.5q-4 -16 -4 -20q0 -3 -6 -39l-4 -13q-6 -40 -22 -79q29 -87 79 -183q2 -2 7 -12q4 -11 14 -29q10 -20 10 -35q-7 -23 -24.5 -34 t-38.5 -6q-29 6 -37 40q0 3 -2 7l-13 24q-14 27 -20 37l-10 27q-12 30 -13 32l-2 9v-2q0 -5 -4 -9q-1 -3 -4 -11t-4 -11l-18 -35q-6 -11 -23 -31l-12 -12q-17 -17 -27 -22l2 2q-41 -33 -67 -39q-37 -9 -76 -6q-23 0 -47 8q-1 1 -19 8q-16 4 -26 8q-18 6 -35 23l-16 12 l-17 16q-20 24 -26 35q-3 6 -11 14q-2 2 -4.5 7t-3.5 6q-15 26 -18 41q-27 88 -27 147zM152 291q1 -6 2 -22t2.5 -30t3.5 -22q15 -50 28 -65q14 -28 35 -43l13 -13q31 -22 47 -22q1 0 4.5 -1t5.5 -1h18q26 3 51 12h-2q26 15 33 22l13 13q18 15 40 67q24 43 35 90 q-11 34 -12 35l-10 31q-17 47 -25 74q-8 16 -10 22q-3 3 -4.5 7t-2 9t-1.5 7q-6 12 -17 45t-16 43q-7 14 -12 29l-4 8l-33 108q0 1 -1 5q-1 1 -1.5 2.5t-1.5 3.5q-8 20 -21 63l-8 35q0 -1 -1 -3t-1 -3q-2 -5 -8 -15.5t-8 -15.5l-9 -16q-8 -8 -10 -15q-35 -85 -41 -104 l-12 -27q-13 -22 -16 -39l-9 -26q-10 -26 -14 -41q-4 -8 -6 -19q0 -12 -4 -28q0 -19 -4 -31q0 -2 -1 -6t-1 -6v-13q-4 -16 -4 -22q-3 -39 0 -82zM354 1157q0 -75 6 -139q3 6 5 8l-3 -2q4 7 11.5 19.5t11.5 19.5q38 48 51 84q25 64 29 106q4 32 -6 62q-14 32 -21 35 q-11 6 -24 -2q-15 -9 -29 -33q-4 -9 -8 -17l-6 -12q-20 -67 -17 -129z" />
<glyph unicode="'" horiz-adv-x="231" d="M18 1208q0 25 13 43l-2 -2l12 29q1 13 20 55q7 15 9 31q17 39 22 57q3 8 8 27q7 29 25 41q18 13 49.5 5t34.5 -38q-2 -37 -23 -70q-6 -9 -6 -18q0 -2 -2 -9l-6 -20q-12 -18 -16 -30q-24 -47 -27 -68q-8 -47 -45 -65q-66 -4 -66 32z" />
<glyph unicode="(" horiz-adv-x="485" d="M70 651v107q0 57 2 67q4 20 4 31v39q0 47 6 70v-2q1 13 3 40t3 39q4 18 12 50q1 5 5.5 15t5.5 15q1 2 2 6.5t2 6.5q2 5 4.5 11t3.5 7q14 36 24 68q3 7 9.5 22.5t9.5 22.5q10 26 59 92q18 28 39 49q4 4 4 6q17 21 31 27l12 10q24 10 53 -8t31 -35q2 -42 -41 -68l-20 -12 q-5 -6 -17.5 -17.5t-17.5 -17.5q-20 -24 -25 -37q-7 -19 -22 -45l-25 -43q-10 -23 -20 -57q-3 -17 -10.5 -56t-10.5 -57q-2 -6 -2 -16l-4 -49v-41q-11 -155 -8 -279q0 -90 6 -172q0 -2 1 -7t1 -9q4 -17 6 -27l7 -32q1 -3 4 -16.5t4 -20.5q1 -3 2 -9.5t2 -9.5q4 -16 6 -22 q1 -2 2 -7.5t2 -7.5q2 -6 8 -18q10 -20 10 -23q1 -4 13 -28l10 -17q2 -3 5 -12t5 -12q6 -6 6 -8q2 -3 8.5 -13.5t8.5 -13.5q17 -27 51 -61q4 -7 25 -19q6 -6 14.5 -13.5t9.5 -8.5l-2 2q2 -1 5 -3.5t5 -3.5q11 -9 49 -20q12 -3 16.5 -25.5t-3 -43.5t-23.5 -21q-8 0 -16.5 2 t-15 4t-16.5 7t-13.5 7t-15 9t-13.5 8l-24 18l2 -2q-2 1 -7.5 4t-7.5 4q-68 48 -82 74h2q-49 67 -84 148q-1 2 -3 7t-3 7q-22 60 -28 86q0 10 -9 22q0 1 -5 13t-7 20q-16 57 -16 146v71q0 2 -1 7t-1 8v45q0 5 -1 13.5t-1 12.5z" />
<glyph unicode=")" horiz-adv-x="485" d="M18.5 1383.5q-4.5 22.5 3 43.5t23.5 21q8 0 16.5 -2t15 -4t16.5 -7t13.5 -7t15 -9t13.5 -8l25 -18l-2 2q2 -1 7 -4.5t7 -4.5q69 -49 82 -71h-2q47 -64 84 -150q1 -2 3 -7t3 -7q25 -69 29 -84q0 -12 8 -23q0 -1 5 -12.5t7 -19.5q17 -64 17 -148v-69q0 -2 1 -6.5t1 -6.5 v-49q0 -5 1 -13.5t1 -12.5v-107q0 -55 -2 -65q-4 -20 -4 -33v-39q0 -43 -7 -70v2q-1 -12 -3 -38.5t-3 -39.5q-6 -27 -12 -51q-1 -4 -5 -15t-5 -15q-1 -2 -2 -6.5t-2 -6.5l-9 -18q-2 -5 -11 -30.5t-15 -37.5l-17 -43q-11 -34 -59 -94q-23 -36 -39 -49q-1 -1 -2 -3t-2 -3 q-17 -21 -31 -27l-12 -10q-24 -10 -53 8t-31 35q-2 41 41 67l20 13q5 6 17.5 18.5t17.5 18.5q20 24 25 36q8 18 22 43l25 43q10 22 20 58q3 20 10.5 58t10.5 54q2 6 2 17l4 49v41q11 158 8 278q0 91 -6 173q0 2 -1 6.5t-1 7.5l-6 29l-6 32q-1 6 -4 19.5t-4 19.5 q-1 3 -2.5 9.5t-2.5 9.5q-4 16 -6 22q-1 1 -2 5.5t-2 6.5q-3 9 -8 19q-10 20 -10 22q-2 10 -12 29l-9 19q-4 6 -12 22q-6 6 -6 8q-2 3 -8 13.5t-8 13.5q-14 25 -52 63q-4 8 -24 19l-10 7.5t-9.5 7.5t-5.5 5l2 -2q-2 1 -5 3t-5 3q-13 10 -49 21q-12 3 -16.5 25.5z" />
<glyph unicode="*" horiz-adv-x="507" d="M70 1286q3 17 12.5 26t22 9h26.5h16q6 -2 11 -2q-6 6 -21 16l-16 13v-2q-43 26 -41 53q6 31 38 35.5t50 -15.5l18 -24q3 -6 6.5 -11.5t5.5 -8.5t3 -5v33q-3 31 14 41q12 7 34.5 6.5t33.5 -8.5q8 -8 8 -31l-4 -43q1 1 2 3t2 3q4 5 14.5 22.5t16.5 24.5q15 15 30 15h-2 q43 8 58 -29q12 -35 -37 -61l-12 -9q-8 -5 -15 -8q-1 -1 -3 -2t-3 -2q79 9 92 -14q6 -18 1 -33.5t-17 -22.5h2q-18 -12 -72 -6q25 -20 39 -28q20 -16 30 -37t-1 -31q-51 -40 -62 -33q-10 9 -18 17.5t-12 14t-10 15t-9 13.5v2q-2 2 -5.5 7.5t-4.5 6.5v-27q0 -43 -21 -55 q-26 -11 -49.5 0.5t-23.5 36.5q0 19 2 33q-3 -5 -10.5 -16.5t-10.5 -16.5v2q-10 -20 -33 -29q-17 0 -41 13.5t-24 31.5q0 17 26 37q4 2 19 17l10 7l2 1q-7 -2 -18 -1.5t-15 3.5q-13 4 -19.5 7.5t-11.5 15t-3 30.5z" />
<glyph unicode="+" horiz-adv-x="325" d="M14 602q-14 27 2 53v-2q9 24 41 19h66q0 2 -1 9t-1 13q-5 84 10 97q20 15 46 12.5t32 -19.5q8 -21 2 -88v-30h4q25 0 35 -2q22 6 41.5 -9t19.5 -39q0 -47 -102 -32q0 -49 2 -72q6 -39 -6 -55q-8 -12 -38 -11t-38 21q-6 18 -6 80q0 7 -1 16t-1 10v11q0 1 -1 0q-1 0 -1 2 h-2q-91 -13 -103 16z" />
<glyph unicode="," horiz-adv-x="253" d="M25 -107.5q2 11.5 8 15.5l10 20q5 8 39 82l18 39q3 7 11.5 25.5t11.5 25.5q1 1 3.5 5t3.5 5t4 3t7 3t9 1q59 0 59 -43q0 -15 -4 -23q-9 -18 -23 -39q-15 -38 -16 -41l-25 -47q-14 -23 -14 -30q0 -9 -6 -15q-12 -37 -29 -41q-18 -3 -36.5 5.5t-26.5 21.5q-6 16 -4 27.5z " />
<glyph unicode="-" horiz-adv-x="503" d="M29 629q9 35 41 35h8q40 0 55 -2q68 0 88 2h8q78 4 127 4q38 0 74 -4q35 -8 41 -48q1 -27 -6 -38t-25 -11q-59 0 -82 2q-103 5 -131 0h-123q-1 0 -11 1t-17 1h-23q-11 0 -17.5 19.5t-6.5 38.5z" />
<glyph unicode="." horiz-adv-x="186" d="M16 78q5 17 23 35t51 18q11 2 35 -2q25 -6 35 -23q12 -24 12 -34q0 -28 -8 -39q0 -2 -2 -5.5t-2 -4.5q-5 -11 -15 -17q-8 -8 -12 -10q-17 -10 -25 -11.5t-28 3.5l-25 10q-4 4 -12 8q-4 4 -4 6l-6 8q-7 7 -10 13q-11 27 -7 45z" />
<glyph unicode="/" horiz-adv-x="679" d="M49 18q0 1 1 3t1 4v10q5 26 41 110q15 38 37 103l14 33q1 3 4 11t5.5 13.5t1.5 5.5q29 79 32 88q26 79 35 136q16 66 41 131l6 16q2 4 6 16q4 18 9 27q3 12 8 27q1 5 4 15t4 15l35 92q1 6 5 19.5t5 19.5l21 62q1 2 24 65q10 24 19 60q2 8 7 23.5t7 23.5q4 14 16.5 49.5 t18.5 56.5q33 90 63 181q0 2 8 14q7 10 21 16q29 12 65 -12q3 -2 4.5 -14t-1 -31t-9.5 -35l-10 -26q0 -1 -12 -31q-1 -1 -2 -5.5t-2 -6.5q-6 -15 -17 -48l-14 -43q-10 -35 -16 -49q0 -1 -1.5 -4t-1.5 -4q-6 -14 -18 -55l-76 -213l-8 -25q-4 -16 -33 -94q0 -6 -4 -14 q-12 -36 -12 -41q-4 -25 -12 -43q-16 -41 -21 -68l-26 -98l-31 -101q-26 -88 -107 -278q8 16 0 -4q-1 -2 -3 -7l-9 -22q-1 -2 -2 -6l-12 -39l-17 -43q-21 -50 -69 -41q-16 6 -21 22t-2 33zM154 309v2v-2zM158 47l2 4z" />
<glyph unicode="0" horiz-adv-x="475" d="M70 737q-2 35 2 101q2 25 2 71v58q0 18 4 30v52q4 50 4 73q4 149 22 217q6 39 31 76l8 8q2 2 9 8t10 9q16 8 31 8h10q2 0 6 -1t6 -1h10q27 0 41 -4q18 -4 29 -12l10 -9q20 -12 29 -24q18 -26 24 -56q0 -14 4 -26q0 -2 1.5 -7.5t1.5 -7.5q0 -8 4 -28q0 -1 1 -4t1 -4 q2 -4 2 -17q4 -20 4 -59v-23q0 -1 2 -10t2 -14v-15q0 -2 1 -11.5t1 -16.5q0 -4 1 -11t1 -12q-5 -28 4 -65l1 -9q1 -9 1 -14v-69q0 -44 2 -97q0 -20 2 -24v-107q0 -125 -4 -221q0 -21 2 -33q0 -41 -2 -47q0 -41 -2 -78q0 -1 -0.5 -4t-1 -8t-0.5 -10q0 -27 -2 -35t-2 -27 q0 -12 -2 -16q0 -1 -1 -3.5t-1 -4.5q0 -38 -19 -84q-8 -11 -10 -31q0 -6 -4 -14l-6 -13q-4 -8 -4 -12l-14 -24q-38 -48 -89 -48q-35 0 -53 13l2 -2q-28 10 -49 35.5t-29 54.5q-18 52 -18 98q0 25 -2 41v-2q-6 21 -6 72q-2 63 -2 215v53q-4 54 -4 92v66q0 4 -1 12t-1 12z M154 741q0 -1 1 -4.5t1 -5.5v-10q0 -6 1 -17t1 -16v-80q2 -25 2 -92v-29q0 -5 1 -20.5t1 -28.5q-4 -14 -2 -16v-29q0 -5 1 -15.5t1 -15.5v-98q0 -11 4 -35v-22q0 -25 2 -39v2l6 -18q2 -6 2 -17q2 -4 4 -10q0 -1 1 -3t1 -3t3 -9t5 -10q26 -43 41 -43q10 -3 19 6q15 15 29 72 q0 10 2 12q2 4 2 11l14 67q2 6 2 17q0 14 6 26v-2q2 25 2 74q0 5 1 14t1 13v26q0 131 2 199v57q0 8 -1 24t-1 23v88q0 10 -0.5 26.5t-0.5 30t1 25.5q0 38 -2 54q-4 62 -4 92q0 65 -4 100v10q-1 8 -2 29t-2 29q-4 72 -8 110q0 15 -4.5 27.5t-9.5 18.5l-5 5q-4 3 -6 7l-2 4 q-2 2 -4 2l-12 6q-23 8 -33 4q-5 -2 -14 -18v2q-18 -53 -23 -93v-12q0 -2 -1 -7.5t-1 -8.5q-4 -66 -2 -99q-4 -8 -2 -32l2 -11q3 -16 -2 -49q0 -2 -1 -7t-1 -7q-4 -24 -4 -59v-129q3 -18 -2 -37q0 -1 -1 -4t-1 -5q0 -1 -1 -4t-1 -4q-2 -10 -2 -22v-17z" />
<glyph unicode="1" horiz-adv-x="270" d="M0 1401q3 23 17 28t49 5h24q44 0 62 -4q9 -1 17.5 -13.5t8.5 -23.5v-9q0 -2 -1 -5t-1 -5q-4 -33 -2 -43v-325q-2 -39 -2 -121v-51q-1 -13 -1 -26t0.5 -26t0.5 -18v-55q0 -7 1 -22t1 -25v-82q0 -5 -1 -15.5t-1 -15.5v-27q0 -3 1 -7.5t1 -6.5v-12q0 -4 1 -12t1 -11v-147 q0 -50 -2 -58v2q-2 -27 -2 -86v-61q0 -1 1 -8.5t1 -14.5q5 -72 2 -96q-3 -12 -47 -12l-39 10q-14 14 -10 64v45q0 3 -1 8t-1 8v33q0 41 2 61q0 3 1 10.5t1 10.5q2 25 2 75q0 55 2 80v54v61q0 4 -1 12t-1 11v14q0 30 -0.5 50.5t-1 29t-0.5 10.5l2 66v63v100q0 2 -1 5t-1 4 l2 55v57q-4 41 -2 66q0 6 1 18.5t1 18.5v77q0 7 -1 20t-1 19v142h-19q-35 0 -49 6q-7 2 -12 14t-2 31z" />
<glyph unicode="2" horiz-adv-x="559" d="M8 1298q-12 24 37 68l18 18q6 4 16.5 10t14.5 9l17 10q52 23 82 25q41 4 73 0h17q3 0 7.5 -1t6.5 -1q29 0 72 -29q6 -3 28 -25q11 -9 17.5 -18t11.5 -19t8 -14l6 -12q12 -20 15 -35q18 -56 18 -113v-16q0 -1 -1 -8.5t-1 -13.5q0 -34 -2 -46q0 -2 -4 -22q0 -12 -8 -45 q-7 -50 -15 -70q-1 -2 -3 -9t-3 -9l-6 -19q-50 -177 -100 -319q-62 -168 -109 -268q-32 -63 -57 -136l-12 -26q-2 -6 -8.5 -19.5t-8.5 -19.5q-6 -13 -10 -27q-3 -4 -6 -14q3 0 11 1t11 1q5 0 13 -1t10 -1q6 -2 43 -2q84 0 119 -2q1 0 3 -1t3 -1h12q1 0 4.5 1t5.5 1 q3 0 8.5 1t8.5 1h49q33 0 45 2q28 4 57 4q27 0 35 -12h-2q3 -4 10 -23q0 -25 -2 -33q-8 -24 -65 -20h-11q-27 -2 -94 -2t-98 2h-47h-7q-7 1 -17 1.5t-17 0.5h-53q-2 0 -6.5 -1t-6.5 -1q-7 0 -16 -1t-12 -1q-25 0 -33 2q-1 0 -4.5 1t-5.5 1q-11 0 -15 2q-2 2 -6 2 q-31 9 -37 35q-5 14 6 35q5 5 5 8q7 21 30 72l2 2l15 32l8 25l14 33q3 6 9.5 22.5t9.5 22.5l6 18q0 6 6 15h-2q16 28 18 32q4 15 14.5 37t12.5 29q8 16 8 18q1 2 3 7.5t3 7.5q16 32 19 37v-2q27 64 53 153q1 4 4 14.5t4 14.5l8 26q0 2 2 8t2 7q6 28 37 112q1 3 3 9.5t3 9.5 q0 10 7 24q1 4 5 12.5t5 12.5l8 23q0 12 6 36v-2q2 15 6 29q1 2 2 6t2 6q24 100 27 154q0 23 -6 70l-4 34q-6 31 -35 60l-25 24q-10 5 -45 15q-31 7 -80 -2l-20 -5q-5 -3 -21.5 -12t-21.5 -12q-1 -1 -7.5 -6t-8.5 -8q-3 -3 -19 -23q-20 -20 -37 -20q-29 0 -45 36z" />
<glyph unicode="3" horiz-adv-x="485" d="M-0.5 112.5q-0.5 9.5 10.5 28.5q14 17 30 23t21 0q4 -2 21 -19l6 -6l25 -28q3 -2 11 -7.5t11 -7.5q17 -14 29 -14q29 0 53 6q19 6 41 21q3 2 8.5 6.5t7.5 5.5q4 4 19 39l6 12q3 9 9 28.5t9 28.5q12 51 15 68l1 5q1 4 1 9v21v-2q0 1 1 4t1 4q4 14 4 59q0 66 -2 84 q0 15 -4 43v13q0 10 -2 14q-21 76 -43 104q-22 29 -43 43q-19 15 -31 15h-20q-45 -6 -66 8q-8 5 -8 39q-3 40 14 43q11 0 17 2t16 2q36 9 74 57q2 2 5 7.5t5 7.5q23 34 41 77q17 27 26 58q3 11 13 35q1 9 4 25.5t4 25.5q0 2 1 6t1 6v37l-4 51q-1 9 -3 28.5t-3 28.5 q-11 42 -35 60l-11 10l-7 4q-9 9 -21 12q-27 10 -53 13q-9 0 -27 -6l-16 -4l2 -3l-21 -10q-4 -4 -12 -8l2 2q-18 -12 -33 -27q-1 -1 -2 -3t-2 -3q-11 -18 -26 -18q-33 -2 -47 35q-5 24 10 39q1 1 4 3t4 3q6 3 20 20q17 23 35 29l-2 -2q17 15 64 29q21 8 57 8q11 0 27 -4 q6 -2 14 -2q15 0 25 -4q1 -1 8 -4.5t8 -4.5l12 -6q17 -5 49 -37l15 -18q23 -20 30 -43q0 -1 3 -4q7 -14 10 -29q0 -4 4 -16q8 -36 8 -70v-33q0 -6 -1 -17.5t-1 -17.5v-12q0 -2 -1 -7t-1 -9q3 -39 -10 -80q-9 -25 -39 -88q-1 -3 -4 -10.5t-4 -10.5q-2 -6 -9 -20l-18 -37 q-10 -20 -21 -33q-5 -5 -17.5 -16.5t-16.5 -15.5l-2 -3l-9 -6q15 -2 23 -8q2 -2 6 -4q13 -4 23 -14l22 -25q21 -27 43 -80q21 -47 29 -84q8 -40 8 -67v-11q0 -3 1 -8.5t1 -9.5q2 -18 2 -51q0 -1 -1 -9.5t-1 -15.5v-12q0 -19 -2 -23q0 -1 -1 -5.5t-1 -6.5q0 -39 -4 -57 q-5 -31 -19 -76l-12 -43q-9 -27 -14 -37q-1 -2 -1 -3t-1 -3q-5 -9 -10 -23l-7 -18q-2 -3 -18 -25h2q-19 -33 -60.5 -49t-88.5 -16q-2 0 -6.5 -1t-6.5 -1h-30q-52 0 -109 53q-1 1 -3.5 2.5t-4.5 3.5q-17 17 -25 35v-2q-8 15 -8.5 24.5z" />
<glyph unicode="4" d="M70 1120q0 33 0.5 59.5t1 41t0.5 18.5v21q0 1 -1 12t-1 26q0 2 0.5 8t1 17t0.5 25q0 16 -2 32q0 31 16 47q13 11 31 11h8q3 0 7 -0.5t5.5 -0.5t4 -1t5.5 -3.5t7 -7.5q4 -6 4 -39v-47q0 -6 -1 -16.5t-1 -15.5t1 -15t1 -14v-43q0 -4 1 -12.5t1 -12.5q0 -30 4 -88v-180 q0 -112 -2 -156v-10q0 -2 1 -7t1 -9v-6h18q13 0 19 -2q14 0 51 -1t49 -1q45 0 68 2v43q4 196 8 276v41q0 9 -1 24t-1 19q-4 49 0 94v66q0 2 -1 6t-1 6q0 6 -2 16q-2 17 1 44t9 34q2 9 35 7.5t43 -17.5h-2q4 -4 4 -14v-140q0 -42 2 -65q4 -45 0 -94q0 -11 -1 -47.5t-1 -49.5 v-59q-2 -35 -2 -125q0 -5 1 -17t1 -18v-100q-2 -74 -2 -240q0 -3 1 -9t1 -9v-16l-2 -60v-307q0 -25 -2 -31q-6 -16 -35.5 -14.5t-44.5 14.5q-10 8 -10 45v13q2 43 2 116q2 84 2 256q0 4 -1 11.5t-1 11.5v61q0 5 1 16.5t1 16.5v31q4 47 2 74h-13q-35 4 -116 4h-17q-3 0 -24 1 t-41 1h-8q-1 0 -3.5 -1t-3.5 -1q-56 -8 -73 26v-2q-7 9 -2 41v8q0 7 1 21t1 22q2 27 2 111q0 47 -4 145q0 13 -1 40t-1 42z" />
<glyph unicode="5" horiz-adv-x="667" d="M43 215q1 4 6.5 8.5t10.5 6.5l6 3q12 5 30 5h13q13 0 24 -27q1 -1 3 -7t3 -7t3.5 -5.5t4.5 -8.5t3 -7q1 -2 5.5 -10t6.5 -10l24 -25l29 -20l-2 2q3 -1 8 -4.5t8 -4.5q1 -1 15 -8q5 -5 14 -8q6 0 10 -4h11l22 -5l8 -1h15q10 0 34 4q23 4 33 10q4 2 31 29q16 16 22 47l7 18 q21 63 47 191l6 26v-2q22 155 16 295v11q0 2 -1 7t-1 7q0 4 -1 12t-1 12q0 24 -6 78v-2q-2 8 -6 26.5t-6 24.5q-1 2 -3 8.5t-3 8.5q-9 22 -11 33q-14 47 -24 57l-33 41q-5 7 -20 20t-25 19q-21 13 -37 17t-59 7h-23q-20 0 -54 -5t-44 -9q-31 -16 -53 -16q-26 5 -41 28 q-5 27 -5 37q0 30 3 39q-3 21 -7 45q-4 21 0 43q0 43 -2 55q0 3 -1 8.5t-1 8.5q0 23 -2 39q0 2 -1 5t-1 5q-4 29 8 49q15 15 68 15h98q36 4 103 4q53 0 88 -2h76q20 0 35.5 -13t15.5 -26q0 -18 -1 -26.5t-7 -16.5t-19 -9h-47q-7 0 -17 1t-14 1q-27 3 -55 0q-1 0 -4 1.5 t-4 1.5h-13q-15 -3 -59 -3q-21 0 -29 -2h-61q-8 0 -12 -2q-2 0 -7.5 -1t-7.5 -1q-21 -4 -39 0q0 -19 7 -37q0 -2 1 -6t1 -6v-8q5 -58 2 -94v-37q52 18 82 18h34q23 0 43 -4h7q32 -3 57 -14q17 -7 63 -39q1 -1 5.5 -4t5.5 -4q33 -27 61 -62q17 -22 37 -67q1 -2 3 -7.5t3 -7.5 q1 -4 4 -12t4 -12q24 -79 29 -100q4 -47 6 -74q0 -3 1 -9.5t1 -9.5q0 -4 1 -11.5t1 -10.5q4 -24 4 -49v-45q0 -21 -2 -31q-2 -12 -2 -35l-6 -72q0 -32 -2 -38q0 -11 -2 -13q0 -1 -1 -3.5t-1 -4.5l-2 -12l2 4q0 -15 -4 -23q0 -2 -1 -7t-1 -7l-15 -70q0 -22 -4 -30v2l-6 -25 q-1 -5 -4 -15.5t-4 -15.5q-1 -3 -2 -9t-2 -9q-12 -48 -25 -76l-20 -41q-2 -2 -6 -10l2 2q-5 -10 -19 -27q-16 -18 -47 -39q-8 -8 -28 -18q3 2 -8 1q-7 0 -27 -3q-14 -1 -19 -2q-4 0 -10.5 -1t-9.5 -1q-1 0 -4.5 -1t-5.5 -1h-13q-59 0 -123 33q-1 1 -4.5 2t-5.5 2h2 q-12 6 -24 18l-11 8l2 -2q-17 9 -24 19l2 -2q-10 14 -16 16q-11 4 -23 25l-6 6l-6 8q-13 17 -19 31q-1 2 -3 7t-3 7q-12 24 -6 43z" />
<glyph unicode="6" horiz-adv-x="616" d="M70 514v72q0 92 12 268q0 14 2 18q2 6 2 13q0 17 4 37v-2q1 10 3 31.5t3 31.5l6 66v16q0 10 2 16q0 15 2 17q0 2 1.5 5t1.5 5l1 5q1 5 1 9l16 68l6 31q11 58 53 118v-2q1 2 4.5 6.5t4.5 6.5q18 37 30 45l31 20v-2q22 18 45 21q12 2 43 2q16 0 30.5 -9t14.5 -28 q0 -20 -4.5 -30t-9.5 -11.5t-15 -1.5h-14q-17 0 -33 -8l2 2q-9 -6 -26 -23l-13 -12q-1 -2 -5 -6t-5 -6q-6 -6 -14 -31q-7 -14 -8 -15l-13 -24q0 -2 -2 -6q0 -3 -4 -15q0 -1 -1 -3t-1 -3q-10 -40 -22 -112v2q-2 -13 -4 -25q-4 -34 -11 -51q0 -74 -10 -139q-2 -14 -2 -43v-11 q0 -2 -1 -7.5t-1 -8.5q0 -29 -4 -61q0 1 1 2t1 2q36 36 61 45q71 20 127 8q11 0 19 -4q2 0 7.5 -1t6.5 -1q5 -2 31 -19q2 -2 9 -6t9 -6v2q2 -1 4 -2.5t8 -6.5t13 -11l8 -9q2 -3 23 -20q2 -2 4.5 -5.5t3.5 -4.5l10 -11q23 -23 25 -28l12 -25q20 -54 24 -112q5 -44 5 -111 q2 -10 -2 -41q0 -17 -5 -37q-2 -10 -6 -26q-4 -28 -10 -46q-2 -8 -8 -26q0 -11 -6 -29q-2 -4 -2 -8q-2 -8 -6 -20l-9 -23q0 -4 -4 -12l-14 -25q-29 -48 -33 -53q-37 -44 -57 -55v2q-43 -28 -78 -31l-18 -2q-29 0 -37 2q-7 0 -15 4q-39 13 -59 25q-33 17 -59 59h2 q-7 7 -19 31l2 -2l-10 16q-1 1 -3 4t-3 4l-12 25q-21 60 -31 145q-6 45 -6 150v24q0 5 -1 16.5t-1 16.5zM162 455q0 -3 1 -10t1 -11v-47q0 -19 2 -29q0 -25 6 -49q0 -3 1 -10t1 -10q4 -24 4 -31q0 -6 4 -14q0 -1 1 -6t1 -7t1 -5t1 -5q4 -12 4 -24q2 -11 17 -37l6 -13l8 -14 l4 -8q2 -4 8 -10l25 -17q6 0 14 -8q2 -2 5 -3.5t4 -2.5q2 -1 8 -3t8 -3q4 -2 12 -2h10q37 13 67.5 35.5t41.5 50.5l6 14l8 14q2 11 4 17q0 2 2 6t3 8q7 27 8 29q8 16 8 20l6 25q2 2 6 27q15 66 15 127q0 53 -11 124q0 1 -1 3.5t-1 3.5v-2q-10 39 -18 49q-1 1 -2 3.5t-2 4.5 t-2 2l-13 16l-12 15l-12 16q-14 14 -35 23l-12 6v-2l-7 3l-10 5q-20 10 -37 10q-5 2 -28 2h-8q-15 0 -29 -14l-14 -10q-2 -1 -6.5 -4.5t-6.5 -4.5q-6 -2 -16 -12l-6 -12q-1 -1 -3 -5t-3 -5q-14 -18 -19 -37q-10 -31 -12 -41q0 -3 -1 -9.5t-1 -9.5q-1 -6 -2 -18.5t-2 -18.5 v-75z" />
<glyph unicode="7" horiz-adv-x="798" d="M-5.5 54.5q3.5 20.5 17.5 33.5q18 18 27 43q13 18 29 53l65 111v-2q10 21 23 41l12 22q10 17 59 107q4 11 11 22l22 31l-2 -2q6 15 16 35q52 89 54 92q1 2 3 7t3 7l31 60q60 123 81 159l17 29l-2 -2l6 12q8 21 51 111q4 8 19 36t20 38q16 28 41 84q20 45 23 51l43 84 l12 18l-2 -2l4 8q-49 2 -150 2q-6 0 -22.5 1.5t-26.5 1.5h-51q-76 2 -227 2h-11q-2 0 -6 -1t-6 -1q-64 -8 -76 4q-10 10 -10 47v10q0 11 23 19.5t39 5.5h6q60 0 94 2q6 0 18.5 1t18.5 1h37q26 0 112 -4h115q1 0 3.5 1t4.5 1h60q4 0 11.5 -1t10.5 -1l74 2h12l6 1q6 1 11 1 q42 -3 53 -39v-2q2 -22 -21 -54q-2 -5 -12 -21t-12 -22l-27 -49q-2 -3 -9 -18.5t-9 -18.5q-1 -2 -5.5 -12t-7.5 -16v2q-6 -12 -12 -27q-22 -53 -39 -84q-15 -30 -45 -84q-2 -5 -9 -20.5t-9 -20.5q-7 -13 -20.5 -39.5t-20.5 -40.5q-54 -105 -68 -129q-2 -3 -7 -13t-7 -13 q-1 -4 -5 -13.5t-5 -13.5l-7 -12q-6 -6 -6 -8q-1 -1 -5.5 -10t-10.5 -17q-2 -3 -8 -13.5t-8 -13.5l-25 -51l-19 -35v2q-4 -7 -15.5 -31t-18.5 -36v2q-10 -18 -34 -63.5t-38 -69.5v2q-5 -9 -17.5 -27.5t-17.5 -27.5q-3 -3 -10 -21q-8 -19 -12 -25l-17 -24l-2 -8 q-7 -18 -18 -29l-8 -16q-10 -20 -11 -23q0 -2 -14 -20q-6 -12 -8 -15q0 -4 -6 -16q-11 -19 -11 -23l-14 -24l2 2q-1 -2 -2 -6t-2 -6q-4 -9 -7 -13.5t-10 -9t-18 -4.5q-12 0 -21 3.5t-14.5 8.5t-19.5 19q-7 5 -3.5 25.5z" />
<glyph unicode="8" horiz-adv-x="661" d="M68 477q0 23 4 105v10q0 62 22 121q2 10 19 43q25 44 51 80q12 16 35 24q-9 6 -17 14v-2q-9 5 -28 27l-31 39q-6 10 -10 14l-11 23q-7 9 -12.5 33.5t-5.5 31.5q0 13 -2 19q-4 16 -4 24q0 29 2 39q0 3 1 11.5t1 11.5q4 16 4 24q13 51 20 66l9 27l14 34q28 60 84 107 q6 8 39 22q5 0 10 5q8 3 17 6t10 4q1 0 3 1t3 1q8 2 31 2q16 0 34 -6q7 0 9 -2h-2q8 -4 10 -4q6 -2 20 -9v-2q0 1 4 0.5t7 -2.5q34 -17 55 -49q0 -2 4 -6l12 -16q21 -27 39 -88q11 -34 14 -89q0 -1 1.5 -6t1.5 -10v-82q0 -11 -9 -43q-2 -16 -4 -20q-6 -18 -35 -78l-28 -29 q-6 -8 -17 -16q-6 -6 -18 -15q-2 -2 -14 -10q8 -4 36 -22q32 -24 33 -25l51 -59q11 -11 23 -35q1 -1 2.5 -5.5t3.5 -8.5t4 -7v2q12 -25 15 -34l-3 2l11 -29l8 -33q12 -44 12 -131q0 -36 -4 -82q-2 -10 -2 -20q-4 -36 -14 -74l-6 -25q0 -4 -5 -14q-6 -18 -6 -24 q0 -17 -28 -78q-15 -36 -15 -37l-8 -10l-10 -23q-8 -12 -35 -43q-27 -29 -74.5 -45t-95.5 -12q-27 2 -72 20q-29 16 -79 70q-37 44 -52 92q-25 79 -30 154q-2 47 -2 151zM158 457q0 -40 2 -60q0 -2 1 -6.5t1 -7.5v-16q0 -4 1 -14t1 -15q0 -27 4 -59v2q12 -61 27 -97 q10 -27 26 -51q2 -2 6 -7t6 -7l17 -17l14 -10q36 -28 84 -22q1 0 3 1t3 1l10 3l15 5q18 9 37 31q7 6 18.5 23t14.5 26q4 4 4 14q5 18 18 45l4 12q0 11 6 23q0 1 1 4.5t2.5 9t2.5 8.5l5 13q0 21 10 51q8 25 10 35q2 8 2 43v22q2 25 2 80q-4 68 -14 92q0 1 -1 3t-1 3 q-2 7 -10 24t-9 20q-1 2 -2 6t-2 6l-6 18q-10 15 -12 19q-4 4 -4 8q-4 7 -11 12l-16 21q-11 16 -49 34q-1 0 -2.5 2t-3.5 3q-4 3 -29 9.5t-27 6.5q-26 6 -38 2q-2 -2 -9 -2q-22 -4 -39 -19q-17 -17 -24 -38q-4 -18 -12 -29l-7 -14q0 -7 -4 -19l-4.5 -13.5t-5.5 -19.5 q0 -3 -2 -10t-2 -10q-4 -11 -6 -82q0 -5 -1 -14.5t-1 -14.5q-4 -46 -4 -67zM172 1049q9 -49 33 -80l10 -15q19 -22 29 -30q29 -23 61 -23q23 0 47 11t37 26q4 6 14.5 18.5t14.5 18.5q16 33 18 39q6 18 6 35q0 2 1 8.5t1 9.5l2 4q-2 4 -2 14v29q4 26 -2 49v11q0 3 1 7.5 t1 6.5q-4 12 -4 29q-1 3 -3.5 14.5t-5.5 26t-5 20.5q-7 21 -23 37q1 0 -3 4.5t-9 9.5v2l-12 10q-17 17 -53 17q-5 -2 -9 -2q-2 -2 -12 -2q-35 -9 -51 -25q-34 -34 -51 -78q-18 -47 -27 -98q0 -10 -2 -14v2q-6 -38 -2 -92zM199 860h2h-2z" />
<glyph unicode="9" horiz-adv-x="727" d="M27 956v35l1 4q1 4 1 9q0 10 4 34q4 16 18 58q0 6 2 8q2 4 2 8q6 21 15 39l2 2l2 8q5 25 22 58q17 35 78 106q19 19 59 55q17 17 33 25q26 13 41 16q2 0 5.5 1t4.5 1q7 0 19 4q18 9 39 9q47 4 74 -4q2 0 5.5 -1t4.5 -1l33 -9q12 -2 34 -20q14 -7 15 -8q22 -13 51 -45 q2 -3 9 -12.5t9 -12.5q0 -3 17 -18q6 -14 16 -39q1 -2 3 -8.5t3 -8.5q0 -6 4 -14q4 -12 4 -23l7 -36l4 -43v-86q0 -1 -1 -7t-1 -10l-2 -53l-5 -25l-8 -63l-6 -43q0 -2 -1 -7.5t-1 -7.5q-2 -10 -6 -34l-6 -17l-4 -14q-4 -16 -4 -27v-10q0 -2 -1 -6t-1 -6q-17 -79 -37 -129 q0 -1 -2.5 -8t-4.5 -14t-4 -11q-1 -4 -3 -11.5t-3 -11.5t-12 -38q-2 -3 -12 -37l-19 -49q-26 -64 -53 -113v2q-4 -10 -31 -64q-5 -10 -14 -22l2 2q-1 -2 -3 -3t-3 -3l-21 -27l-12 -16q-3 -4 -13 -18t-16 -21l-18 -23q-1 -1 -3 -4t-3 -4q-17 -22 -19 -26l-22 -23 q-15 -20 -25 -25v3q-23 -23 -39 -29q-11 -4 -26 2t-23 22q-11 28 19 58l32 35q1 2 5 6t10 9t8 7q2 3 8 9.5t8 9.5l4 8q0 3 3.5 7t9.5 10.5t10 10.5l-2 -2q1 2 4 5.5t4 5.5l23 28l18 27l-2 -2q2 4 7 12t7 12l23 37q27 45 33 60q4 4 4 8l12 31q0 2 4 10l6 10l4 23q2 10 11 28 q10 25 10 31q0 1 1 4t1 4q4 16 6 19q-1 0 0 5t4 13l15 48v-1q5 21 12 39q8 15 10 25q-1 -1 -5 -3t-5 -3q-13 -10 -40 -19.5t-46 -11.5q-58 -4 -99 2q-22 0 -26 2q-13 0 -21 4l-16 4q-41 17 -55 21q-1 0 -4 1t-4 1l-13 6h2q2 0 -0.5 1.5l-7.5 4.5l-6 2q-20 10 -43 29 q-36 31 -59 79q-3 7 -21 52q-7 16 -10 37q-8 24 -8 79zM125 924q10 -72 47 -125h-2q2 -3 7 -9.5t7 -9.5q5 -4 29 -22l-2 2q2 -1 5 -4t5 -4l23 -13q6 -2 22 -6q2 -1 18 -6t23 -6q2 0 8.5 -2t8.5 -2l16 -2h51q15 0 43 8q8 4 12 4q2 1 9.5 5t9.5 5q1 1 6 5.5t6 5.5l33 32 q1 1 2 3t2 3q3 3 6.5 8t7 11t4.5 8l9 18q2 7 4 11q0 12 2 14q0 2 1 6.5t1 5.5q26 145 22 201v64q0 8 -4 36v13q0 2 -1 5.5t-1 4.5q-9 41 -33 80q-11 20 -28 37q-6 6 -15 6l-6 2l-26 16q-2 0 -6 2q-22 11 -45 11q-21 0 -68 -15q-35 -8 -53 -26l-21 -21q-33 -29 -47 -51l2 2 q-11 -22 -18 -29q-14 -14 -21 -32q-66 -115 -55 -250z" />
<glyph unicode=":" d="M37 866q0 12 1 33t1 31q0 12 1 31.5t1 27.5q0 33 31 49q39 5 53 -12q12 -14 12 -45v-78q0 -45 2 -61q0 -3 1 -7.5t1 -7.5q5 -69 -20 -94q-12 -13 -42 -6t-34 25q-8 39 -8 114zM49 272q0 15 18.5 26t30.5 11q9 0 27 -12q8 -8 14.5 -32t5.5 -46q-2 -13 2 -51q3 -18 3 -29 v-80q4 -32 -15 -53q-38 -16 -57 -4q-27 19 -23 41v6q0 6 -1 18t-1 17v29q-4 94 -4 159z" />
<glyph unicode=";" horiz-adv-x="247" d="M18 -96q0 30 17 57v-2l8 16v-2q0 1 1 4.5t1 4.5l4 8q27 69 37 104q16 40 16 60v22q9 13 46 17.5t49 -13.5q8 -28 0 -53q-7 -26 -25 -76l-6 -12l2 2q-5 -15 -17.5 -44.5t-17.5 -43.5q-5 -15 -8 -21q-4 -8 -4 -10q-14 -32 -31 -47q-6 -6 -23 -7t-33 7.5t-16 28.5zM88 762 v125q0 5 1 14t1 14q4 33 -2 58q-5 44 10 59q21 16 49.5 10t34.5 -26q6 -27 2 -92q0 -7 -1 -28.5t-1 -27.5v-106q4 -30 -14 -62q-42 -15 -68 11q-12 16 -12 51z" />
<glyph unicode="&#x3c;" horiz-adv-x="790" d="M5 660q1 30 5 34h-2q16 25 129 56q2 1 7.5 2t7.5 2q12 4 32 8l33 10l43 16q69 26 150 54q10 3 44.5 15t74 26t44.5 16l29 10q25 10 38.5 13.5t30.5 3.5t26 -12.5t12 -36.5q3 -23 -5 -31t-24 -10l-23 -9q-38 -15 -69 -22q-34 -9 -47 -14q-66 -28 -105 -37q-36 -12 -57 -21 q-63 -22 -82 -26q-17 -6 -51.5 -18.5t-50.5 -18.5q-5 0 -43 -11q32 -6 65 -18q88 -31 135 -41q43 -17 180 -49q9 0 13 -4q142 -32 162 -64h-2q9 -17 -8.5 -41t-39.5 -24q-20 0 -43 10q-21 8 -34 10q-37 10 -48 13q-2 0 -5 1t-5 1q-33 5 -71 16q-8 4 -15 4q-22 8 -61 19 q-13 4 -30 9t-43 13t-46 14q-92 22 -141 43l-43 15q-52 11 -66 37v-2q-2 9 -1 39z" />
<glyph unicode="=" horiz-adv-x="1077" d="M74 705q0 22 13 37t34 16q42 3 137 -2h14q20 0 41 -1t25 -1h41q4 0 21.5 -1t31.5 -1q35 -2 103 2q27 2 90 2h49h100q3 0 12 -1t13 -1h41q4 0 12 -1t12 -1h80q15 0 30.5 -22t8.5 -42q-5 -10 -21 -18t-34 -8q-30 -3 -86 -3q-57 0 -66 3h2q-44 5 -104 2q-51 0 -86 -5h-29 q-41 0 -53 3q-10 2 -57 2h-41l-144 6h-37q-10 0 -22 -0.5t-20 -1t-9 -0.5q-95 -10 -102 37zM82 578l2 2q11 14 22 18h76q86 0 133 -2h17q29 0 58 1t32 1h41q4 0 31 -1t53 -1q6 0 20 1t21 1h178q68 -3 158 4q21 0 31.5 -1.5t21 -12.5t12.5 -33q0 -24 -11.5 -37t-31.5 -12 q-16 2 -72 2q-55 0 -73 -2q-112 -4 -166 -2q-53 2 -197 2h-47h-102q-3 0 -10 1t-11 1h-137q-31 6 -39 16q-23 28 -10 54z" />
<glyph unicode="&#x3e;" horiz-adv-x="796" d="M80 430q-2 16 2 25t10 12.5t17 5.5l22 8q42 17 70 23q34 9 47 14q68 29 104 37q51 17 58 20q56 20 82 25q16 6 51 18.5t51 18.5q8 0 43 10q-29 5 -66 19q-88 31 -135 41q-44 19 -180 51q-8 0 -12 4q-143 32 -162 63h2q-9 15 8.5 39.5t38.5 24.5q20 0 43 -10 q24 -10 35 -11q24 -7 47 -12q2 0 5 -1t5 -1q35 -5 72 -16l14 -2q8 -2 28.5 -8.5t35.5 -10.5t52.5 -16.5t63.5 -20.5q94 -23 142 -43l43 -14q51 -11 65 -39h-2q3 -7 2.5 -37.5t-4.5 -34.5h2q-15 -22 -129 -53q-2 -1 -7 -2t-7 -2q-11 -3 -33 -8q-5 -1 -17 -6l-18 -4l-41 -17 q-24 -9 -74.5 -27.5t-74.5 -27.5q-1 0 -164 -57l-29 -11q-25 -9 -38.5 -13t-30.5 -3.5t-25.5 13t-11.5 36.5z" />
<glyph unicode="?" d="M31 1305l6 16q8 19 20 33l19 22q23 33 55 41q2 1 6 2t6 2q29 11 37 11q38 3 79 -8t67 -29q29 -19 45 -41q9 -13 30 -64q1 -4 4.5 -11l4.5 -9q14 -35 14 -78q0 -89 -16 -141l-5 -15l-6 -16q-3 -27 -26 -70q-5 -8 -12.5 -18.5t-12.5 -18.5q-12 -17 -27 -43l-22 -34v2 l-25 -41l-20 -41q-23 -45 -29 -105l-6 -26q-1 -7 -4 -20.5t-4 -20.5q-8 -68 -8 -160v-12q0 -3 -1 -8t-1 -7q5 -37 -9 -57q-9 -14 -34 -15.5t-35 9.5q-24 27 -21 82q2 10 2 18l7 139l12 76q5 31 12 47l8 25q8 34 21 61q20 45 26 62q3 10 27 43l-2 -2l4 8l47 72q26 34 35 59 q2 5 5.5 17t4.5 14q1 4 3 8l3.5 7t2.5 7t1 8q11 51 11 105q0 46 -17 80q-1 2 -3 5t-3 5l2 -2l-10 20q-11 11 -35 27q-43 22 -90 6q-13 -4 -39 -26h2q-30 -48 -33 -54v2q-7 -14 -29.5 -12.5t-37.5 16.5q-14 14 -6 48zM100 80v37q-5 35 4 49q8 12 25.5 21.5t32.5 9.5 q16 0 39 -23q9 -25 6 -45v-51q4 -44 -10 -70q-17 -15 -51 -11t-40 23q-10 33 -6 60z" />
<glyph unicode="@" horiz-adv-x="1105" d="M55 559q2 12 2 35q0 11 4 35q5 30 5 37q0 18 2 26t2 23q0 37 4 57q5 47 22 113q0 13 21 67q-1 0 0.5 6t3.5 13q1 2 4.5 11.5t5.5 16.5q0 18 10 35q1 1 3 5t3 5q1 2 2.5 8.5t2.5 8.5q5 19 8 24q7 14 13.5 29.5t10.5 22.5q11 16 17 28v-2q5 13 20 35l-2 -2q15 29 31 49 l55 72q4 4 6 8q23 34 47 49v-2q3 2 13.5 9.5t13.5 9.5l12 6q12 7 52 24q14 7 20 9q21 11 45 14q4 2 16 2q2 0 6.5 1t6.5 1q12 1 22.5 2.5t16.5 2.5t8 1h45q67 5 100 -4q38 -11 64 -25q2 -1 7 -3t7 -3q31 -14 43 -33q4 -5 18.5 -20t20.5 -23q7 -7 32.5 -45t33.5 -53 q6 -6 6 -10l26 -70l6 -41q10 -45 11 -55l6 -96q3 -91 -15 -197q-3 -44 -20 -104q-8 -35 -37 -88q-12 -23 -22 -41q-4 -7 -16 -25l-13 -20q-34 -58 -94 -72q-39 -8 -80 10q-18 7 -27.5 15.5t-25.5 29.5q-13 17 -13 45h-1q1 -1 1 -2q-3 -4 -10.5 -12.5t-9.5 -11.5 q-26 -26 -51 -37q-49 -21 -99 -6q-1 0 -4 1t-4 1q-49 12 -69 22q-25 14 -37.5 22.5t-31.5 26.5t-28 39l-16 33q-19 37 -25 86q-3 75 33 168q4 4 8 16q1 2 1 5.5t1.5 7.5t5.5 8q10 15 11 16t1.5 2.5l1.5 4.5t3 6q10 24 57 61q29 29 64 45q12 3 22 8q16 8 31 13q13 3 72 0 q5 0 15 -2.5t15 -2.5q49 -7 82 -30h-2q35 -13 55 -43q13 -18 13 -72v-12q0 -73 -4 -139q-2 -8 -2 -41q0 -42 -2 -62q-5 -50 -5 -63v-35q0 -31 21 -31q17 0 37 16q27 31 53 82q21 39 33 80v-2q0 1 1 4.5t1 5.5l12 52q17 64 21 170v16q0 3 -1 7.5t-1 6.5q-4 152 -35 224l-8 18 q-20 39 -33 57q-18 29 -64 66q-42 34 -86 43q-59 11 -100 4q-12 -2 -41 -10q-15 -5 -27 -8q-41 -10 -63 -23q-43 -22 -64 -47q-8 -12 -16 -18q-9 -9 -35 -48v2q-4 -8 -8 -12q-18 -24 -41 -72q-1 -2 -3 -5t-3 -5q-2 -4 -6 -11t-6 -11q-23 -43 -29 -72q0 -2 -21 -61 q-7 -20 -10 -25q-16 -43 -18 -53q-1 -6 -3 -15.5t-3.5 -16.5t-3.5 -13q-15 -53 -17 -62q0 -8 -2 -10q0 -2 -1 -11t-1 -14q-2 -8 -2 -20q0 -17 -2 -25q-4 -16 -4 -28q0 -19 -2 -23q0 -3 -1 -10t-1 -12q-4 -12 -4 -68q3 -74 16 -151q2 -8 2 -27q5 -45 21 -86q4 -16 26 -59 q22 -45 49 -72q9 -9 25 -21q4 -3 15 -11t18 -13q20 -14 67 -33q2 0 8 -1t7 -1q65 -13 114 -18q58 -9 103 10q2 2 8 4q3 1 12 3t17 5.5t14 9.5q37 17 88 62q2 2 8 7t8 7q17 15 45 23t45 -2q17 -15 20 -30t-7.5 -29.5t-23 -25.5t-32.5 -24q-2 -1 -3 -3t-3 -3q-19 -14 -53 -33 q-24 -18 -27 -20q-56 -29 -77 -37q-51 -25 -131 -21q-36 4 -52 6q-97 14 -131 23q-12 0 -39 16q-3 2 -9 5.5t-9 5.5l2 -2q-41 20 -51 28q-3 3 -6.5 8t-5.5 7l-19 18q-2 2 -9.5 8.5t-8.5 7.5q-21 21 -31 35q-1 2 -6 7.5t-8 9.5q-14 19 -29 63q-1 6 -16 35q-1 4 -6 18t-7 21 q-1 6 -4 14.5t-4 11.5q-1 1 -3 8.5t-3 8.5l-16 74q-5 18 -5 40q0 11 -4 43q-5 31 -2 70zM371 713q0 -39 10 -58q31 -68 72 -90q30 -12 55 -12q37 0 78 20h-2q12 8 20 16t11.5 15t9.5 21l6 12q20 41 20 108q0 6 1 29.5t1 36.5l-12 121q-3 6 -7.5 9.5t-7 4.5t-11 3.5t-9.5 2.5 q-3 1 -9.5 2t-10.5 2q-15 5 -33 5q-9 2 -16.5 0.5t-17 -7t-13.5 -6.5q-2 -1 -6 -2t-6 -2l-13 -8h2q-49 -29 -73 -78q-39 -81 -39 -133v-12z" />
<glyph unicode="A" horiz-adv-x="563" d="M16 57l7 19q3 19 10 41q0 2 2 7.5t2 8.5q4 8 4 14l6 33q6 19 14 56q3 26 9 43q0 2 1 5t1 5q0 6 2 10t2 6l8 49q4 12 4 23q2 8 2 22q0 9 4 21q1 9 3 26.5t3 26.5q1 10 5.5 34t5.5 34l12 51q0 8 2 12q2 6 2 14l6 27q1 4 3 14.5t3 14.5q4 16 4 22q3 20 9.5 59t9.5 58v-2 q8 54 26.5 165t26.5 165l8 43l13 57q1 6 4 18.5t4 18.5q2 34 6 74v26q0 29 18 54q22 7 39 7q25 0 43 -14q12 -14 12 -43v-10q-2 -9 3 -41q0 -3 1 -8.5t1 -7.5t1 -6t1 -6v-11l6 -67q3 -19 10 -58t10 -59q1 -9 6 -45q3 -25 11 -55q4 -17 8 -52q1 -17 12 -110q0 -7 4 -15l4 -30 q5 -46 15 -101q5 -42 16 -102l10 -106q2 -16 7.5 -51t7.5 -52q11 -72 26 -196q6 -30 6 -41q6 -33 7 -39l4 -17q5 -25 5 -47q0 -9 -1 -18q0 -18 -7 -23.5t-22 -7.5q-1 0 -3 -1t-3 -1q-12 -2 -21.5 -2t-17.5 2q-11 4 -16 13.5t-6 18t-1 25.5q0 5 -4 21v10q0 1 -1 3t-1 3 q-6 37 -16 129q-1 10 -5 43.5t-7 54.5q-1 9 -5 33.5t-6 38.5q-2 17 -4.5 42.5t-3.5 29.5q-8 73 -14 108q0 3 -1 5.5t-1 5.5q-14 2 -39 2h-14q-50 0 -103 -6h-8q-2 -5 -8 -43q-4 -8 -4 -21l-6 -33q0 -8 -5 -18q0 -13 -2 -17q-2 -6 -2 -16q0 -21 -4 -41v-6l-4 -25l-4 -28 l-6 -39q0 -1 -1 -5t-1 -5q-8 -40 -8 -43q-2 -6 -2 -11q0 -12 -11 -45q-3 -13 -12 -35q-2 -4 -2 -12q0 -1 -1 -4t-1 -4q-2 -4 -2 -12q0 -1 -1 -5t-1 -6q-1 -4 -4 -15.5t-4 -18.5q-1 -3 -2 -9.5t-2 -9.5q-2 -2 -2 -10q-6 -28 -19 -37q-8 -5 -28.5 -5.5t-34.5 5.5 q-16 10 -16 31q0 10 3 22zM229 666q2 0 6.5 1t6.5 1q24 4 49 4h53h21q-2 12 -5.5 35t-5.5 34q-7 62 -28 191q-11 75 -15 119q0 3 -1 8t-1 8q-1 20 -0.5 31t0 22.5t-3.5 24.5q-1 -6 -2 -16.5t-2 -16.5q-1 -12 -4 -37t-4 -37q-12 -75 -17 -120l-8 -31q-6 -15 -6 -29 q-4 -41 -8 -61q-4 -12 -4 -17l-6 -37l-6 -34q0 -2 -1 -6.5t-1 -6.5v-8q0 -1 -1.5 -4t-1.5 -4q-4 -8 -4 -14z" />
<glyph unicode="B" horiz-adv-x="522" d="M90 166q0 31 4 67v191q4 46 4 63q0 7 -1 21t-1 20v76v82q2 57 2 201v37q0 1 -1 4.5t-1 5.5v33q0 1 1 5t1 9v14q0 3 -1 12t-1 13q-2 16 -2 55q0 6 -1 17t-1 16v262q0 29 8 60q4 4 4 6q8 12 25 12l37 -4q18 0 24 -2q2 0 5.5 -1t5.5 -1q14 0 18 -2q40 -7 105 -43 q6 -3 16 -13l25 -18l14 -14q36 -40 37 -37l16 -35l6 -12l21 -37l-2 2q12 -19 16 -57q2 -4 2 -11q0 -2 1 -5.5t1 -4.5v-16l4 -17q2 -10 4 -18q3 -19 3 -38q0 -33 -9 -65q0 -26 -10 -49l-6 -16l-10 -23q-4 -4 -4 -10q-3 -7 -17 -35v2l-6 -12l2 2q-1 -2 -2 -6t-2 -6l-10 -15 q-4 -6 -8 -18q-5 -5 -5 -8q-28 -35 -34 -41l-19 -19l-33 -26q-16 -16 -32 -19h2q1 0 4 -1t4 -1q6 -3 16.5 -8.5t14.5 -7.5q1 -1 5 -4t5 -4q24 -18 41 -35l6 -6l31 -35q8 -9 14 -20.5t8 -14.5h-2q2 -3 7 -12t7 -12l5 -11q7 -17 12 -36l4 -39q0 -11 2 -19q4 -20 4 -41 q3 -27 -4 -51v2l-6 -33q0 -27 -8 -51q0 -2 -1 -6t-1 -6l-9 -25l-8 -16l-8 -21q-4 -12 -8 -18q-4 -4 -6 -8q-8 -24 -15 -31q-4 -8 -14 -18l-33 -31l-18 -19q-4 -4 -19 -14l-16 -10q-22 -11 -37 -17q-10 0 -16 -6q-2 0 -6 -4l-43 -14q-20 -10 -45 -10q-26 0 -36.5 6t-19.5 26 q-8 16 -4 45q4 34 0 60v22q0 4 -1 11t-1 10zM178 270q0 -3 1 -9.5t1 -10.5v-115q0 -1 -1 -23t1 -28l4 2l-2 -2q4 4 17 8l39 17l14 8v-2q4 4 24 16l5 4q4 3 11.5 9l12.5 10t10 9t7 9l-3 -2q34 62 46 106q1 8 5 26t5 26q4 23 4 63v19q0 53 -12 94q-24 63 -80 100v-2 q-68 40 -103 49v-153q0 -2 -1 -8t-1 -9q-2 -4 -2 -22v-72q0 -1 -1 -6.5t-1 -11.5v-62q-2 -10 -2 -19t2 -18zM178 1206q0 -43 2 -61v-80q0 -2 1 -6.5t1 -7.5q2 -6 2 -21v-188v-80v-2q23 5 45 14t56 39q29 25 37 45l6 12q20 40 26 60l11 22q30 71 30 124v7q0 25 -6 52v10 q0 1 -1 3.5t-1 4.5q-5 20 -6 23q-4 12 -4 18l-2 8l-13 39l3 -2q-3 4 -10.5 14.5t-10.5 14.5q-1 1 -4 5t-4 5l2 -2q-16 21 -25 27l-26 20q0 1 -1 1q-3 0 -5 1q-4 4 -9 4h-2q-64 26 -92 31v-154zM416 1313v2v-2z" />
<glyph unicode="C" horiz-adv-x="595" d="M70 680v26q0 57 6 146l6 63q2 25 2 66q0 122 43 246q4 20 10 28v-2q1 3 5 9.5t5 9.5q18 40 23 45h-2q33 47 55 69q37 32 74 48q6 0 10 4q32 12 61 13q4 0 9 -1h14q26 0 82 -18l10 -5q10 -5 13 -8v2q10 -5 -6 6q3 -2 32 -24l15 -14q20 -20 32 -52q0 -1 1 -5t1 -5v2l7 -22 q0 -5 2 -9t2 -14q0 -27 -7 -39h-2q-19 -16 -51 -10q-28 8 -28 41l-1 3q-1 3 -1 7q-6 43 -11 43q-33 23 -49 29q-2 0 -7 2t-7 2q-14 3 -28 3q-22 0 -42 -7q-17 -4 -43 -23l-22 -14l2 2q-17 -11 -25 -27q-1 -2 -5 -7t-5 -7q-1 -3 -5 -9t-5 -9q-14 -21 -19 -43l-6 -19 q-2 -7 -8.5 -28.5t-10 -34.5t-7.5 -37.5t-5 -48.5l-6 -33v2q-2 -23 -2 -66l-8 -100v-8q0 -2 -1 -5.5t-1 -4.5q-2 -2 -2 -7q0 -2 -1 -6t-1 -6q0 -33 -4 -69v-45q0 -19 2 -29q0 -5 1 -15t1 -14v-102q0 -4 1 -11t1 -10q2 -6 2 -35q0 -3 0.5 -17.5t1.5 -51.5t2 -86v-86 q6 -47 16 -80q29 -49 62 -66q24 -15 71 -28q27 -6 48 -6q13 0 24 2q33 2 60 22q18 12 30 27l-2 -2l4 8q9 23 9 33q1 13 2.5 21t6 16.5t14 13.5t24.5 6q47 -6 47 -53q0 -11 -2 -23q-1 -5 -4.5 -15t-4.5 -15q0 -5 -4 -9q-2 -2 -2 -4l-8 -16q-1 -1 -4.5 -7.5t-6.5 -11t-7 -6.5 q-15 -10 -23 -18q-2 -2 -7 -6t-7 -6l-25 -17q-4 -2 -17.5 -7t-17.5 -7q-30 -12 -75 -12q-54 0 -101 14q-40 10 -55 18l-72 56q-15 15 -28 41v-2q-3 5 -7.5 12t-7.5 12q-28 59 -28 158q0 5 1 15.5t1 15.5v28q0 6 1 19.5t1 19.5v39q-2 20 -2 74v35q0 6 -1 17t-1 17 q-2 31 -2 109z" />
<glyph unicode="D" horiz-adv-x="651" d="M92 29v8q-1 10 -1 26q0 31 3 84q4 58 4 84v41q0 7 -1 21.5t-1 21.5v41v80q0 1 -1 10.5t-1 16.5q0 2 1 6t1 6v60q0 1 -1 4.5t-1 5.5v160q0 1 -0.5 5.5t-1 13t-0.5 19.5q0 1 1 4t1 5v14q0 3 -1 9t-1 9l2 99v22q3 82 3 134q0 26 -1 44v74q0 6 -1 17t-1 16v170q-3 40 10 53 q12 13 36 19q11 3 22 3q12 0 24 -3q6 -2 23 -2q21 0 39 -9q41 -16 94 -55v2q37 -23 61 -47l9 -6q10 -10 30 -35q16 -20 27 -31q4 -4 10 -16q4 -7 10 -12l11 -15l-2 2q27 -34 59 -92q5 -10 16 -43q2 -11 7.5 -30t7.5 -27q18 -70 22 -103q1 -3 3 -10t3 -10q9 -32 9 -55v-11 q0 -2 1 -6.5t1 -7.5v-27q0 -79 -19 -172q-13 -78 -39 -155q-22 -53 -49 -94l2 2q-1 -3 -5 -8.5t-5 -8.5q-4 -4 -6 -10l-10 -16l-37 -60l2 2q-5 -10 -17 -22q-1 -2 -5 -8.5t-5 -8.5q0 -1 -22 -28q-4 -6 -19 -21q-24 -28 -37 -41l-37 -33q-25 -29 -53 -47q-3 -2 -13 -10 t-13 -10l-21 -12q-20 -20 -45 -23q-4 0 -6 -2q-24 -8 -41 -8q-7 -1 -13 -1q-12 -1 -16 5q-6 8 -6 33zM186 129q0 -9 2 -12q3 2 4.5 1.5t-2.5 -3.5l5 2q2 0 4 2l12 6l2 2q4 2 14 12q1 2 5.5 6.5t5.5 6.5q4 9 14 16q3 3 17.5 15.5t23.5 21.5q31 31 63 71h-2q3 5 9.5 14.5 t9.5 14.5l6 10l12 17q8 12 24.5 37t24.5 37l-2 -3q4 8 11 15q1 2 5.5 10t6.5 10h-2q28 55 47 154q4 14 6 24q3 18 6 39q0 9 2 13t2 8q7 55 7 109q0 18 -1 36q-2 27 -12 80l-4 35q-2 2 -2 8q0 1 -1 4t-1 4q-6 12 -6 25q0 3 -1 7.5t-1 6.5q0 9 -2 13l-6 30q-1 2 -3.5 7.5 t-3.5 7.5t-3 7t-3.5 9t-1.5 6q-21 37 -76 111l-41 53q-10 19 -18 22q-11 11 -20 17q-1 1 -4.5 3t-4.5 3q-3 2 -11 8t-11 8q-23 18 -39 23q-2 0 -8 6q-2 1 -4.5 2.5t-7 5t-9.5 6.5l2 -2q-12 4 -20 4q-2 0 -6 1t-6 1h-3q-4 -12 -2 -20q0 -3 1 -15t1 -18v-51q-4 -50 -4 -84v-27 q0 -5 1 -15.5t1 -16.5q0 -40 2 -56v-94q0 -12 -1 -33t-1 -32v-584v-96v-25q0 -4 -1 -13t-1 -13v-21z" />
<glyph unicode="E" horiz-adv-x="417" d="M90 942v35v63q2 37 2 140q0 131 -2 192q0 42 25 58q12 7 32 7q8 0 17 -1h10q2 0 5.5 -1t4.5 -1h62q39 0 55 -2h10h11q31 0 51 -15q14 -12 6 -51q-7 -10 -17 -16q-24 -4 -64 -4q-29 0 -65 2h-14q-3 0 -8 -1t-8 -1h-19h-6v-89q0 -49 2 -69q2 -53 2 -94v-39q0 -15 -1 -31 q0 -44 3 -102q10 -2 45 -2h41q14 0 21 -1t16 -5.5t13.5 -15t5.5 -28.5q3 -22 -20.5 -30t-53.5 -6h-16q-2 0 -6.5 1t-6.5 1h-16h-25q2 -5 2 -7v-18q0 -3 -1 -9.5t-1 -10.5l4 -529q0 -6 -1 -23t-1 -26v-76q0 -5 1 -15t1 -16v-14h129q8 1 16 1q43 0 52 -25q3 -9 3 -18 q0 -13 -6 -27q-12 -23 -32 -23q-4 0 -14 -1t-15 -1h-28q-31 -2 -56 -2q-46 0 -77 6q-21 2 -40 14.5t-22 30.5q-4 43 -4 96q0 7 1 21.5t1 21.5v70v66q0 1 0.5 6.5t1 18t0.5 30.5q0 229 -2 342v15q-1 14 -1.5 51t-0.5 92v32q0 5 -1 16.5t-1 16.5z" />
<glyph unicode="F" horiz-adv-x="442" d="M90 55q0 35 2 45q0 4 1 14t1 13q3 25 -2 59v265q2 34 2 63t-2 53v33q0 8 -1 25t-1 28q0 4 1 11.5t1 11.5v76q-2 10 -2 44.5t2 51.5v96q0 3 1 15t1 22v16q0 3 -1 9.5t-1 9.5q0 71 0.5 120t1 71t0.5 26v110q0 3 -1 9.5t-1 9.5q-3 35 19 57q19 13 43 13h8q49 0 80 2 q1 0 6 -0.5t15 -1t24 -0.5h8q1 0 6 1t10 1q35 -2 43 -2q14 0 20.5 -1.5t17.5 -8.5t26 -23q6 -9 6 -19q0 -15 -12 -32q-9 -12 -19 -14.5t-33 -2.5h-43q-5 0 -17.5 1t-18.5 1h-37q-1 0 -26 0.5t-30 -0.5q-4 -74 -4 -133q0 -62 2 -156q-3 -35 -3 -58q0 -11 1 -19v-45 q0 -4 1 -12.5t1 -12.5v-23q-6 -64 -6 -184q18 -2 64 -2h37q3 0 7.5 -1t6.5 -1h39q47 0 57 -37q6 -25 -8 -39t-35 -14.5t-41 0.5q-18 0 -22 2h-6h-89h-10v-100v-64q0 -4 1 -12t1 -12v-82q0 -4 -1 -12t-1 -11v-18l2 -68q4 -16 4 -84q-6 -14 -2 -37q0 -4 1 -10.5t1 -9.5 q4 -36 2 -53q-4 -21 -26 -27q-8 -2 -16 -3q-15 0 -33 7q-23 13 -23 53z" />
<glyph unicode="G" horiz-adv-x="659" d="M68 594q0 41 4 127q0 4 1 16t1 17v32q0 24 4 48q0 22 2 28q2 10 2 27v10q4 64 8 94q0 27 4 47q0 28 4 52v10q0 2 1 8t1 10q3 37 11 72l12 45q6 16 31 66l26 49q15 28 44 51.5t65 30.5q25 6 65 6q22 0 52 -6q9 -2 51 -21l24 -16q26 -26 49 -70q6 -18 9 -39q1 -4 3 -15.5 t3 -15.5q0 -4 4 -12q2 -6 2 -16q0 -35 -25 -53q-14 -4 -27 -4q-24 0 -40 16q-15 17 -15 51q0 15 -4 31q0 1 -1 5t-1 5q-5 31 -24.5 45t-59.5 14q-22 0 -49 -10q-32 -18 -33 -20l-10 -11q1 1 -0.5 -1.5t-5 -8t-5.5 -9t-5 -7.5q-3 -9 -11.5 -32t-11.5 -32q0 -4 -2 -6 q-6 -12 -8 -28l-6 -38v-1v-13q-11 -67 -21 -155q0 -21 -4 -37q0 -1 -1 -3.5t-1 -4.5q-2 -12 -2 -31q0 -21 -4 -49q-2 -10 -2 -33q0 -70 -2 -107q-4 -70 -4 -118q0 -40 2 -60q4 -40 4 -63q0 -73 10 -148q0 -2 1 -6.5t1 -7.5q2 -4 2 -20q23 -101 35 -129l6 -13q4 -8 7.5 -12.5 t9 -8.5t8.5 -7q14 -14 24 -19q1 -1 8.5 -3t8.5 -3l16 -8h-2q34 -4 53 6q33 15 60 59q19 33 24 47l11 31q7 15 16 49q2 6 2 17q0 4 1 11.5t1 10.5q6 24 6 45v13q0 10 2 14q4 16 4 24l-4 35v21q3 20 0 33q2 27 2 65q0 28 -2 51h-43q-37 0 -55 -2q-28 -2 -52 -2q-33 0 -57 4 q-28 3 -32.5 21t8.5 49q10 24 46 24h11h15q21 3 69 3q44 0 64 2h16q12 4 16 4q25 6 56 2q13 -3 19.5 -8t17.5 -21v-106v-82v-76q0 -72 -4 -103q-3 -12 -3 -14l-8 -57l-14 -47q-1 -5 -5 -15.5t-5 -15.5q-6 -23 -29 -53l-12 -19l-2 -4q-3 -4 -9 -14t-11.5 -17t-12.5 -12 q-1 -1 -3 -4t-3 -4l-8 -8q-2 -2 -5.5 -6.5t-6.5 -7.5t-7 -5h2q-31 -21 -88 -26h-8q-2 0 -5 -1t-5 -1h-11q-30 0 -36 2q-8 2 -26.5 9t-20.5 7q-25 16 -54 41l-22 23l-13 18q-30 36 -49 131l-4 16q0 2 -12 74q0 2 -1 7.5t-1 7.5v10q0 2 -1 6.5t-1 7.5q-4 32 -4 62v30 q0 5 -1 14.5t-1 14.5q-4 70 -4 127z" />
<glyph unicode="H" d="M88 227q0 5 1 15.5t1 15.5v29q0 6 1 18.5t1 18.5v69q0 2 1 6t1 7q-2 8 -2 26v498q0 46 -2 71q-2 24 -2 47.5t2 45.5q2 27 2 75v203q0 4 1 13t1 16q0 18 19 29h-2q6 4 19 4h12q23 -2 34 -15q10 -12 10 -41v-196v-97v-342q0 -2 1 -6t1 -6v-49q1 0 4.5 -1t4.5 -1q9 0 47.5 2 t46.5 2h39v29q0 2 1 7t1 7v12q2 45 2 164q0 10 1 30.5t1 29.5v51q0 67 -2 104v51q0 5 1 15t1 14t-1 13.5t-1 13.5v37q2 23 2 75v13q0 2 -1 5t-1 5q-2 10 -2 41q0 11 9.5 18t23 8.5t27.5 0t24.5 -8.5t11.5 -18v-86q0 -67 -2 -94q-2 -25 -2 -82q0 -76 2 -115q0 -9 1 -28.5 t1 -28.5v-58q0 -40 -4 -110v-113q0 -6 -1 -17.5t-1 -17.5q0 -26 4 -88v-10q0 -7 1 -20t1 -19v-68q0 -6 -1 -21t-1 -22q-2 -29 -2 -88v-90q0 -1 1 -3.5t1 -4.5v-143q0 -13 2 -23q0 -12 -8 -37q-10 -17 -40 -18h-5q-26 0 -39 10q-16 27 -8 55v17q0 8 1 23t1 20v41q0 59 2 88 v29q0 7 -1 18t-1 14q-2 24 -2 48.5t2 48.5v34v25q-4 54 -4 115q-17 0 -23 2h2q-11 2 -53 2q-14 0 -26 1q-24 0 -40 -1v-13q0 -4 -1 -10.5t-1 -9.5v-14q2 -41 2 -152v-63q0 -124 -2 -185v-12q-4 -25 -2 -49q0 -1 1 -3.5t1 -4.5q0 -1 1 -4t1 -5q5 -33 -2 -47q-13 -20 -39 -20 q-17 0 -39 8q-11 7 -14 45q0 2 -1 6t-1 6v56q0 1 1 5t1 9v21q-4 46 -4 77z" />
<glyph unicode="I" d="M90 936v37v76q2 27 2 86q2 29 2 88v163q-6 17 -2 30.5t27 17.5q8 2 16 2q34 0 51 -33q6 -25 6 -77q0 -29 -2 -66v-31q0 -7 -1 -18t-1 -15v-109q0 -8 -0.5 -24t-0.5 -29.5t1 -25.5v-285q0 -4 1 -15t1 -16v-14q2 -39 0 -57q0 -5 -1 -15t-1 -14v-41q0 -8 -0.5 -24 t-0.5 -32.5t1 -33.5v-76q0 -7 -1 -21.5t-1 -21.5v-131q0 -4 1 -11t1 -10v-34q0 -3 1 -11t1 -12q0 -3 1.5 -8.5t1.5 -7.5q0 -31 6 -49q3 -11 3 -21q0 -15 -8 -29q-14 -22 -38 -24q-4 0 -8 -1q-20 0 -39 11v-2q-15 8 -15 53v13q0 2 -1 7.5t-1 8.5q0 5 1 15t1 14v90 q-2 16 -2 71v54q0 6 1 29.5t1 43.5v291q0 6 1 18.5t1 18.5v35q0 30 -4 88v47q0 6 -1 18.5t-1 18.5z" />
<glyph unicode="J" d="M-43 104q0 50 43 56q32 0 49 -39l4 -4q14 -28 76 -39q19 0 51 8q29 0 61.5 32.5t41.5 76.5q1 3 2 9t2 9q5 14 8 41q4 35 6 53v19v26q2 12 2 60q0 5 -1 41.5t-1 70.5v21v16q0 37 2 49v62q2 25 2 78v127q2 51 2 159v33q0 2 -1 5t-1 5q2 43 2 127q0 101 -4 150v28 q0 22 19 41q14 11 30 11q6 0 12 -1q23 -5 29 -16q8 -16 8 -55v-16q7 -68 7 -127v-35q0 -6 -1 -18.5t-1 -18.5q0 -4 -1.5 -12t-1.5 -11v-86q0 -1 1.5 -3t1.5 -3q-3 -56 -3 -114v-123q0 -1 -1 -4.5t-1 -4.5l2 -26l-2 -74v-59q-2 -41 -2 -123l2 -133v-21q0 -4 -1 -13t-1 -13 q-2 -18 -2 -56q0 -26 -16 -84t-37 -94l-2 -4q-20 -30 -31 -39q-15 -18 -37 -29q-4 0 -6 -2l-14 -10l-57 -18q-23 -4 -50 -4q-17 0 -36 2q-32 2 -67.5 17t-55.5 38q-13 15 -23 35l-4 8z" />
<glyph unicode="K" horiz-adv-x="581" d="M92 168q0 2 1 6t1 6v15q0 1 -0.5 4.5t-1 10.5t-0.5 17q0 3 1 10t1 11q0 25 2 35v34q-2 45 -2 172v168q0 5 1 14t1 13v27q0 43 2 57q0 62 -2 68v67q2 25 2 78q0 71 -2 104v277q0 4 -1 12t-1 12q0 13 8.5 28t24.5 20q14 4 24 4q19 0 27 -12q12 -18 10 -56q0 -101 7 -180 v-55q-4 -35 -2 -54v-39q0 -2 1 -7.5t1 -8.5q0 -39 2 -57q4 -40 4 -66v-39q2 3 6 15q1 2 3 5t3 5q1 3 5 12.5t9 18.5l21 49l12 26q11 23 34.5 68t35.5 67q10 25 28 56l7 14q20 50 34 70q2 5 9.5 19.5t9.5 19.5l8 16q6 19 41 82q16 23 54 25t46 -25q3 -13 -3 -35t-15 -33 q-5 -5 -25 -41q-1 -1 -3 -5l-15 -27q-4 -5 -12 -27l-25 -49q-18 -37 -29 -60q-10 -13 -10 -22q-6 -14 -31 -55q-3 -7 -16 -39l-92 -180l-35 -52q-23 -32 -37 -55q10 -15 14 -27l10 -17q2 -2 5 -7l6 -8q2 -8 8 -13q10 -10 37 -53l14 -27l27 -53l10 -16l12 -25l15 -30 q48 -92 53 -103l-2 2q2 -3 9 -13t9 -13l31 -68v2q5 -8 16.5 -26.5t16.5 -26.5h-2q8 -12 18 -37l17 -33q6 -9 18 -24l12 -29q7 -16 7 -39q-6 -42 -56 -45l-18 2q-19 10 -35 41l-4 10q-1 3 -8 20.5t-13.5 32.5t-11.5 23h2q-8 8 -14 20l-10 25q-4 13 -19 37q-2 3 -7.5 13.5 t-8.5 17.5l2 -2q-5 7 -9 14.5t-5 9.5v-2q-12 16 -19 35q-21 42 -24 47l-9 16l2 -2l-16 23l-8 16q-1 2 -3 7.5t-3 7.5t-2 5q-10 24 -11 23q-2 3 -6 13.5t-6 13.5v-2q-20 32 -33 57l-4 8q-11 23 -16 35q-5 15 -10 25t-7 10v-72q0 -6 -1 -17.5t-1 -16.5v-31q-2 -23 -2 -66 q0 -14 2 -24q0 -39 2 -78q1 -21 2 -52.5t2 -51t1 -23.5q0 -2 1 -7.5t1 -8.5v-17q0 -6 4 -22v-74q0 -43 -64 -43q-36 0 -41 49l1 13q1 14 1 30q0 23 -2 41q0 9 -4 41z" />
<glyph unicode="L" horiz-adv-x="360" d="M90 82v121q0 69 2 106v344q0 2 -1 7.5t-1 7.5v409v99v161q0 1 1 5t1 6l-2 20q-1 8 -1 15q0 26 17 40q5 7 22 9q7 1 12 0q9 0 16 -2l16 -9q7 -3 11.5 -16.5t2.5 -28.5v-55q0 -27 -2 -43v-158q2 -12 2 -41v-90l-1 -8q-1 -8 -1 -14v-15l2 -51v-55q2 -9 1.5 -33.5t-3.5 -42.5 q0 -1 1 -3.5t1 -4.5v-203q0 -71 2 -104q0 -6 1 -18t1 -17v-31q0 -6 -1 -17t-1 -16v-32q0 -63 -2 -88v-103q-4 -25 -2 -29h11q16 -2 34.5 -2t38.5 2h21q5 0 14 1t14 1h23q10 -1 14.5 -6.5t14.5 -23.5q1 -2 3 -5t3 -5v-5q0 -15 -5 -25q-6 -12 -11.5 -16.5t-18.5 -11.5 q-6 -3 -24 -6q-13 -2 -23 -2h-6h-123q-9 -1 -16 -1q-28 0 -42 15q-17 17 -17 53q0 7 1 15z" />
<glyph unicode="M" d="M92 649q0 55 6 101q0 47 -4 67q-2 21 -2 44.5t2 49.5v273q0 126 10 221q4 19 30 29q14 5 27 4q13 0 25 -4q30 -11 41 -45q14 -93 17 -119l4 -45q1 -11 5 -33.5t5 -34.5q0 -6 2 -10q8 -20 8 -49q12 -67 19 -154q0 -4 1 -12t1 -12q6 -57 18 -121q15 -76 17 -94 q3 -20 10.5 -58.5t9.5 -52.5q8 -24 16 -84q1 -6 2.5 -19t2.5 -20l14 -86l10 -53h-2q1 -2 2 -7.5t2 -7.5q2 -10 2 -34q1 7 3 26.5t3 24.5q9 70 9 72q3 40 8 59v-2q0 1 1 3t1 3l8 47q0 5 8 37q1 7 5 21.5t5 21.5q0 3 2.5 14t2.5 15l10 30l12 60q1 6 3 23t3 24q1 5 2 14.5 t2 14.5q5 44 8 55q6 30 15 57q2 6 5 20.5t5 20.5l6 25q0 2 12 61q2 8 6.5 24.5t6.5 24.5q5 37 16 72q4 24 17 59q5 20 8 29q8 23 12 72q1 6 2 19.5t2 19.5v18v10q0 36 25 49h-2q18 8 32 8q7 0 13 -2q18 -6 32 -22q17 -29 13 -59v-402q0 -153 -2 -231q0 -3 -1 -11.5t-1 -11.5 q-2 -32 -2 -57t2 -41v-10q0 -2 1 -7t1 -8l-2 -16v-145q0 -103 2 -156v-29q0 -2 -1 -6t-1 -6v-20q0 -1 1 -4.5t1 -4.5v-8q0 -43 2 -61q0 -4 1 -13t1 -14v-27q0 -15 -1 -23.5t-9 -20.5t-23 -19q-19 -5 -33 -5q-19 0 -28 9q-15 15 -15 43q-4 38 0 47v25q2 20 2 45v92q0 4 -1 13 t-1 14v34q0 6 1 19t1 20q0 4 1 15t1 16v31q0 6 -1 17t-1 16v28q-4 57 -4 185q0 123 4 178q0 3 1 11.5t1 10.5q2 6 2 23v28q3 5 -2 19q-2 0 -2 2q-2 -17 -6 -35q0 -16 -6 -39q-1 -7 -4 -18t-4 -15q-1 -8 -5 -26.5t-5 -26.5q-1 -9 -5.5 -29.5t-5.5 -29.5q-13 -64 -16 -103 q0 -12 -8 -32q-3 -7 -8 -35l-27 -129q-2 -8 -2 -23q-1 -5 -3 -16.5t-3 -16.5q-1 -6 -10 -43q-1 -3 -2.5 -8t-2.5 -10l-2 -10q-1 -4 -2.5 -20t-3.5 -29q-1 -3 -3 -17t-3 -20q-5 -35 -6 -41q0 -23 -4 -29v-51q0 -33 -17 -53l3 2q-13 -35 -42 -35q-17 0 -38 12q-2 2 -4 2 q-15 0 -23 27l2 -2q-10 13 -10 39q0 12 -2 18q-4 12 -4 25l-9 49q-2 27 -14 86q-2 9 -5 27.5t-5 27.5q-1 4 -3 11.5t-3 11.5l-10 92q-2 14 -8.5 41.5t-8.5 40.5q-4 21 -12 68t-12 69l-45 281q-3 3 -3 10v-16q0 -6 -1 -18t-1 -15v-58q-3 -24 2 -61v-152q0 -2 1.5 -8.5 t1.5 -9.5v-21q3 -62 3 -106q0 -27 -1 -47v-88q0 -9 1 -27.5t1 -27.5q2 -24 1.5 -48.5t-1.5 -48.5v-14q0 -8 2 -10q5 -12 5 -48v-20q-2 -53 -14 -74q-9 -15 -25 -18q-6 -1 -12 -1q-9 0 -17 3q-14 5 -25 14q-13 11 -13 74v33q0 3 1 8t1 8v17q0 3 -1 9t-1 9v158q0 57 2 86v20 q0 4 -1 12t-1 9v41q0 29 -2 43t-2 41v32q0 6 -1 17.5t-1 17.5z" />
<glyph unicode="N" horiz-adv-x="710" d="M96 1376l2 23q0 23 19 33q16 6 29 6q30 0 42 -35q1 -3 15 -31q13 -27 22 -61q1 -2 8.5 -25.5t12.5 -32.5q1 -3 6.5 -14t7.5 -18l12 -32t13 -34q17 -59 49 -141q42 -114 80 -232q5 -11 8 -24q4 -18 6 -21q0 -1 1 -3.5t1 -4.5q1 -2 2 -8t4 -16.5t6 -22.5l15 -51l14 -64 q2 -7 6 -23.5t6 -23.5l6 -24l15 -50l6 -32v143q0 7 -1 21t-1 20v203q0 38 -2 63q-1 15 -1 34q0 38 3 89q3 63 3 104q0 21 -1 37q-4 74 -4 121q0 31 4 117v20q-4 28 16 48q10 3 21 3q19 0 41 -10q21 -26 21 -58q0 -5 -1 -11q0 -8 -1 -18.5t-1 -12.5v-10q-2 -34 -2 -60.5 t2 -44.5v-100q2 -24 2 -48t-2 -50q-2 -33 -2 -57.5t2 -41.5v-213q2 -28 2 -54t-2 -50v-27q0 -5 -1 -15.5t-1 -14.5v-82q0 -3 -1 -9.5t-1 -9.5v-94v-119q0 -35 -2 -45v2q-2 -20 -2 -37.5t2 -31.5l2 -43q3 -29 -10.5 -52t-38.5 -26q-31 4 -41.5 12.5t-13.5 26.5q0 2 -4 10 q-9 22 -9 35v10q0 2 -1 4.5t-1 3.5q-1 5 -4 15.5t-4 15.5q-1 2 -6 43q0 1 -1 3t-1 3l-4 21l-14 61q-7 34 -21 90q-1 3 -12 47q-7 40 -21 78l-41 168q-6 17 -14.5 47.5t-9.5 34.5q-3 10 -10.5 33.5t-10.5 36.5l-10 32q-1 3 -4 11t-5.5 14t-4.5 10l-13 43q-1 4 -4 13.5 t-4 13.5q-3 12 -11 34t-11 33q-4 8 -9 23q-13 39 -16 45l-16 49v-27l2 -155q0 -74 2 -105q3 -61 3 -101q0 -20 -1 -34q4 -14 0 -47v-70q0 -3 1 -10.5t1 -11.5v-109q0 -77 2 -114v-176q0 -40 2 -60q0 -1 1 -4t1 -4v-8q5 -39 -2 -62q-12 -26 -41 -26q-15 0 -35 8 q-23 15 -23 48q0 5 1 11v103q0 131 -9 473v39q-2 80 -2 282q0 295 -8 422z" />
<glyph unicode="O" horiz-adv-x="655" d="M68 760q0 63 4 149q0 2 1 7.5t1 7.5v14q0 27 2 37q0 25 4 49q0 3 1 12.5t1 12.5q4 29 8 79q9 108 51 197q7 17 19 29q23 34 49 57q13 9 41.5 21.5t46.5 13.5q13 1 25 1q48 0 81 -13q26 -9 56 -35q16 -14 41 -51h-2q29 -42 45 -119q2 -9 6 -29t6 -29q9 -67 12 -153v-78 q0 -6 1 -18.5t1 -18.5q0 -50 4 -104q3 -25 3 -43q0 -9 -1 -15q0 -5 -1 -14.5t-1 -13.5v-23q-2 -14 -2 -51v-180q3 -13 3 -33q0 -26 -5 -64q0 -2 -1 -5t-1 -5l-10 -116q-2 -10 -2 -19q0 -32 -20 -82l-9 -18q-22 -49 -37 -68q-25 -32 -49 -43l-14 -8l-10 -4q-8 -4 -35 -4 q-23 -3 -44 -3q-31 0 -56 7q-32 7 -54 22q-4 2 -9.5 7.5t-9.5 10.5l-3 5q-3 4 -16.5 18.5t-14.5 16.5h2l-16 16q-17 20 -25 35q-46 94 -57 291q0 14 -2 20q0 3 -1 11.5t-1 11.5v14q-4 98 -4 176v53q0 9 -1 28.5t-1 29.5zM166 692q-1 -14 -1 -32q0 -36 3 -89q2 -20 2 -69 q0 -46 2 -64q4 -24 4 -43q4 -52 8 -82q0 -1 1 -4t1 -4q11 -64 15 -76q0 -1 1 -4.5t1 -5.5l8 -24q9 -22 12 -25q10 -10 13 -16l-3 2q1 -2 5 -7l6 -10q14 -19 49 -45q26 -22 63 -22q22 6 31 10q47 25 53 68l11 24q0 3 2 11.5t2 11.5q8 39 8 73q0 3 1 9.5t1 9.5q0 16 1 31t1 18 v14q8 63 8 197q0 76 2 115v188q0 7 -1 21.5t-1 21.5v35q0 15 -4 43q0 8 -1 15.5t-1 10.5q-3 17 -3 43q0 13 1 27q0 31 -2 45l-6 72q-5 38 -8 53t-11 36t-22 38q-4 4 -10.5 9.5t-8.5 8.5l-14 15q-7 7 -27 10q-14 2 -27 2q-34 0 -61 -17q-6 -4 -16 -14l-12 -12q-7 -7 -11 -15 q-11 -14 -16 -38q-4 -8 -20 -60q-7 -19 -11 -78q0 -29 -2 -37q0 -23 -4 -43q0 -2 -1 -9t-1 -9t-1 -7t-1 -9v-11q-4 -50 -4 -71q-2 -6 -2 -17v-104l-2 -72v-43z" />
<glyph unicode="P" d="M92 59v76q0 52 2 72v461l-2 82l4 -5v70l2 23q0 12 -2 18t-2 21v266q-2 20 -2 40t2 40v100v94q13 11 24 15.5t15.5 5t16.5 0.5h18q8 0 47 -11l14 -6l-2 2q55 -18 92 -55q71 -71 93 -121q37 -82 37 -182q0 -33 -9 -78q-1 -7 -3 -20.5t-3 -20.5q-4 -30 -41 -86 q-3 -6 -16 -16q-4 -2 -10 -8q-4 -3 -12.5 -9.5t-12.5 -9.5q-1 -1 -11 -8t-16 -12q-26 -23 -67 -35q-2 -1 -17 -6q-2 0 -18 -8q-9 -3 -18 -3q-3 0 -9 -2q0 -168 -2 -256v-34q3 -18 -2 -54v-61q0 -7 1 -20t1 -19q0 -72 2 -109v-63q0 -9 -2 -32t-2 -36q0 -2 -1 -11q0 -27 3 -28 l-2 -6q-6 -12 -30 -15q-8 -1 -15 -1q-14 0 -22 4q-11 7 -17 24.5t-6 32.5zM182 940q0 -5 1 -15.5t1 -15.5q0 -35 2 -53v-20h2q3 0 15 4q8 0 28 10l-2 -2q12 6 27 16q39 20 63 51q15 19 21 37q12 42 12 97q0 22 -2 47v14q-4 55 -14 78l-10 18q-2 5 -6.5 17.5t-6.5 17.5 l-10 19l2 -3q-2 3 -7 8.5t-7 8.5q-7 11 -15 16q-13 19 -69 41q-18 11 -25 12v-223q0 -12 0.5 -32.5t0.5 -36.5t-1 -31v-80zM184 20q0 3 2 5z" />
<glyph unicode="Q" horiz-adv-x="567" d="M68 315q0 4 1 13t1 14q3 26 0 51v99q0 94 2 135q0 22 2 30q4 28 4 43v21v37q2 20 2 69q0 54 -2 105q0 5 4 33q2 14 2 32v123q0 14 0.5 30t1 27t0.5 13v12q0 2 1 8t1 9q0 26 2 36q4 45 16 76q0 1 4.5 11t11 23t11.5 19q25 32 68 46q14 5 41 8q8 2 28 6h47q38 0 103 -62 q30 -45 41 -82q1 -2 3 -8.5t3 -7.5q4 -10 10 -37q3 -12 19 -65q4 -18 8 -82v-123q0 -8 -1 -23t-1 -22v-43q0 -88 -2 -131q-4 -36 -4 -56q0 -4 -1 -13t-1 -13l-5 -78v-25q0 -2 1.5 -6t1.5 -6v-117q0 -20 -5 -55q-2 -16 -2 -51q0 -41 -2 -57q0 -3 -1 -17t-1 -20v-33 q-2 -12 -2 -64q2 -2 6.5 -5t6.5 -5q16 -16 28 -22v2q11 -9 17 -13q12 -10 28 -30q6 -12 6 -24q0 -11 -5 -22q-9 -25 -25 -28h-2h-3q-34 0 -71 37l-6 6l-8 10q-23 -27 -35 -33l-23 -10q-2 0 -9.5 -3.5t-12.5 -4.5q-21 -6 -66 -6q-13 -2 -25 -2t-22 2q-2 0 -6 1t-6 1h-8 q-56 0 -103 59q-13 16 -31 47l-20 72q-12 50 -12 90v10q0 1 -1 3t-1 4q-2 8 -2 32zM164 334q0 -54 2 -66l8 -37q9 -48 21 -79q1 -5 5 -15t5 -14l6 -12q4 -6 17 -15t24 -10h8q15 -2 28 -2q30 0 54 8q6 2 14 6l-2 -2q4 4 11 4q1 1 5.5 5t8 7.5t4.5 6.5h-2q-6 4 -14 12 q-4 3 -13.5 11.5t-13.5 11.5q-7 5 -22.5 16t-22.5 16q-8 8 -14 17l-39 39q-20 17 -21 31q-1 8 2 18q11 18 37.5 25.5t36.5 -1.5q28 -32 45 -43l25 -20q3 -2 24 -23q0 15 -1 41t-1 41l6 97v159q0 44 2 60q11 128 11 221q2 39 2 115v84q0 53 -2 73q-11 102 -31 152v2 q-12 12 -15 29q-5 13 -18.5 29.5t-26.5 23.5q-12 4 -22 4q-69 -4 -86 -21q-2 -3 -6 -11t-6 -11q-9 -12 -13 -57q0 -3 -1 -9t-1 -8v-12q-4 -36 -4 -57q-4 -82 -4 -123q0 -7 1 -21.5t1 -21.5v-45q0 -9 1 -28t1 -28v-55q0 -39 -2 -59q-4 -40 -4 -62l-2 -162q-2 -23 -2 -88 q-2 -12 -2 -53q5 -24 2 -39q0 -23 -4 -31v-24z" />
<glyph unicode="R" horiz-adv-x="538" d="M90 1071q0 5 1 16.5t1 16.5v29q2 35 2 102q0 57 -2 84v51q0 32 19 51q7 7 25 10q10 2 19 2q5 0 9 -1q50 -13 61 -19q2 -1 5.5 -2t5.5 -2l30 -12q38 -21 49 -31q5 -5 11 -8l43 -43q1 -2 8 -11.5t8 -11.5v2q2 -3 21 -32l10 -25q0 -2 4 -10q13 -38 18 -88l2 -31q1 -7 1 -17 q0 -20 -3 -49q0 -2 -1 -13t-1 -17q0 -1 -1 -4t-1 -4q-4 -28 -16 -58q-19 -53 -70 -98l-31 -25q5 -15 14.5 -48.5t14.5 -49.5q11 -37 29 -82l33 -96q13 -47 32 -98l27 -91q4 -12 15.5 -46t17.5 -52q0 -4 18 -53q3 -8 8 -27q1 -4 6.5 -15t6.5 -15q5 -10 12 -31l4 -15v2 q3 -8 10 -26.5t10 -26.5q1 -6 1 -11q0 -26 -25 -38q-19 -7 -29 -4q-2 0 -6.5 1t-5.5 1q-26 24 -41 64q-1 2 -2 6t-2 6l-12 41l-17 43q-4 16 -6 22q-6 26 -20 58l-21 61q0 4 -2 6q-4 7 -10 29l-12 35q-2 20 -23 67q-17 48 -51 172q-13 17 -29 76l-4 19q-1 6 -5 17t-5 17 q-3 8 -17 50q-37 -15 -38 -15q-1 -1 -0.5 -41.5t0.5 -42.5v-456q-3 -15 -3 -29v-8q5 -15 5 -31q-2 -23 -2 -66v-79q-23 -23 -56 -25q-5 -1 -9 -1q-19 0 -26 19q-9 25 -9 59q0 9 1 19q2 10 2 21v225q0 6 1 17.5t1 17.5q-2 59 -2 209q0 152 -4 256v18v76q5 28 2 45 q-4 62 -4 92zM186 1323q2 -16 2 -61v-62q0 -18 5 -125q0 -26 -3 -53q-2 -16 -2 -32t2 -32v-77q0 -2 1.5 -4t1.5 -5q1 0 3 1t3 1q22 3 43 15l-2 -2q2 0 18 8l14 8q7 4 11 6q5 2 11 7t7 6q5 7 15.5 20.5t15.5 20.5q21 32 21 80q0 8 -1 16q2 14 2 18v53q-2 6 -2 25 q-2 18 -12 41q-6 20 -8 21q-17 42 -64 86v-3q-2 1 -13 9t-13 10q-20 12 -45 12h-11v-8z" />
<glyph unicode="S" horiz-adv-x="440" d="M2 1196v12q0 37 8 64q1 4 3 14t3 14q10 23 19 39l14 29q17 28 62 55l24 13q23 12 56 12q18 0 40 -4q9 0 27 -6t33 -21l8 -6q26 -16 53 -78q20 -42 23 -98q1 -9 1 -22q0 -21 -3 -50q0 -29 -6 -41q-13 -29 -39 -35q-14 -3 -37 7q-17 19 -17 34l2 41q0 15 3 27q2 8 2 37 q-1 4 -3.5 16.5t-3.5 16.5q-15 71 -51 86q-24 10 -49 0q-22 -8 -33 -23l-12 -14q-7 -7 -14 -25q-9 -24 -9 -53q0 -51 5 -90l4 -12q2 -2 2 -13q5 -14 17.5 -46.5t17.5 -47.5q2 -5 9 -20.5t9 -20.5q3 -6 11.5 -18.5t11.5 -18.5q2 -2 8 -14q3 -4 10 -18q0 -1 2 -4.5t2 -4.5h-2 l16 -24l7 -13l-3 2q36 -52 64 -120q15 -38 37 -80q12 -29 14 -33q7 -12 17 -35q26 -74 43 -133l8 -31l6 -32l4 -25q8 -39 8 -106q0 -40 -2 -56q0 -6 -1 -24t-1 -23q0 -9 -10 -49q-1 -4 -3 -10.5t-3 -10.5q-2 -12 -13 -30v2q-1 -2 -4 -6t-4 -6q-9 -18 -18 -27l-17 -16 q-20 -20 -34 -27q-38 -11 -75 -11q-12 0 -24 1q-62 9 -84 34q-49 55 -49 121q0 11 -4 27t-4 65q0 2 1 6.5t1 6.5v24q0 38 18 56q11 8 27 8q4 0 8 2q12 2 27 -6t18 -29q3 -16 -2 -57q-4 -40 2 -60v-12q0 -2 1 -7t1 -7q0 -11 4 -23q3 -26 25 -51q16 -13 53 -8q20 3 27 10 q10 6 16 16l4 4q2 4 6.5 14.5t6.5 14.5q2 7 6 41q0 2 1 6t1 6v25l2 53v25q0 70 -14 131q-22 106 -84 231l-13 25q0 1 -1 3t-1 3q-10 31 -30 64l-11 22q-11 26 -20 39q-14 18 -19 29l-4 8q-4 15 -12 26l-12 23q-7 7 -19 31l2 -2l-10 18q-10 16 -35 64q-4 10 -16 34 q-27 52 -35 111q-2 8 -2 45z" />
<glyph unicode="T" horiz-adv-x="438" d="M-18 1395q0 14 3.5 22t13 11t15 3.5t21.5 0.5h53q2 0 6 1t6 1h93h135q2 0 6.5 -1t7.5 -1h31q15 2 51 -2q14 0 25 -21v-25q0 -34 -23 -38q-34 -7 -115 -7h-20q-2 0 -8 1t-15 1v-24q0 -3 -1 -14t-1 -17v-82q0 -32 4 -82v-80q6 -108 6 -239q0 -142 -6 -271v-45q0 -3 1 -10 t1 -10v-141q0 -12 -1 -34t-1 -34v-164q0 -51 -4 -71q-3 -17 -29 -23q-9 -2 -18 -2q-16 0 -31 6q-16 14 -20 72q-2 29 -2 48t2 28v8q5 71 8 196q0 5 -1 17t-1 18v68v71q4 68 4 226q0 10 1 29.5t1 29.5v72q0 3 -1 24t-1 43v19q0 3 -1 9t-1 9q-2 10 -2 43q-2 25 -2 86 q0 53 -2 80v105v38h-133q-20 2 -30 5.5t-17.5 15t-7.5 31.5z" />
<glyph unicode="U" d="M70 565v211q0 12 1 35t1 35v217q-1 16 -1 38q0 36 3 85v196q0 17 1 26t9.5 19.5t24.5 12.5q3 -2 15 0h3q11 0 24 -10q15 -12 15 -35v-88q0 -40 -2 -52q0 -135 2 -153q0 -8 1 -22.5t1 -22.5v-96q0 -9 -1 -28t-1 -28v-123q0 -3 -1 -10t-1 -10v-232q0 -29 2 -43v-16 q0 -3 1 -26t1 -46q0 -29 2 -41q6 -49 14 -96v-2q4 -16 19 -72l8 -28q19 -44 43 -64q13 -12 40 -17.5t48 -0.5q26 9 37 18q1 2 7 9.5t14.5 18t11.5 13.5q20 27 20 39q4 21 8 27q1 7 4.5 19t4.5 16q0 6 6 36q4 20 4 27q4 24 4 33q0 27 2 37v-2q6 72 10 198v211q-3 37 -3 60 q0 12 1 20q0 30 4 70v10q4 46 4 63v39v27q-3 28 -3 49q0 13 1 23q0 42 -2 65q0 6 -1 18.5t-1 18.5v143q0 29 17 48q11 6 24 6q19 0 41 -13h-2q17 -8 17 -42q0 -8 -1 -17v-338v-108q0 -4 -1 -12.5t-1 -12.5q-2 -8 -2 -25v-18q0 -3 1 -10.5t1 -10.5v-75v-80v-80q0 -7 -1 -21.5 t-1 -21.5q0 -138 -8 -211q-2 -8 -2 -12l-6 -51q0 -2 -1 -6.5t-1 -6.5v-8l-14 -53q0 -3 -5 -8q-1 -1 -1.5 -3.5t-1 -6.5t-1.5 -7q0 -13 -6 -22q-3 -6 -6 -15q0 -7 -10 -22q-9 -9 -12 -21q-5 -10 -11 -18l2 2q-1 -2 -3.5 -5t-4.5 -7q-11 -18 -20 -25q-23 -23 -58 -45 q-31 -14 -72 -14q-27 0 -57 6q-20 2 -51 20q-39 23 -55 41l-12 23q0 8 -5 8q-12 16 -12 20q-7 14 -10 23q0 1 -10 31q-17 68 -31 143q-12 94 -12 262z" />
<glyph unicode="V" horiz-adv-x="503" d="M6 1362v6q-2 10 -2 19q0 12 4 22q8 8 25 12t28 2q16 -1 23.5 -6.5t8.5 -10.5t1 -17q0 -2 1 -6.5t1 -6.5q0 -3 1 -8t1 -8q2 -8 2 -31q6 -59 15 -123q6 -43 14 -125q1 -7 2 -25.5t2 -25.5q1 -6 2 -17.5t2 -17.5q4 -46 8 -73l13 -86q1 -8 12 -93.5t18 -130.5l9 -45 q1 -7 4 -21.5t4 -21.5q3 -14 8 -46.5t8 -47.5q0 -9 4 -29q4 -24 4 -39q5 -57 13 -104q0 4 1 8.5t1 7.5q1 4 2 13t2 14q7 50 14 82q4 18 8 59q1 5 2 14.5t2 14.5q1 8 4.5 28t4.5 31q3 16 8 64q1 2 3 18t4.5 38t4.5 32q0 2 1 7.5t1 8.5q7 70 14 119q0 12 5 27q4 16 4 28 q9 105 34 283q9 85 15 115q0 31 8 55q0 1 1 3t1 3q8 36 8 55q0 8 6.5 23t14.5 23q5 3 16 3t19 -1l8 -2q13 0 26 -13q12 -12 12 -31q0 -6 -1 -12l-11 -57q-14 -71 -28 -178q0 -15 -4 -43q-4 -20 -4 -29l-7 -37q-1 -9 -4 -27.5t-4 -27.5q0 -13 -2 -19t-2 -16l-10 -94 q-1 -13 -17 -131q-5 -23 -8 -76q-10 -54 -12 -86q-23 -152 -33 -199q-1 -9 -4 -30.5t-4 -30.5q-2 -2 -2 -4v-2q0 -2 -1.5 -9.5l-4 -20t-4.5 -23.5q0 -4 -2 -13.5t-2 -13.5q-3 -3 -7 -37q-1 -3 -2 -12l-2 -21q0 -6 -4 -26q-1 0 -2 -6.5t-2 -16.5t-2 -14q0 -13 -2 -15 q-2 -4 -2 -14q-5 -32 -14 -41q-16 -16 -41 -16q-15 0 -33 6q-25 25 -25 59q-4 31 -8 54q-13 28 -18 106q-4 15 -8 68v10q0 1 -1 3t-1 3q-13 41 -19 80q-4 45 -20 125q-27 151 -33 205q-1 8 -4 25.5t-4 25.5q-12 69 -17 117q-7 46 -10 86q0 13 -4 41q-1 7 -3 22.5t-3 22.5 q-4 32 -4 59v14q0 2 -1 7t-1 10q-2 6 -11 80q-5 26 -10 108v19q0 4 -1 9t-1 7z" />
<glyph unicode="W" horiz-adv-x="802" d="M4 1376q-2 9 -2 17q0 9 3 17q5 14 26 24q20 7 35 7q28 0 36 -26q11 -48 15 -147q1 -6 2 -23t2.5 -32t3.5 -25q4 -28 8 -80q2 -16 7 -49t7 -49q14 -110 27 -187l6 -35q4 -32 8 -63l5 -45q2 -10 6 -35t6 -35q31 -210 35 -286q7 61 8 63v-2q6 61 8 72q0 1 1 5t1 5v22 q0 5 1 14t1 13q1 10 2 41t2 45q9 169 15 199v-2q0 23 4 69q3 9 8 64q0 4 2 27t4 36q6 30 6 66q0 9 4 29q1 5 2 17.5t2.5 24.5t3.5 23q1 9 4.5 27.5t4.5 27.5l6 54q0 3 1 9.5t1 10.5q0 35 4 53v33l4 29q0 18 33 33q10 3 21 3q20 0 40 -12q13 -11 17 -49q0 -3 1 -8t1 -8 q3 -18 8 -74q1 -5 2 -18.5t2 -18.5l8 -63q0 -2 1 -5t1 -5q2 -6 2 -23q0 -16 10 -74l7 -37q7 -50 14 -82q4 -23 20.5 -124t22.5 -154q28 -132 37 -242q3 -25 8 -52t8 -50q2 20 2 45q0 43 2 63q0 8 1 30.5t1 29.5q2 16 2 43q0 52 6 88q0 2 1.5 6t1.5 6q0 25 2 37q0 6 1 19 t1 14q0 48 6 78q0 12 2 16q2 6 2 12q6 37 6 74q0 3 1 10.5t1 10.5v16l8 63q0 3 1 8.5t1 8.5q4 24 4 35q0 43 2 59q13 84 13 152q-1 9 -1 20q-1 29 5 74q8 63 26 73v-2q16 13 36 13q14 0 30 -6q23 -12 23 -41v-7l-15 -172q-2 -18 -5 -54t-5 -54q-3 -28 -8 -83t-8 -81 q-9 -56 -9 -80q-2 -12 -2 -29q0 -51 -4 -71q0 -1 -1 -4t-1 -4q-4 -18 -4 -58q0 -20 -2 -30t-2 -29l-6 -72q-5 -63 -6 -76q-6 -87 -37 -337q-1 -6 -2 -18.5t-2 -16.5q0 -3 -1 -9t-1 -10q-4 -54 -25 -84l-16 -12q-11 -8 -21 -8t-33 8q-30 19 -30 49q0 11 -4 35q0 3 -1 8.5 t-1 7.5q0 13 -4 25q-5 30 -5 41q-14 54 -14 100l-4 13q-4 12 -4 14q-12 78 -34.5 235t-33.5 226q-1 6 -4 18.5t-4 18.5l-10 59q0 1 -1 3t-1 3q-6 27 -6 70q-6 36 -6 53q0 9 -2 17.5t-5 19.5t-4 18v-6l-2 -55v-15q0 -3 -1 -7.5t-1 -6.5q-4 -28 -4 -43l-8 -65q0 -12 -4 -48 q-2 -16 -2 -40q0 -84 -10 -199q-1 -5 -3 -14.5t-2 -14.5v2q-4 -28 -8 -88q-1 -7 -2 -20.5t-2 -20.5q-8 -81 -10 -88q0 -3 -1 -8.5t-1 -9.5q-2 -10 -2 -31l-2 -39q0 -39 -4 -53l-9 -68q0 -31 -4 -47q-5 -37 -29 -47q-15 -6 -39 -6q-12 0 -26 2q-14 3 -24.5 21t-10.5 38 q-1 7 -4 20.5t-4 20.5q-8 16 -8 33q-10 52 -14 78q-4 24 -15 88t-16 94q-12 126 -39 299q-2 12 -6 38t-6 38v-2q-8 23 -11 61q0 5 -4 21l-10 86l-6 82v16q0 3 -1 7t-1 7q-3 24 -8 79.5t-8 78.5q-1 13 -4.5 37t-4.5 35q0 23 -6 41q0 1 -1 5t-1 5q0 4 -1 11.5t-1 11.5 q-2 8 -2 28z" />
<glyph unicode="X" horiz-adv-x="407" d="M-2 1368q-3 13 -3 23q0 24 15 34q19 9 33.5 9t22.5 -4.5t14 -17.5t8.5 -20.5t5.5 -23.5q1 -5 3 -21.5t3 -23.5v2q1 -5 3 -16.5t3 -16.5q5 -15 5 -20q6 -28 18 -87t18 -87q2 -15 8.5 -41t8.5 -33q28 -141 31 -166q3 14 10 41.5t10 42.5q11 33 27 117l6 24q1 8 5 25t5 25 q0 1 1 4t1 4q11 70 12 73q1 7 4.5 23t4.5 23l6 32l26 107l11 28q16 8 34 5q20 -2 34 -12q12 -9 12 -18q0 -2 -1 -3q0 -33 -18 -94l-6 -25q-4 -12 -4 -23l-13 -59q-2 -14 -7 -42t-7 -42q-7 -46 -22 -100q-1 -8 -4.5 -23.5t-4.5 -23.5q-1 -4 -6 -29q0 -3 -2 -8t-2 -8 q-1 -13 -10 -48q-1 -6 -4.5 -21t-5.5 -22q-2 -8 -7.5 -27.5t-7.5 -27.5q-4 -18 -15.5 -59t-16.5 -64q13 -59 34 -143l13 -49l24 -111q8 -37 37 -151q1 -6 4 -15l4 -12q8 -25 13 -57q3 -31 10 -43q0 -1 1 -4t1 -5q2 -4 2 -18q0 -2 1 -6.5t1 -7.5q0 -9 -9 -16.5t-18 -10.5 t-10 -2l8 -2q-10 -4 -14 -4h-1q-4 0 -24 6q0 2 -2 2l-4 2q-19 16 -24 41q-1 7 -3 17t-3 12q-1 5 -4.5 15t-4.5 15l-10 37l-10 41q-10 26 -16 72q-11 26 -17 63q-3 19 -7.5 48.5t-6.5 38.5q-6 37 -8 47q-2 -8 -2 -21q-8 -68 -15 -94q-1 -4 -3 -16.5t-3 -16.5t-3 -13t-3 -13 q-4 -16 -4 -23q-9 -39 -10 -47q-2 -13 -7.5 -37.5t-7.5 -34.5q-1 -8 -8 -49.5t-12 -64.5q-8 -13 -25 -23q-17 -8 -31 -8q-12 0 -20 6q-22 8 -23 26.5t7 32.5q0 1 1 4.5t1 4.5l10 45q7 28 12 67q1 6 4 19.5t4 19.5q2 11 17 80q5 35 6 41q3 9 8 37l8 41q4 18 6 28q7 21 7 33 q12 79 30 182q-5 16 -10 58q-1 5 -3 17.5t-3 17.5v-2l-25 114q-2 10 -7 32t-7 32q-2 7 -5 22.5t-5 22.5l-17 96q-3 15 -9 48t-9 46q-11 44 -21 97q-1 4 -3 17t-3 17z" />
<glyph unicode="Y" d="M-10 1415q8 18 36 18q2 0 4 -1q32 -1 42 -21q13 -26 28 -78q6 -18 6 -24l15 -45l14 -54q1 -4 4 -13t4 -13q1 -3 4.5 -11.5t4.5 -11.5q9 -20 16 -53q1 -2 6.5 -19.5t7.5 -23.5q7 -19 21.5 -59t21.5 -58l8 -20q3 6 3 12l22 72q8 38 14 49q7 18 9 31q3 6 6 18q4 16 4 18 q8 36 12 52q1 3 4 11.5t4 14.5l15 45v-2q0 1 1 4t1 4q10 42 12 46l6 30l12 31q0 1 1.5 4.5t3 9t2.5 8.5q2 4 2 11q8 27 26 35q10 5 20 5q12 0 25 -8q23 -14 27 -30v-2v-5q0 -15 -10 -36q-2 -4 -2 -8q-1 -3 -3.5 -7.5t-3.5 -7.5q-6 -12 -6 -18q-1 -4 -3 -12.5t-3 -12.5 q-7 -41 -14 -55q-2 -7 -5.5 -19t-4.5 -14q-4 -8 -4 -10q0 -1 -1.5 -4t-1.5 -4q-4 -15 -10 -35q-4 -4 -4 -10q-8 -33 -10 -43q-2 -7 -8 -21.5t-9 -25.5q-4 -8 -4 -17q-2 -5 -7 -18.5t-7 -18.5q0 -8 -2 -12q0 -2 -2.5 -12t-3.5 -13q-18 -47 -21 -53l-6 -18q-2 -5 -8.5 -22 t-7.5 -21l-4 -8l-8 -21q0 -92 4 -190q4 -122 4 -187v-53q0 -9 -1 -27.5t-1 -27.5q-2 -39 -2 -109v-186q-1 -21 -17 -31q-14 -7 -29 -7h-6q-18 2 -28 11q-12 10 -12 41v342q0 99 2 148v12q0 3 -1 9t-1 9v33q0 32 -3 66v133q-7 26 -14 39q-1 2 -2 5t-2 5l-8 20v-2q-1 2 -2 6 t-2 5q-7 11 -15 36q-1 3 -5 13.5t-5 13.5q-2 4 -6 16.5t-6 16.5q-18 44 -19 55q-4 6 -18 49l-6 19q0 1 -10 26l-19 64l-12 37q-14 52 -35 106q-6 15 -8 23q-9 29 -9 46q0 9 3 15z" />
<glyph unicode="Z" horiz-adv-x="387" d="M0 49q0 27 6 43q4 10 12 41q5 15 7 27q2 14 24 139q2 13 7.5 36t6.5 30q1 4 3.5 13t3.5 13q4 16 4 23l28 121q1 7 4.5 20t4.5 20q5 29 16 80q0 2 1 7t1 8q3 36 14 73q5 22 11 33q1 7 5 23.5t5 23.5q2 10 6 17q4 12 4 18l23 92l6 39l22 80l4 16t4 19q3 24 9 41q6 29 14 80 l4 18q11 46 12 47q1 3 3.5 12.5t3.5 12.5q10 30 10 37q-3 1 -12 1q-18 0 -60 -3h-117q-28 0 -28 49q1 24 11.5 29.5t35.5 5.5h22q6 0 13 -1l8 -1h53q4 0 16.5 1t20.5 1h70q20 0 32 -4t23 -24q9 -15 9 -38q0 -6 -1 -14q-2 -13 -7 -32.5t-7 -27.5l-13 -61q-1 -8 -4 -23.5 t-4 -19.5q-2 -8 -5 -22.5t-5 -22.5q-8 -42 -21 -92q0 -13 -4 -25q0 -1 -1 -3t-1 -3q-2 -4 -2 -14q0 -8 -16 -62q0 -2 -1 -8t-1 -8l-10 -43q-11 -42 -21 -86l-14 -56l-17 -57q0 -8 -2 -10q0 -1 -1 -3.5t-1 -4.5q-4 -36 -12 -60q-5 -33 -12 -49q-10 -20 -15 -57q0 -5 -6 -33 t-10 -39q0 -4 -2 -12t-2 -12l-23 -89q-4 -4 -5 -11.5t-1.5 -18.5t-1.5 -15q0 -16 -4 -28q0 -15 -6 -39l-18 -90q0 -10 -5 -25v-2q40 0 60 2h10q7 0 21 1t20 1h37q40 0 72 -4q13 -3 22 -20.5t6 -36.5q-1 -13 -5.5 -19t-8 -7.5t-14.5 -2.5q-1 0 -4 -1t-5 -1h-69q-3 0 -9.5 -1 t-9.5 -1h-65q-5 0 -16 -1t-17 -1q-16 -1 -30 -1q-36 0 -62 7q-37 16 -37 45z" />
<glyph unicode="[" horiz-adv-x="440" d="M117 -109q0 1 1 12t1 19q5 101 2 107v98q0 82 2 129v23q6 153 6 280v156q-2 39 -2 129q0 91 4 205v30q0 6 1 17.5t1 17.5v248q3 6 0 12q-2 6 -2 21q5 26 23.5 33.5t48.5 5.5h37q48 0 72 -0.5t42.5 -4t24 -9.5t4.5 -17v-19q4 -25 -6 -38q-11 -13 -64 -13h-88q0 -49 2 -61 q2 -16 2 -55q0 -89 -2 -142q-3 -80 -6 -282q0 -55 2 -84v-58v-94v-199q0 -32 -4 -106q-4 -88 -2 -133v-105q0 -5 1 -14t1 -14v-101l-2 -2l2 -2h25h55l70 2q31 0 41 -35q3 -21 -7.5 -39t-23.5 -18h-27l-34 1q-35 0 -35 -1q-28 -4 -54 -4q-5 0 -13.5 -1t-12.5 -1h-8 q-35 0 -39 2q-10 4 -20 14t-13 19q-6 18 -6 71z" />
<glyph unicode="\" horiz-adv-x="731" d="M50.5 1422q-2.5 18 6.5 38q12 17 44 15.5t40 -17.5q12 -28 15 -49q0 -10 2 -14q6 -18 6 -31q0 -1 1 -4t1 -4q20 -53 43 -144q4 -14 11 -41.5t11 -42.5q30 -89 39 -129q71 -270 158 -550q2 -5 5 -17t5 -16q4 -13 13.5 -42t16.5 -51t11 -42q1 -4 4 -13.5t4 -13.5 q0 -2 3 -11.5t4 -15.5q28 -100 49 -157q18 -49 65 -222l17 -59q24 -49 28 -84l4 -18q17 -39 11 -54q-16 -28 -56 -28q-7 0 -11.5 0.5t-8.5 3t-6.5 3.5t-5.5 6t-3.5 6.5t-3.5 8.5t-4 9q0 -3 -2 2q-1 2 -4 10l-4 12q-12 37 -14 55l-4 15q-2 10 -23 71q-1 1 -3 6.5t-3 6.5 q-12 33 -49 164l-33 129l-24 90q-29 79 -39 121l-29 110q0 4 -2 8q-2 7 -24.5 75.5t-26.5 84.5q-3 8 -10.5 28.5t-10.5 28.5q-27 91 -39 146q-3 9 -14 53l-23 86q-19 64 -20 66q-28 81 -33 108q-1 3 -10 33q-1 3 -2 9t-2 9l-19 68q-2 7 -12 47q-11 42 -20 68 q-17 52 -19.5 70z" />
<glyph unicode="]" horiz-adv-x="370" d="M23 1389v16q-1 20 8 25q13 6 106 6h37q66 4 78 -39v-21q-2 -4 -2 -16q2 -18 2 -96v-150q0 -6 1 -17.5t1 -17.5v-30q3 -59 -2 -177v-28q0 -88 -2 -129v-156q0 -250 2 -303q2 -41 2 -129v-98q-3 -9 2 -107q0 -8 1 -19t1 -12q0 -53 -6 -71q-3 -8 -14 -18.5t-21 -14.5 q-6 -2 -29 -2h-16q-20 -4 -37 -4q-21 0 -41 4q-8 2 -26 2q-15 0 -26 19t-7 42q10 35 43 35l32 -1q33 -1 44 -1v105q0 5 1 14t1 14v105q2 45 -2 133q-4 66 -4 106v199v94v58q2 18 2 84q-2 180 -2 424q0 7 1 24t1 27q4 58 0 71h-58q-50 0 -63 13q-13 16 -8 37z" />
<glyph unicode="^" horiz-adv-x="692" d="M83 925q-4 19 13 42l-2 -2q1 3 3 8t3 8q0 1 10 25.5t21 48.5l14 35l15 38l63 136l8 20q1 2 2.5 6t2.5 6q20 45 43 88q1 11 15 29t23 23q24 2 37.5 2.5t23 -9t13 -17.5t8.5 -23q1 -3 3.5 -8.5t3.5 -8.5q8 -25 22 -49l10 -20l41 -91q9 -18 21 -38q8 -17 15.5 -34.5 t8.5 -19.5q19 -38 23 -47q6 -15 14 -31l37 -102q11 -28 -20 -46t-56 -7q-9 4 -16 14t-10 17l-2 8l-54 143q-19 33 -34 72q-20 66 -56 139l-8 18q-2 -7 -7.5 -18t-6.5 -14q-10 -17 -21 -47q-1 -3 -8 -21t-12 -27q-4 -4 -4 -8l-21 -47q-4 -10 -14.5 -32.5t-14.5 -32.5 q-3 -9 -10 -28t-10 -28l-25 -67q-14 -63 -65 -41q-36 19 -40 38z" />
<glyph unicode="_" horiz-adv-x="1093" d="M15 -138.5q7 25.5 24 38.5q4 3 64.5 3.5t66.5 -1.5h-2q47 -4 74 -2h86q5 0 14 -1t14 -1h29q49 0 74 2q4 0 26 1t39 1q57 0 123 -4q4 0 14.5 -1t14.5 -1q36 -4 61 2q10 2 43 2h88q31 2 138 2q32 4 51 -13q12 -13 6 -39.5t-19 -39.5q-32 -17 -114 -9q-28 4 -60 4 q-154 -8 -202 -4q-41 2 -152 2h-137q-12 0 -38 -1t-42 -1h-84h-88h-49q-48 -5 -60 15h2q-12 20 -5 45.5z" />
<glyph unicode="`" horiz-adv-x="395" d="M78 1395q9 32 33 37q31 5 55 -23q4 -5 22 -29q3 -4 12 -14l9 -12q3 -4 10 -12.5t10 -12.5q32 -36 45 -55q3 -6 11 -14q10 -10 24 -35q7 -15 -4.5 -35t-28.5 -23q-19 -3 -28.5 3.5t-29.5 31.5q-5 5 -7 8q-6 6 -16 23q-2 2 -3.5 5.5t-3 5.5t-2.5 3q-8 8 -18 23 q-12 15 -27 30l-14 15l-37 47q-15 12 -12 33z" />
<glyph unicode="a" horiz-adv-x="563" d="M16 57l7 19q3 19 10 41q0 2 2 7.5t2 8.5q4 8 4 14l6 33q6 19 14 56q3 26 9 43q0 2 1 5t1 5q0 6 2 10t2 6l8 49q4 12 4 23q2 8 2 22q0 9 4 21q1 9 3 26.5t3 26.5q1 10 5.5 34t5.5 34l12 51q0 8 2 12q2 6 2 14l6 27q1 4 3 14.5t3 14.5q4 16 4 22q3 20 9.5 59t9.5 58v-2 q8 54 26.5 165t26.5 165l8 43l13 57q1 6 4 18.5t4 18.5q2 34 6 74v26q0 29 18 54q22 7 39 7q25 0 43 -14q12 -14 12 -43v-10q-2 -9 3 -41q0 -3 1 -8.5t1 -7.5t1 -6t1 -6v-11l6 -67q3 -19 10 -58t10 -59q1 -9 6 -45q3 -25 11 -55q4 -17 8 -52q1 -17 12 -110q0 -7 4 -15l4 -30 q5 -46 15 -101q5 -42 16 -102l10 -106q2 -16 7.5 -51t7.5 -52q11 -72 26 -196q6 -30 6 -41q6 -33 7 -39l4 -17q5 -25 5 -47q0 -9 -1 -18q0 -18 -7 -23.5t-22 -7.5q-1 0 -3 -1t-3 -1q-12 -2 -21.5 -2t-17.5 2q-11 4 -16 13.5t-6 18t-1 25.5q0 5 -4 21v10q0 1 -1 3t-1 3 q-6 37 -16 129q-1 10 -5 43.5t-7 54.5q-1 9 -5 33.5t-6 38.5q-2 17 -4.5 42.5t-3.5 29.5q-8 73 -14 108q0 3 -1 5.5t-1 5.5q-14 2 -39 2h-14q-50 0 -103 -6h-8q-2 -5 -8 -43q-4 -8 -4 -21l-6 -33q0 -8 -5 -18q0 -13 -2 -17q-2 -6 -2 -16q0 -21 -4 -41v-6l-4 -25l-4 -28 l-6 -39q0 -1 -1 -5t-1 -5q-8 -40 -8 -43q-2 -6 -2 -11q0 -12 -11 -45q-3 -13 -12 -35q-2 -4 -2 -12q0 -1 -1 -4t-1 -4q-2 -4 -2 -12q0 -1 -1 -5t-1 -6q-1 -4 -4 -15.5t-4 -18.5q-1 -3 -2 -9.5t-2 -9.5q-2 -2 -2 -10q-6 -28 -19 -37q-8 -5 -28.5 -5.5t-34.5 5.5 q-16 10 -16 31q0 10 3 22zM229 666q2 0 6.5 1t6.5 1q24 4 49 4h53h21q-2 12 -5.5 35t-5.5 34q-7 62 -28 191q-11 75 -15 119q0 3 -1 8t-1 8q-1 20 -0.5 31t0 22.5t-3.5 24.5q-1 -6 -2 -16.5t-2 -16.5q-1 -12 -4 -37t-4 -37q-12 -75 -17 -120l-8 -31q-6 -15 -6 -29 q-4 -41 -8 -61q-4 -12 -4 -17l-6 -37l-6 -34q0 -2 -1 -6.5t-1 -6.5v-8q0 -1 -1.5 -4t-1.5 -4q-4 -8 -4 -14z" />
<glyph unicode="b" horiz-adv-x="522" d="M90 166q0 31 4 67v191q4 46 4 63q0 7 -1 21t-1 20v76v82q2 57 2 201v37q0 1 -1 4.5t-1 5.5v33q0 1 1 5t1 9v14q0 3 -1 12t-1 13q-2 16 -2 55q0 6 -1 17t-1 16v262q0 29 8 60q4 4 4 6q8 12 25 12l37 -4q18 0 24 -2q2 0 5.5 -1t5.5 -1q14 0 18 -2q40 -7 105 -43 q6 -3 16 -13l25 -18l14 -14q36 -40 37 -37l16 -35l6 -12l21 -37l-2 2q12 -19 16 -57q2 -4 2 -11q0 -2 1 -5.5t1 -4.5v-16l4 -17q2 -10 4 -18q3 -19 3 -38q0 -33 -9 -65q0 -26 -10 -49l-6 -16l-10 -23q-4 -4 -4 -10q-3 -7 -17 -35v2l-6 -12l2 2q-1 -2 -2 -6t-2 -6l-10 -15 q-4 -6 -8 -18q-5 -5 -5 -8q-28 -35 -34 -41l-19 -19l-33 -26q-16 -16 -32 -19h2q1 0 4 -1t4 -1q6 -3 16.5 -8.5t14.5 -7.5q1 -1 5 -4t5 -4q24 -18 41 -35l6 -6l31 -35q8 -9 14 -20.5t8 -14.5h-2q2 -3 7 -12t7 -12l5 -11q7 -17 12 -36l4 -39q0 -11 2 -19q4 -20 4 -41 q3 -27 -4 -51v2l-6 -33q0 -27 -8 -51q0 -2 -1 -6t-1 -6l-9 -25l-8 -16l-8 -21q-4 -12 -8 -18q-4 -4 -6 -8q-8 -24 -15 -31q-4 -8 -14 -18l-33 -31l-18 -19q-4 -4 -19 -14l-16 -10q-22 -11 -37 -17q-10 0 -16 -6q-2 0 -6 -4l-43 -14q-20 -10 -45 -10q-26 0 -36.5 6t-19.5 26 q-8 16 -4 45q4 34 0 60v22q0 4 -1 11t-1 10zM178 270q0 -3 1 -9.5t1 -10.5v-115q0 -1 -1 -23t1 -28l4 2l-2 -2q4 4 17 8l39 17l14 8v-2q4 4 24 16l5 4q4 3 11.5 9l12.5 10t10 9t7 9l-3 -2q34 62 46 106q1 8 5 26t5 26q4 23 4 63v19q0 53 -12 94q-24 63 -80 100v-2 q-68 40 -103 49v-153q0 -2 -1 -8t-1 -9q-2 -4 -2 -22v-72q0 -1 -1 -6.5t-1 -11.5v-62q-2 -10 -2 -19t2 -18zM178 1206q0 -43 2 -61v-80q0 -2 1 -6.5t1 -7.5q2 -6 2 -21v-188v-80v-2q23 5 45 14t56 39q29 25 37 45l6 12q20 40 26 60l11 22q30 71 30 124v7q0 25 -6 52v10 q0 1 -1 3.5t-1 4.5q-5 20 -6 23q-4 12 -4 18l-2 8l-13 39l3 -2q-3 4 -10.5 14.5t-10.5 14.5q-1 1 -4 5t-4 5l2 -2q-16 21 -25 27l-26 20q0 1 -1 1q-3 0 -5 1q-4 4 -9 4h-2q-64 26 -92 31v-154zM416 1313v2v-2z" />
<glyph unicode="c" horiz-adv-x="595" d="M70 680v26q0 57 6 146l6 63q2 25 2 66q0 122 43 246q4 20 10 28v-2q1 3 5 9.5t5 9.5q18 40 23 45h-2q33 47 55 69q37 32 74 48q6 0 10 4q32 12 61 13q4 0 9 -1h14q26 0 82 -18l10 -5q10 -5 13 -8v2q10 -5 -6 6q3 -2 32 -24l15 -14q20 -20 32 -52q0 -1 1 -5t1 -5v2l7 -22 q0 -5 2 -9t2 -14q0 -27 -7 -39h-2q-19 -16 -51 -10q-28 8 -28 41l-1 3q-1 3 -1 7q-6 43 -11 43q-33 23 -49 29q-2 0 -7 2t-7 2q-14 3 -28 3q-22 0 -42 -7q-17 -4 -43 -23l-22 -14l2 2q-17 -11 -25 -27q-1 -2 -5 -7t-5 -7q-1 -3 -5 -9t-5 -9q-14 -21 -19 -43l-6 -19 q-2 -7 -8.5 -28.5t-10 -34.5t-7.5 -37.5t-5 -48.5l-6 -33v2q-2 -23 -2 -66l-8 -100v-8q0 -2 -1 -5.5t-1 -4.5q-2 -2 -2 -7q0 -2 -1 -6t-1 -6q0 -33 -4 -69v-45q0 -19 2 -29q0 -5 1 -15t1 -14v-102q0 -4 1 -11t1 -10q2 -6 2 -35q0 -3 0.5 -17.5t1.5 -51.5t2 -86v-86 q6 -47 16 -80q29 -49 62 -66q24 -15 71 -28q27 -6 48 -6q13 0 24 2q33 2 60 22q18 12 30 27l-2 -2l4 8q9 23 9 33q1 13 2.5 21t6 16.5t14 13.5t24.5 6q47 -6 47 -53q0 -11 -2 -23q-1 -5 -4.5 -15t-4.5 -15q0 -5 -4 -9q-2 -2 -2 -4l-8 -16q-1 -1 -4.5 -7.5t-6.5 -11t-7 -6.5 q-15 -10 -23 -18q-2 -2 -7 -6t-7 -6l-25 -17q-4 -2 -17.5 -7t-17.5 -7q-30 -12 -75 -12q-54 0 -101 14q-40 10 -55 18l-72 56q-15 15 -28 41v-2q-3 5 -7.5 12t-7.5 12q-28 59 -28 158q0 5 1 15.5t1 15.5v28q0 6 1 19.5t1 19.5v39q-2 20 -2 74v35q0 6 -1 17t-1 17 q-2 31 -2 109z" />
<glyph unicode="d" horiz-adv-x="651" d="M92 29v8q-1 10 -1 26q0 31 3 84q4 58 4 84v41q0 7 -1 21.5t-1 21.5v41v80q0 1 -1 10.5t-1 16.5q0 2 1 6t1 6v60q0 1 -1 4.5t-1 5.5v160q0 1 -0.5 5.5t-1 13t-0.5 19.5q0 1 1 4t1 5v14q0 3 -1 9t-1 9l2 99v22q3 82 3 134q0 26 -1 44v74q0 6 -1 17t-1 16v170q-3 40 10 53 q12 13 36 19q11 3 22 3q12 0 24 -3q6 -2 23 -2q21 0 39 -9q41 -16 94 -55v2q37 -23 61 -47l9 -6q10 -10 30 -35q16 -20 27 -31q4 -4 10 -16q4 -7 10 -12l11 -15l-2 2q27 -34 59 -92q5 -10 16 -43q2 -11 7.5 -30t7.5 -27q18 -70 22 -103q1 -3 3 -10t3 -10q9 -32 9 -55v-11 q0 -2 1 -6.5t1 -7.5v-27q0 -79 -19 -172q-13 -78 -39 -155q-22 -53 -49 -94l2 2q-1 -3 -5 -8.5t-5 -8.5q-4 -4 -6 -10l-10 -16l-37 -60l2 2q-5 -10 -17 -22q-1 -2 -5 -8.5t-5 -8.5q0 -1 -22 -28q-4 -6 -19 -21q-24 -28 -37 -41l-37 -33q-25 -29 -53 -47q-3 -2 -13 -10 t-13 -10l-21 -12q-20 -20 -45 -23q-4 0 -6 -2q-24 -8 -41 -8q-7 -1 -13 -1q-12 -1 -16 5q-6 8 -6 33zM186 129q0 -9 2 -12q3 2 4.5 1.5t-2.5 -3.5l5 2q2 0 4 2l12 6l2 2q4 2 14 12q1 2 5.5 6.5t5.5 6.5q4 9 14 16q3 3 17.5 15.5t23.5 21.5q31 31 63 71h-2q3 5 9.5 14.5 t9.5 14.5l6 10l12 17q8 12 24.5 37t24.5 37l-2 -3q4 8 11 15q1 2 5.5 10t6.5 10h-2q28 55 47 154q4 14 6 24q3 18 6 39q0 9 2 13t2 8q7 55 7 109q0 18 -1 36q-2 27 -12 80l-4 35q-2 2 -2 8q0 1 -1 4t-1 4q-6 12 -6 25q0 3 -1 7.5t-1 6.5q0 9 -2 13l-6 30q-1 2 -3.5 7.5 t-3.5 7.5t-3 7t-3.5 9t-1.5 6q-21 37 -76 111l-41 53q-10 19 -18 22q-11 11 -20 17q-1 1 -4.5 3t-4.5 3q-3 2 -11 8t-11 8q-23 18 -39 23q-2 0 -8 6q-2 1 -4.5 2.5t-7 5t-9.5 6.5l2 -2q-12 4 -20 4q-2 0 -6 1t-6 1h-3q-4 -12 -2 -20q0 -3 1 -15t1 -18v-51q-4 -50 -4 -84v-27 q0 -5 1 -15.5t1 -16.5q0 -40 2 -56v-94q0 -12 -1 -33t-1 -32v-584v-96v-25q0 -4 -1 -13t-1 -13v-21z" />
<glyph unicode="e" horiz-adv-x="417" d="M90 942v35v63q2 37 2 140q0 131 -2 192q0 42 25 58q12 7 32 7q8 0 17 -1h10q2 0 5.5 -1t4.5 -1h62q39 0 55 -2h10h11q31 0 51 -15q14 -12 6 -51q-7 -10 -17 -16q-24 -4 -64 -4q-29 0 -65 2h-14q-3 0 -8 -1t-8 -1h-19h-6v-89q0 -49 2 -69q3 -77 3 -129q0 -26 -1 -45 q-1 -21 -1 -49q0 -55 5 -136q2 -55 2 -145q10 -2 45 -2h41q14 0 21 -1t16 -5t13.5 -14.5t5.5 -28.5q3 -22 -20.5 -30.5t-53.5 -6.5h-16q-2 0 -6.5 1t-6.5 1h-16h-25q2 -4 2 -6v-19q0 -3 -1 -9.5t-1 -10.5v-291q0 -6 -1 -23t-1 -26v-76q0 -5 1 -15t1 -16v-14h129q8 1 16 1 q43 0 52 -25q3 -9 3 -18q0 -13 -6 -27q-12 -23 -32 -23q-4 0 -14 -1t-15 -1h-28q-31 -2 -56 -2q-46 0 -77 6q-21 2 -40 14.5t-22 30.5q-4 43 -4 96q0 7 1 21.5t1 21.5v70v66q0 1 0.5 6.5t1 18t0.5 30.5q0 229 -2 342v15q-1 14 -1.5 51t-0.5 92v32q0 5 -1 16.5t-1 16.5z" />
<glyph unicode="f" horiz-adv-x="442" d="M90 55q0 35 2 45q0 4 1 14t1 13q3 25 -2 59v265q2 34 2 63t-2 53v33q0 8 -1 25t-1 28q0 4 1 11.5t1 11.5v76q-2 10 -2 44.5t2 51.5v96q0 3 1 15t1 22v16q0 3 -1 9.5t-1 9.5q0 71 0.5 120t1 71t0.5 26v110q0 3 -1 9.5t-1 9.5q-3 35 19 57q19 13 43 13h8q49 0 80 2 q1 0 6 -0.5t15 -1t24 -0.5h8q1 0 6 1t10 1q35 -2 43 -2q14 0 20.5 -1.5t17.5 -8.5t26 -23q6 -9 6 -19q0 -15 -12 -32q-9 -12 -19 -14.5t-33 -2.5h-43q-5 0 -17.5 1t-18.5 1h-37q-1 0 -26 0.5t-30 -0.5q-4 -74 -4 -133q0 -62 2 -156q-3 -35 -3 -58q0 -11 1 -19v-45 q0 -4 1 -12.5t1 -12.5v-23q-6 -64 -6 -184q18 -2 64 -2h37q3 0 7.5 -1t6.5 -1h39q47 0 57 -37q6 -25 -8 -39t-35 -14.5t-41 0.5q-18 0 -22 2h-6h-89h-10v-100v-64q0 -4 1 -12t1 -12v-82q0 -4 -1 -12t-1 -11v-18l2 -68q4 -16 4 -84q-6 -14 -2 -37q0 -4 1 -10.5t1 -9.5 q4 -36 2 -53q-4 -21 -26 -27q-7 -3 -16 -3q-15 0 -33 7q-23 13 -23 53z" />
<glyph unicode="g" horiz-adv-x="659" d="M68 594q0 41 4 127q0 4 1 16t1 17v32q0 24 4 48q0 22 2 28q2 10 2 27v10q4 64 8 94q0 27 4 47q0 28 4 52v10q0 2 1 8t1 10q3 37 11 72l12 45q6 16 31 66l26 49q15 28 44 51.5t65 30.5q25 6 65 6q22 0 52 -6q9 -2 51 -21l24 -16q26 -26 49 -70q6 -18 9 -39q1 -4 3 -15.5 t3 -15.5q0 -4 4 -12q2 -6 2 -16q0 -35 -25 -53q-14 -4 -27 -4q-24 0 -40 16q-15 17 -15 51q0 15 -4 31q0 1 -1 5t-1 5q-5 31 -24.5 45t-59.5 14q-22 0 -49 -10q-32 -18 -33 -20l-10 -11q1 1 -0.5 -1.5t-5 -8t-5.5 -9t-5 -7.5q-3 -9 -11.5 -32t-11.5 -32q0 -4 -2 -6 q-6 -12 -8 -28l-6 -38v-1v-13q-11 -67 -21 -155q0 -21 -4 -37q0 -1 -1 -3.5t-1 -4.5q-2 -12 -2 -31q0 -21 -4 -49q-2 -10 -2 -33q0 -70 -2 -107q-4 -70 -4 -118q0 -40 2 -60q4 -40 4 -63q0 -73 10 -148q0 -2 1 -6.5t1 -7.5q2 -4 2 -20q23 -101 35 -129l6 -13q4 -8 7.5 -12.5 t9 -8.5t8.5 -7q14 -14 24 -19q1 -1 8.5 -3t8.5 -3l16 -8h-2q34 -4 53 6q33 15 60 59q19 33 24 47l11 31q7 15 16 49q2 6 2 17q0 4 1 11.5t1 10.5q6 24 6 45v13q0 10 2 14q4 16 4 24l-4 35v21q3 20 0 33q2 27 2 65q0 28 -2 51h-43q-37 0 -55 -2q-28 -2 -52 -2q-33 0 -57 4 q-28 3 -32.5 21t8.5 49q10 24 46 24h11h15q21 3 69 3q44 0 64 2h16q12 4 16 4q25 6 56 2q13 -3 19.5 -8t17.5 -21v-106v-82v-76q0 -72 -4 -103q-3 -12 -3 -14l-8 -57l-14 -47q-1 -5 -5 -15.5t-5 -15.5q-6 -23 -29 -53l-12 -19l-2 -4q-3 -4 -9 -14t-11.5 -17t-12.5 -12 q-1 -1 -3 -4t-3 -4l-8 -8q-2 -2 -5.5 -6.5t-6.5 -7.5t-7 -5h2q-31 -21 -88 -26h-8q-2 0 -5 -1t-5 -1h-11q-30 0 -36 2q-8 2 -26.5 9t-20.5 7q-25 16 -54 41l-22 23l-13 18q-30 36 -49 131l-4 16q0 2 -12 74q0 2 -1 7.5t-1 7.5v10q0 2 -1 6.5t-1 7.5q-4 32 -4 62v30 q0 5 -1 14.5t-1 14.5q-4 70 -4 127z" />
<glyph unicode="h" d="M88 227q0 5 1 15.5t1 15.5v29q0 6 1 18.5t1 18.5v69q0 2 1 6t1 7q-2 8 -2 26v498q0 46 -2 71q-2 24 -2 47.5t2 45.5q2 27 2 75v203q0 4 1 13t1 16q0 18 19 29h-2q6 4 19 4h12q23 -2 34 -15q10 -12 10 -41v-196v-97v-342q0 -2 1 -6t1 -6v-49q1 0 4.5 -1t4.5 -1q9 0 47.5 2 t46.5 2h39v29q0 2 1 7t1 7v12q2 45 2 164q0 10 1 30.5t1 29.5v51q0 67 -2 104v51q0 5 1 15t1 14t-1 13.5t-1 13.5v37q2 23 2 75v13q0 2 -1 5t-1 5q-2 10 -2 41q0 11 9.5 18t23 8.5t27.5 0t24.5 -8.5t11.5 -18v-86q0 -67 -2 -94q-2 -25 -2 -82q0 -76 2 -115q0 -9 1 -28.5 t1 -28.5v-58q0 -40 -4 -110v-113q0 -6 -1 -17.5t-1 -17.5q0 -26 4 -88v-10q0 -7 1 -20t1 -19v-68q0 -6 -1 -21t-1 -22q-2 -29 -2 -88v-90q0 -1 1 -3.5t1 -4.5v-143q0 -13 2 -23q0 -12 -8 -37q-10 -17 -40 -18h-5q-26 0 -39 10q-16 27 -8 55v17q0 8 1 23t1 20v41q0 59 2 88 v29q0 7 -1 18t-1 14q-2 24 -2 48.5t2 48.5v34v25q-4 54 -4 115q-17 0 -23 2h2q-11 2 -53 2q-14 0 -26 1q-24 0 -40 -1v-13q0 -4 -1 -10.5t-1 -9.5v-14q2 -41 2 -152v-63q0 -124 -2 -185v-12q-4 -25 -2 -49q0 -1 1 -3.5t1 -4.5q0 -1 1 -4t1 -5q5 -33 -2 -47q-13 -20 -39 -20 q-17 0 -39 8q-11 7 -14 45q0 2 -1 6t-1 6v56q0 1 1 5t1 9v21q-4 46 -4 77z" />
<glyph unicode="i" d="M90 936v37v76q2 27 2 86q2 29 2 88v163q-6 17 -2 30.5t27 17.5q8 2 16 2q34 0 51 -33q6 -25 6 -77q0 -29 -2 -66v-31q0 -7 -1 -18t-1 -15v-109q0 -8 -0.5 -24t-0.5 -29.5t1 -25.5v-285q0 -4 1 -15t1 -16v-14q2 -39 0 -57q0 -5 -1 -15t-1 -14v-41q0 -8 -0.5 -24 t-0.5 -32.5t1 -33.5v-76q0 -7 -1 -21.5t-1 -21.5v-131q0 -4 1 -11t1 -10v-34q0 -3 1 -11t1 -12q0 -3 1.5 -8.5t1.5 -7.5q0 -31 6 -49q3 -11 3 -21q0 -15 -8 -29q-14 -22 -38 -24q-4 0 -8 -1q-20 0 -39 11v-2q-15 8 -15 53v13q0 2 -1 7.5t-1 8.5q0 5 1 15t1 14v90 q-2 16 -2 71v54q0 6 1 29.5t1 43.5v291q0 6 1 18.5t1 18.5v35q0 30 -4 88v47q0 6 -1 18.5t-1 18.5z" />
<glyph unicode="j" d="M-43 104q0 50 43 56q32 0 49 -39l4 -4q14 -28 76 -39q19 0 51 8q29 0 61.5 32.5t41.5 76.5q1 3 2 9t2 9q5 14 8 41q4 35 6 53v19v26q2 12 2 60q0 5 -1 41.5t-1 70.5v21v16q0 37 2 49v62q2 25 2 78v127q2 51 2 159v33q0 2 -1 5t-1 5q2 43 2 127q0 101 -4 150v28 q0 22 19 41q14 11 30 11q6 0 12 -1q23 -5 29 -16q8 -16 8 -55v-16q7 -68 7 -127v-35q0 -6 -1 -18.5t-1 -18.5q0 -4 -1.5 -12t-1.5 -11v-86q0 -1 1.5 -3t1.5 -3q-3 -56 -3 -114v-123q0 -1 -1 -4.5t-1 -4.5l2 -26l-2 -74v-59q-2 -41 -2 -123l2 -133v-21q0 -4 -1 -13t-1 -13 q-2 -18 -2 -56q0 -26 -16 -84t-37 -94l-2 -4q-20 -30 -31 -39q-15 -18 -37 -29q-4 0 -6 -2l-14 -10l-57 -18q-23 -4 -50 -4q-17 0 -36 2q-32 2 -67.5 17t-55.5 38q-13 15 -23 35l-4 8z" />
<glyph unicode="k" horiz-adv-x="581" d="M92 168q0 2 1 6t1 6v15q0 1 -0.5 4.5t-1 10.5t-0.5 17q0 3 1 10t1 11q0 25 2 35v34q-2 45 -2 172v168q0 5 1 14t1 13v27q0 43 2 57q0 62 -2 68v67q2 25 2 78q0 71 -2 104v277q0 4 -1 12t-1 12q0 13 8.5 28t24.5 20q14 4 24 4q19 0 27 -12q12 -18 10 -56q0 -101 7 -180 v-55q-4 -35 -2 -54v-39q0 -2 1 -7.5t1 -8.5q0 -39 2 -57q4 -40 4 -66v-39q2 3 6 15q1 2 3 5t3 5q1 3 5 12.5t9 18.5l21 49l12 26q11 23 34.5 68t35.5 67q10 25 28 56l7 14q20 50 34 70q2 5 9.5 19.5t9.5 19.5l8 16q6 19 41 82q16 23 54 25t46 -25q3 -13 -3 -35t-15 -33 q-5 -5 -25 -41q-1 -1 -3 -5l-15 -27q-4 -5 -12 -27l-25 -49q-18 -37 -29 -60q-10 -13 -10 -22q-6 -14 -31 -55q-3 -7 -16 -39l-92 -180l-35 -52q-23 -32 -37 -55q10 -15 14 -27l10 -17q2 -2 5 -7l6 -8q2 -8 8 -13q10 -10 37 -53l14 -27l27 -53l10 -16l12 -25l15 -30 q48 -92 53 -103l-2 2q2 -3 9 -13t9 -13l31 -68v2q5 -8 16.5 -26.5t16.5 -26.5h-2q8 -12 18 -37l17 -33q6 -9 18 -24l12 -29q7 -16 7 -39q-6 -42 -56 -45l-18 2q-19 10 -35 41l-4 10q-1 3 -8 20.5t-13.5 32.5t-11.5 23h2q-8 8 -14 20l-10 25q-4 13 -19 37q-2 3 -7.5 13.5 t-8.5 17.5l2 -2q-5 7 -9 14.5t-5 9.5v-2q-12 16 -19 35q-21 42 -24 47l-9 16l2 -2l-16 23l-8 16q-1 2 -3 7.5t-3 7.5t-2 5q-10 24 -11 23q-2 3 -6 13.5t-6 13.5v-2q-20 32 -33 57l-4 8q-11 23 -16 35q-5 15 -10 25t-7 10v-72q0 -6 -1 -17.5t-1 -16.5v-31q-2 -23 -2 -66 q0 -14 2 -24q0 -39 2 -78q1 -21 2 -52.5t2 -51t1 -23.5q0 -2 1 -7.5t1 -8.5v-17q0 -6 4 -22v-74q0 -43 -64 -43q-36 0 -41 49l1 13q1 14 1 30q0 23 -2 41q0 9 -4 41z" />
<glyph unicode="l" horiz-adv-x="360" d="M90 82v121q0 69 2 106v344q0 2 -1 7.5t-1 7.5v409v99v161q0 1 1 5t1 6l-2 20q-1 8 -1 15q0 26 17 40q5 7 22 9q7 1 12 0q9 0 16 -2l16 -9q7 -3 11.5 -16.5t2.5 -28.5v-55q0 -27 -2 -43v-158q2 -12 2 -41v-90l-1 -8q-1 -8 -1 -14v-15l2 -51v-55q2 -9 1.5 -33.5t-3.5 -42.5 q0 -1 1 -3.5t1 -4.5v-203q0 -71 2 -104q0 -6 1 -18t1 -17v-31q0 -6 -1 -17t-1 -16v-32q0 -63 -2 -88v-103q-4 -25 -2 -29h11q16 -2 34.5 -2t38.5 2h21q5 0 14 1t14 1h23q10 -1 14.5 -6.5t14.5 -23.5q1 -2 3 -5t3 -5v-5q0 -15 -5 -25q-6 -12 -11.5 -16.5t-18.5 -11.5 q-6 -3 -24 -6q-13 -2 -23 -2h-6h-123q-9 -1 -16 -1q-28 0 -42 15q-17 17 -17 53q0 7 1 15z" />
<glyph unicode="m" d="M92 649q0 55 6 101q0 47 -4 67q-2 21 -2 44.5t2 49.5v273q0 126 10 221q4 19 30 29q14 5 27 4q13 0 25 -4q30 -11 41 -45q14 -93 17 -119l4 -45q1 -11 5 -33.5t5 -34.5q0 -6 2 -10q8 -20 8 -49q12 -67 19 -154q0 -4 1 -12t1 -12q6 -57 18 -121q15 -76 17 -94 q3 -20 10.5 -58.5t9.5 -52.5q8 -24 16 -84q1 -6 2.5 -19t2.5 -20l14 -86l10 -53h-2q1 -2 2 -7.5t2 -7.5q2 -10 2 -34q1 7 3 26.5t3 24.5q9 70 9 72q3 40 8 59v-2q0 1 1 3t1 3l8 47q0 5 8 37q1 7 5 21.5t5 21.5q0 3 2.5 14t2.5 15l10 30l12 60q1 6 3 23t3 24q1 5 2 14.5 t2 14.5q5 44 8 55q6 30 15 57q2 6 5 20.5t5 20.5l6 25q0 2 12 61q2 8 6.5 24.5t6.5 24.5q5 37 16 72q4 24 17 59q5 20 8 29q8 23 12 72q1 6 2 19.5t2 19.5v18v10q0 36 25 49h-2q18 8 32 8q7 0 13 -2q18 -6 32 -22q17 -29 13 -59v-402q0 -153 -2 -231q0 -3 -1 -11.5t-1 -11.5 q-2 -32 -2 -57t2 -41v-10q0 -2 1 -7t1 -8l-2 -16v-145q0 -103 2 -156v-29q0 -2 -1 -6t-1 -6v-20q0 -1 1 -4.5t1 -4.5v-8q0 -43 2 -61q0 -4 1 -13t1 -14v-27q0 -15 -1 -23.5t-9 -20.5t-23 -19q-19 -5 -33 -5q-19 0 -28 9q-15 15 -15 43q-4 38 0 47v25q2 20 2 45v92q0 4 -1 13 t-1 14v34q0 6 1 19t1 20q0 4 1 15t1 16v31q0 6 -1 17t-1 16v28q-4 57 -4 185q0 123 4 178q0 3 1 11.5t1 10.5q2 6 2 23v28q3 5 -2 19q-2 0 -2 2q-2 -17 -6 -35q0 -16 -6 -39q-1 -7 -4 -18t-4 -15q-1 -8 -5 -26.5t-5 -26.5q-1 -9 -5.5 -29.5t-5.5 -29.5q-13 -64 -16 -103 q0 -12 -8 -32q-3 -7 -8 -35l-27 -129q-2 -8 -2 -23q-1 -5 -3 -16.5t-3 -16.5q-1 -6 -10 -43q-1 -3 -2.5 -8t-2.5 -10l-2 -10q-1 -4 -2.5 -20t-3.5 -29q-1 -3 -3 -17t-3 -20q-5 -35 -6 -41q0 -23 -4 -29v-51q0 -33 -17 -53l3 2q-13 -35 -42 -35q-17 0 -38 12q-2 2 -4 2 q-15 0 -23 27l2 -2q-10 13 -10 39q0 12 -2 18q-4 12 -4 25l-9 49q-2 27 -14 86q-2 9 -5 27.5t-5 27.5q-1 4 -3 11.5t-3 11.5l-10 92q-2 14 -8.5 41.5t-8.5 40.5q-4 21 -12 68t-12 69l-45 281q-3 3 -3 10v-16q0 -6 -1 -18t-1 -15v-58q-3 -24 2 -61v-152q0 -2 1.5 -8.5 t1.5 -9.5v-21q3 -62 3 -106q0 -27 -1 -47v-88q0 -9 1 -27.5t1 -27.5q2 -24 1.5 -48.5t-1.5 -48.5v-14q0 -8 2 -10q5 -12 5 -48v-20q-2 -53 -14 -74q-9 -15 -25 -18q-6 -1 -12 -1q-9 0 -17 3q-14 5 -25 14q-13 11 -13 74v33q0 3 1 8t1 8v17q0 3 -1 9t-1 9v158q0 57 2 86v20 q0 4 -1 12t-1 9v41q0 29 -2 43t-2 41v32q0 6 -1 17.5t-1 17.5z" />
<glyph unicode="n" horiz-adv-x="710" d="M96 1376l2 23q0 23 19 33q16 6 29 6q30 0 42 -35q1 -3 15 -31q13 -27 22 -61q1 -2 8.5 -25.5t12.5 -32.5q1 -3 6.5 -14t7.5 -18l12 -32t13 -34q17 -59 49 -141q42 -114 80 -232q5 -11 8 -24q4 -18 6 -21q0 -1 1 -3.5t1 -4.5q1 -2 2 -8t4 -16.5t6 -22.5l15 -51l14 -64 q2 -7 6 -23.5t6 -23.5l6 -24l15 -50l6 -32v143q0 7 -1 21t-1 20v203q0 38 -2 63q-1 15 -1 34q0 38 3 89q3 63 3 104q0 21 -1 37q-4 74 -4 121q0 31 4 117v20q-4 28 16 48q10 3 21 3q19 0 41 -10q21 -26 21 -58q0 -5 -1 -11q0 -8 -1 -18.5t-1 -12.5v-10q-2 -34 -2 -60.5 t2 -44.5v-100q2 -24 2 -48t-2 -50q-2 -33 -2 -57.5t2 -41.5v-213q2 -28 2 -54t-2 -50v-27q0 -5 -1 -15.5t-1 -14.5v-82q0 -3 -1 -9.5t-1 -9.5v-94v-119q0 -35 -2 -45v2q-2 -20 -2 -37.5t2 -31.5l2 -43q3 -29 -10.5 -52t-38.5 -26q-31 4 -41.5 12.5t-13.5 26.5q0 2 -4 10 q-9 22 -9 35v10q0 2 -1 4.5t-1 3.5q-1 5 -4 15.5t-4 15.5q-1 2 -6 43q0 1 -1 3t-1 3l-4 21l-14 61q-7 34 -21 90q-1 3 -12 47q-7 40 -21 78l-41 168q-6 17 -14.5 47.5t-9.5 34.5q-3 10 -10.5 33.5t-10.5 36.5l-10 32q-1 3 -4 11t-5.5 14t-4.5 10l-13 43q-1 4 -4 13.5 t-4 13.5q-3 12 -11 34t-11 33q-4 8 -9 23q-13 39 -16 45l-16 49v-27l2 -155q0 -74 2 -105q3 -61 3 -101q0 -20 -1 -34q4 -14 0 -47v-70q0 -3 1 -10.5t1 -11.5v-109q0 -77 2 -114v-176q0 -40 2 -60q0 -1 1 -4t1 -4v-8q5 -39 -2 -62q-12 -26 -41 -26q-15 0 -35 8 q-23 15 -23 48q0 5 1 11v103q0 131 -9 473v39q-2 80 -2 282q0 295 -8 422z" />
<glyph unicode="o" horiz-adv-x="655" d="M68 760q0 63 4 149q0 2 1 7.5t1 7.5v14q0 27 2 37q0 25 4 49q0 3 1 12.5t1 12.5q4 29 8 79q9 108 51 197q7 17 19 29q23 34 49 57q13 9 41.5 21.5t46.5 13.5q13 1 25 1q48 0 81 -13q26 -9 56 -35q16 -14 41 -51h-2q29 -42 45 -119q2 -9 6 -29t6 -29q9 -67 12 -153v-78 q0 -6 1 -18.5t1 -18.5q0 -50 4 -104q3 -25 3 -43q0 -9 -1 -15q0 -5 -1 -14.5t-1 -13.5v-23q-2 -14 -2 -51v-180q3 -13 3 -33q0 -26 -5 -64q0 -2 -1 -5t-1 -5l-10 -116q-2 -10 -2 -19q0 -32 -20 -82l-9 -18q-22 -49 -37 -68q-25 -32 -49 -43l-14 -8l-10 -4q-8 -4 -35 -4 q-23 -3 -44 -3q-31 0 -56 7q-32 7 -54 22q-4 2 -9.5 7.5t-9.5 10.5l-3 5q-3 4 -16.5 18.5t-14.5 16.5h2l-16 16q-17 20 -25 35q-46 94 -57 291q0 14 -2 20q0 3 -1 11.5t-1 11.5v14q-4 98 -4 176v53q0 9 -1 28.5t-1 29.5zM166 692q-1 -14 -1 -32q0 -36 3 -89q2 -20 2 -69 q0 -46 2 -64q4 -24 4 -43q4 -52 8 -82q0 -1 1 -4t1 -4q11 -64 15 -76q0 -1 1 -4.5t1 -5.5l8 -24q9 -22 12 -25q10 -10 13 -16l-3 2q1 -2 5 -7l6 -10q14 -19 49 -45q26 -22 63 -22q22 6 31 10q47 25 53 68l11 24q0 3 2 11.5t2 11.5q8 39 8 73q0 3 1 9.5t1 9.5q0 16 1 31t1 18 v14q8 63 8 197q0 76 2 115v188q0 7 -1 21.5t-1 21.5v35q0 15 -4 43q0 8 -1 15.5t-1 10.5q-3 17 -3 43q0 13 1 27q0 31 -2 45l-6 72q-5 38 -8 53t-11 36t-22 38q-4 4 -10.5 9.5t-8.5 8.5l-14 15q-7 7 -27 10q-14 2 -27 2q-34 0 -61 -17q-6 -4 -16 -14l-12 -12q-7 -7 -11 -15 q-11 -14 -16 -38q-4 -8 -20 -60q-7 -19 -11 -78q0 -29 -2 -37q0 -23 -4 -43q0 -2 -1 -9t-1 -9t-1 -7t-1 -9v-11q-4 -50 -4 -71q-2 -6 -2 -17v-104l-2 -72v-43z" />
<glyph unicode="p" d="M92 59v76q0 52 2 72v461l-2 82l4 -5v70l2 23q0 12 -2 18t-2 21v266q-2 20 -2 40t2 40v100v94q13 11 24 15.5t15.5 5t16.5 0.5h18q8 0 47 -11l14 -6l-2 2q55 -18 92 -55q71 -71 93 -121q37 -82 37 -182q0 -33 -9 -78q-1 -7 -3 -20.5t-3 -20.5q-4 -30 -41 -86 q-3 -6 -16 -16q-4 -2 -10 -8q-4 -3 -12.5 -9.5t-12.5 -9.5q-1 -1 -11 -8t-16 -12q-26 -23 -67 -35q-2 -1 -17 -6q-2 0 -18 -8q-9 -3 -18 -3q-3 0 -9 -2q0 -168 -2 -256v-34q3 -18 -2 -54v-61q0 -7 1 -20t1 -19q0 -72 2 -109v-63q0 -9 -2 -32t-2 -36q0 -2 -1 -11q0 -27 3 -28 l-2 -6q-5 -12 -30 -15q-8 -1 -15 -1q-13 0 -22 4q-11 7 -17 24.5t-6 32.5zM182 940q0 -5 1 -15.5t1 -15.5q0 -35 2 -53v-20h2q3 0 15 4q8 0 28 10l-2 -2q12 6 27 16q39 20 63 51q15 19 21 37q12 42 12 97q0 23 -2 47v14q-4 55 -14 78l-10 18q-2 5 -6.5 17.5t-6.5 17.5 l-10 19l2 -3q-2 3 -7 8.5t-7 8.5q-7 11 -15 16q-13 19 -69 41q-18 11 -25 12v-223q0 -12 0.5 -32.5t0.5 -36.5t-1 -31v-80zM184 20q0 3 2 5z" />
<glyph unicode="q" horiz-adv-x="567" d="M68 315q0 4 1 13t1 14q3 26 0 51v99q0 94 2 135q0 22 2 30q4 28 4 43v21v37q2 20 2 69q0 54 -2 105q0 5 4 33q2 14 2 32v123q0 14 0.5 30t1 27t0.5 13v12q0 2 1 8t1 9q0 26 2 36q4 45 16 76q0 1 4.5 11t11 23t11.5 19q25 32 68 46q14 5 41 8q8 2 28 6h47q38 0 103 -62 q30 -45 41 -82q1 -2 3 -8.5t3 -7.5q4 -10 10 -37q3 -12 19 -65q4 -18 8 -82v-123q0 -8 -1 -23t-1 -22v-43q0 -88 -2 -131q-4 -36 -4 -56q0 -4 -1 -13t-1 -13l-5 -78v-25q0 -2 1.5 -6t1.5 -6v-117q0 -20 -5 -55q-2 -16 -2 -51q0 -41 -2 -57q0 -3 -1 -17t-1 -20v-33 q-2 -12 -2 -64q2 -2 6.5 -5t6.5 -5q16 -16 28 -22v2q11 -9 17 -13q12 -10 28 -30q6 -12 6 -24q0 -11 -5 -22q-9 -25 -25 -28h-2h-3q-34 0 -71 37l-6 6l-8 10q-23 -27 -35 -33l-23 -10q-2 0 -9.5 -3.5t-12.5 -4.5q-21 -6 -66 -6q-13 -2 -25 -2t-22 2q-2 0 -6 1t-6 1h-8 q-56 0 -103 59q-13 16 -31 47l-20 72q-12 50 -12 90v10q0 1 -1 3t-1 4q-2 8 -2 32zM164 334q0 -54 2 -66l8 -37q9 -48 21 -79q1 -5 5 -15t5 -14l6 -12q4 -6 17 -15t24 -10h8q15 -2 28 -2q30 0 54 8q6 2 14 6l-2 -2q4 4 11 4q1 1 5.5 5t8 7.5t4.5 6.5h-2q-6 4 -14 12 q-4 3 -13.5 11.5t-13.5 11.5q-7 5 -22.5 16t-22.5 16q-8 8 -14 17l-39 39q-20 17 -21 31q-1 8 2 18q11 18 37.5 25.5t36.5 -1.5q28 -32 45 -43l25 -20q3 -2 24 -23q0 15 -1 41t-1 41l6 97v159q0 44 2 60q11 128 11 221q2 39 2 115v84q0 53 -2 73q-11 102 -31 152v2 q-12 12 -15 29q-5 13 -18.5 29.5t-26.5 23.5q-12 4 -22 4q-69 -4 -86 -21q-2 -3 -6 -11t-6 -11q-9 -12 -13 -57q0 -3 -1 -9t-1 -8v-12q-4 -36 -4 -57q-4 -82 -4 -123q0 -7 1 -21.5t1 -21.5v-45q0 -9 1 -28t1 -28v-55q0 -39 -2 -59q-4 -40 -4 -62l-2 -162q-2 -23 -2 -88 q-2 -12 -2 -53q5 -24 2 -39q0 -23 -4 -31v-24z" />
<glyph unicode="r" horiz-adv-x="538" d="M90 1071q0 5 1 16.5t1 16.5v29q2 35 2 102q0 57 -2 84v51q0 32 19 51q7 7 25 10q10 2 19 2q5 0 9 -1q50 -13 61 -19q2 -1 5.5 -2t5.5 -2l30 -12q38 -21 49 -31q5 -5 11 -8l43 -43q1 -2 8 -11.5t8 -11.5v2q2 -3 21 -32l10 -25q0 -2 4 -10q13 -38 18 -88l2 -31q1 -7 1 -17 q0 -20 -3 -49q0 -2 -1 -13t-1 -17q0 -1 -1 -4t-1 -4q-4 -28 -16 -58q-19 -53 -70 -98l-31 -25q5 -15 14.5 -48.5t14.5 -49.5q11 -37 29 -82l33 -96q13 -47 32 -98l27 -91q4 -12 15.5 -46t17.5 -52q0 -4 18 -53q3 -8 8 -27q1 -4 6.5 -15t6.5 -15q5 -10 12 -31l4 -15v2 q3 -8 10 -26.5t10 -26.5q1 -6 1 -11q0 -26 -25 -38q-19 -7 -29 -4q-2 0 -6.5 1t-5.5 1q-26 24 -41 64q-1 2 -2 6t-2 6l-12 41l-17 43q-4 16 -6 22q-6 26 -20 58l-21 61q0 4 -2 6q-4 7 -10 29l-12 35q-2 20 -23 67q-17 48 -51 172q-13 17 -29 76l-4 19q-1 6 -5 17t-5 17 q-3 8 -17 50q-37 -15 -38 -15q-1 -1 -0.5 -41.5t0.5 -42.5v-456q-3 -15 -3 -29v-8q5 -15 5 -31q-2 -23 -2 -66v-79q-23 -23 -56 -25q-5 -1 -9 -1q-19 0 -26 19q-9 25 -9 59q0 9 1 19q2 10 2 21v225q0 6 1 17.5t1 17.5q-2 59 -2 209q0 152 -4 256v18v76q5 28 2 45 q-4 62 -4 92zM186 1323q2 -16 2 -61v-62q0 -18 5 -125q0 -26 -3 -53q-2 -16 -2 -32t2 -32v-77q0 -2 1.5 -4t1.5 -5q1 0 3 1t3 1q22 3 43 15l-2 -2q2 0 18 8l14 8q7 4 11 6q5 2 11 7t7 6q5 7 15.5 20.5t15.5 20.5q21 32 21 80q0 8 -1 16q2 14 2 18v53q-2 6 -2 25 q-2 18 -12 41q-6 20 -8 21q-17 42 -64 86v-3q-2 1 -13 9t-13 10q-20 12 -45 12h-11v-8z" />
<glyph unicode="s" horiz-adv-x="440" d="M2 1196v12q0 37 8 64q1 4 3 14t3 14q10 23 19 39l14 29q17 28 62 55l24 13q23 12 56 12q18 0 40 -4q9 0 27 -6t33 -21l8 -6q26 -16 53 -78q20 -42 23 -98q1 -9 1 -22q0 -21 -3 -50q0 -29 -6 -41q-13 -29 -39 -35q-14 -3 -37 7q-17 19 -17 34l2 41q0 15 3 27q2 8 2 37 q-1 4 -3.5 16.5t-3.5 16.5q-15 71 -51 86q-24 10 -49 0q-22 -8 -33 -23l-12 -14q-7 -7 -14 -25q-9 -24 -9 -53q0 -51 5 -90l4 -12q2 -2 2 -13q5 -14 17.5 -46.5t17.5 -47.5q2 -5 9 -20.5t9 -20.5q3 -6 11.5 -18.5t11.5 -18.5q2 -2 8 -14q3 -4 10 -18q0 -1 2 -4.5t2 -4.5h-2 l16 -24l7 -13l-3 2q36 -52 64 -120q15 -38 37 -80q12 -29 14 -33q7 -12 17 -35q26 -74 43 -133l8 -31l6 -32l4 -25q8 -39 8 -106q0 -40 -2 -56q0 -6 -1 -24t-1 -23q0 -9 -10 -49q-1 -4 -3 -10.5t-3 -10.5q-2 -12 -13 -30v2q-1 -2 -4 -6t-4 -6q-9 -18 -18 -27l-17 -16 q-20 -20 -34 -27q-38 -11 -75 -11q-12 0 -24 1q-62 9 -84 34q-49 55 -49 121q0 11 -4 27t-4 65q0 2 1 6.5t1 6.5v24q0 38 18 56q11 8 27 8q4 0 8 2q12 2 27 -6t18 -29q3 -16 -2 -57q-4 -40 2 -60v-12q0 -2 1 -7t1 -7q0 -11 4 -23q3 -26 25 -51q16 -13 53 -8q20 3 27 10 q10 6 16 16l4 4q2 4 6.5 14.5t6.5 14.5q2 7 6 41q0 2 1 6t1 6v25l2 53v25q0 70 -14 131q-22 106 -84 231l-13 25q0 1 -1 3t-1 3q-10 31 -30 64l-11 22q-11 26 -20 39q-14 18 -19 29l-4 8q-4 15 -12 26l-12 23q-7 7 -19 31l2 -2l-10 18q-10 16 -35 64q-4 10 -16 34 q-27 52 -35 111q-2 8 -2 45z" />
<glyph unicode="t" horiz-adv-x="438" d="M-18 1395q0 14 3.5 22t13 11t15 3.5t21.5 0.5h53q2 0 6 1t6 1h93h135q2 0 6.5 -1t7.5 -1h31q15 2 51 -2q14 0 25 -21v-25q0 -34 -23 -38q-34 -7 -115 -7h-20q-2 0 -8 1t-15 1v-24q0 -3 -1 -14t-1 -17v-82q0 -32 4 -82v-80q6 -108 6 -239q0 -142 -6 -271v-45q0 -3 1 -10 t1 -10v-141q0 -12 -1 -34t-1 -34v-164q0 -51 -4 -71q-3 -17 -29 -23q-9 -2 -18 -2q-16 0 -31 6q-16 14 -20 72q-2 29 -2 48t2 28v8q5 71 8 196q0 5 -1 17t-1 18v68v71q4 68 4 226q0 10 1 29.5t1 29.5v72q0 3 -1 24t-1 43v19q0 3 -1 9t-1 9q-2 10 -2 43q-2 25 -2 86 q0 53 -2 80v105v38h-133q-20 2 -30 5.5t-17.5 15t-7.5 31.5z" />
<glyph unicode="u" d="M70 565v211q0 12 1 35t1 35v217q-1 16 -1 38q0 36 3 85v196q0 17 1 26t9.5 19.5t24.5 12.5q-1 -1 5 0h4q5 0 11 -2q9 -2 17 -5.5t14 -13.5t6 -24v-88q0 -40 -2 -52q0 -135 2 -153q0 -8 1 -22.5t1 -22.5v-96q0 -9 -1 -28t-1 -28v-123q0 -3 -1 -10t-1 -10v-232q0 -29 2 -43 v-16q0 -3 1 -26t1 -46q0 -29 2 -41q6 -49 14 -96v-2q4 -16 19 -72l8 -28q19 -44 43 -64q13 -12 40 -17.5t48 -0.5q26 9 37 18q1 2 7 9.5t14.5 18t11.5 13.5q20 27 20 39q4 21 8 27q1 7 4.5 19t4.5 16q0 6 6 36q4 20 4 27q4 24 4 33q0 27 2 37v-2q6 72 10 198v211 q-3 37 -3 60q0 12 1 20q0 30 4 70v10q4 46 4 63v39v27q-3 28 -3 49q0 13 1 23q0 42 -2 65q0 6 -1 18.5t-1 18.5v143q0 29 17 48q11 6 24 6q19 0 41 -13h-2q17 -8 17 -42q0 -8 -1 -17v-338v-108q0 -4 -1 -12.5t-1 -12.5q-2 -8 -2 -25v-18q0 -3 1 -10.5t1 -10.5v-75v-80v-80 q0 -7 -1 -21.5t-1 -21.5q0 -138 -8 -211q-2 -8 -2 -12l-6 -51q0 -2 -1 -6.5t-1 -6.5v-8l-14 -53q0 -3 -5 -8q-1 -1 -1.5 -3.5t-1 -6.5t-1.5 -7q0 -13 -6 -22q-3 -6 -6 -15q0 -7 -10 -22q-9 -9 -12 -21q-5 -10 -11 -18l2 2q-1 -2 -3.5 -5t-4.5 -7q-11 -18 -20 -25 q-23 -23 -58 -45q-31 -14 -72 -14q-27 0 -57 6q-20 2 -51 20q-39 23 -55 41l-12 23q0 8 -5 8q-12 16 -12 20q-7 14 -10 23q0 1 -10 31q-17 68 -31 143q-12 94 -12 262z" />
<glyph unicode="v" horiz-adv-x="503" d="M6 1362v6q-2 10 -2 19q0 12 4 22q8 8 25 12t28 2q16 -1 23.5 -6.5t8.5 -10.5t1 -17q0 -2 1 -6.5t1 -6.5q0 -3 1 -8t1 -8q2 -8 2 -31q6 -59 15 -123q6 -43 14 -125q1 -7 2 -25.5t2 -25.5q1 -6 2 -17.5t2 -17.5q4 -46 8 -73l13 -86q1 -8 12 -93.5t18 -130.5l9 -45 q1 -7 4 -21.5t4 -21.5q3 -14 8 -46.5t8 -47.5q0 -9 4 -29q4 -24 4 -39q5 -57 13 -104q0 4 1 8.5t1 7.5q1 4 2 13t2 14q7 50 14 82q4 18 8 59q1 5 2 14.5t2 14.5q1 8 4.5 28t4.5 31q3 16 8 64q1 2 3 18t4.5 38t4.5 32q0 2 1 7.5t1 8.5q7 70 14 119q0 12 5 27q4 16 4 28 q9 105 34 283q9 85 15 115q0 31 8 55q0 1 1 3t1 3q8 36 8 55q0 8 6.5 23t14.5 23q5 3 16 3t19 -1l8 -2q13 0 26 -13q12 -12 12 -31q0 -6 -1 -12l-11 -57q-14 -71 -28 -178q0 -15 -4 -43q-4 -20 -4 -29l-7 -37q-1 -9 -4 -27.5t-4 -27.5q0 -13 -2 -19t-2 -16l-10 -94 q-1 -13 -17 -131q-5 -23 -8 -76q-10 -54 -12 -86q-23 -152 -33 -199q-1 -9 -4 -30.5t-4 -30.5q-2 -2 -2 -4v-2q0 -2 -1.5 -9.5l-4 -20t-4.5 -23.5q0 -4 -2 -13.5t-2 -13.5q-3 -3 -7 -37q-1 -3 -2 -12l-2 -21q0 -6 -4 -26q-1 0 -2 -6.5t-2 -16.5t-2 -14q0 -13 -2 -15 q-2 -4 -2 -14q-5 -32 -14 -41q-16 -16 -41 -16q-15 0 -33 6q-25 25 -25 59q-4 31 -8 54q-13 28 -18 106q-4 15 -8 68v10q0 1 -1 3t-1 3q-13 41 -19 80q-4 45 -20 125q-27 151 -33 205q-1 8 -4 25.5t-4 25.5q-12 69 -17 117q-7 46 -10 86q0 13 -4 41q-1 7 -3 22.5t-3 22.5 q-4 32 -4 59v14q0 2 -1 7t-1 10q-2 6 -11 80q-5 26 -10 108v19q0 4 -1 9t-1 7z" />
<glyph unicode="w" horiz-adv-x="802" d="M4 1376q-2 9 -2 17q0 9 3 17q5 14 26 24q20 7 35 7q28 0 36 -26q11 -48 15 -147q1 -6 2 -23t2.5 -32t3.5 -25q4 -28 8 -80q2 -16 7 -49t7 -49q14 -110 27 -187l6 -35q4 -32 8 -63l5 -45q2 -10 6 -35t6 -35q31 -210 35 -286q7 61 8 63v-2q6 61 8 72q0 1 1 5t1 5v22 q0 5 1 14t1 13q1 10 2 41t2 45q9 169 15 199v-2q0 23 4 69q3 9 8 64q0 4 2 27t4 36q6 30 6 66q0 9 4 29q1 5 2 17.5t2.5 24.5t3.5 23q1 9 4.5 27.5t4.5 27.5l6 54q0 3 1 9.5t1 10.5q0 35 4 53v33l4 29q0 18 33 33q10 3 21 3q20 0 40 -12q13 -11 17 -49q0 -3 1 -8t1 -8 q3 -18 8 -74q1 -5 2 -18.5t2 -18.5l8 -63q0 -2 1 -5t1 -5q2 -6 2 -23q0 -16 10 -74l7 -37q7 -50 14 -82q4 -23 20.5 -124t22.5 -154q28 -132 37 -242q3 -25 8 -52t8 -50q2 20 2 45q0 43 2 63q0 8 1 30.5t1 29.5q2 16 2 43q0 52 6 88q0 2 1.5 6t1.5 6q0 25 2 37q0 6 1 19 t1 14q0 48 6 78q0 12 2 16q2 6 2 12q6 37 6 74q0 3 1 10.5t1 10.5v16l8 63q0 3 1 8.5t1 8.5q4 24 4 35q0 43 2 59q13 84 13 152q-1 9 -1 20q-1 29 5 74q8 63 26 73v-2q16 13 36 13q14 0 30 -6q23 -12 23 -41v-7l-15 -172q-2 -18 -5 -54t-5 -54q-3 -28 -8 -83t-8 -81 q-9 -56 -9 -80q-2 -12 -2 -29q0 -51 -4 -71q0 -1 -1 -4t-1 -4q-4 -18 -4 -58q0 -20 -2 -30t-2 -29l-6 -72q-5 -63 -6 -76q-6 -87 -37 -337q-1 -6 -2 -18.5t-2 -16.5q0 -3 -1 -9t-1 -10q-4 -54 -25 -84l-16 -12q-11 -8 -21 -8t-33 8q-30 19 -30 49q0 11 -4 35q0 3 -1 8.5 t-1 7.5q0 13 -4 25q-5 30 -5 41q-14 54 -14 100l-4 13q-4 12 -4 14q-12 78 -34.5 235t-33.5 226q-1 6 -4 18.5t-4 18.5l-10 59q0 1 -1 3t-1 3q-6 27 -6 70q-6 36 -6 53q0 9 -2 17.5t-5 19.5t-4 18v-6l-2 -55v-15q0 -3 -1 -7.5t-1 -6.5q-4 -28 -4 -43l-8 -65q0 -12 -4 -48 q-2 -16 -2 -40q0 -84 -10 -199q-1 -5 -3 -14.5t-2 -14.5v2q-4 -28 -8 -88q-1 -7 -2 -20.5t-2 -20.5q-8 -81 -10 -88q0 -3 -1 -8.5t-1 -9.5q-2 -10 -2 -31l-2 -39q0 -39 -4 -53l-9 -68q0 -31 -4 -47q-5 -37 -29 -47q-15 -6 -39 -6q-12 0 -26 2q-14 3 -24.5 21t-10.5 38 q-1 7 -4 20.5t-4 20.5q-8 16 -8 33q-10 52 -14 78q-4 24 -15 88t-16 94q-12 126 -39 299q-2 12 -6 38t-6 38v-2q-8 23 -11 61q0 5 -4 21l-10 86l-6 82v16q0 3 -1 7t-1 7q-3 24 -8 79.5t-8 78.5q-1 13 -4.5 37t-4.5 35q0 23 -6 41q0 1 -1 5t-1 5q0 4 -1 11.5t-1 11.5 q-2 8 -2 28z" />
<glyph unicode="x" horiz-adv-x="407" d="M-2 1368q-3 13 -3 23q0 24 15 34q19 9 33.5 9t22.5 -4.5t14 -17.5t8.5 -20.5t5.5 -23.5q1 -5 3 -21.5t3 -23.5v2q1 -5 3 -16.5t3 -16.5q5 -15 5 -20q6 -28 18 -87t18 -87q2 -15 8.5 -41t8.5 -33q28 -141 31 -166q3 14 10 41.5t10 42.5q11 33 27 117l6 24q1 8 5 25t5 25 q0 1 1 4t1 4q11 70 12 73q1 7 4.5 23t4.5 23l6 32l26 107l11 28q16 8 34 5q20 -2 34 -12q12 -9 12 -18q0 -2 -1 -3q0 -33 -18 -94l-6 -25q-4 -12 -4 -23l-13 -59q-2 -14 -7 -42t-7 -42q-7 -46 -22 -100q-1 -8 -4.5 -23.5t-4.5 -23.5q-1 -4 -6 -29q0 -3 -2 -8t-2 -8 q-1 -13 -10 -48q-1 -6 -4.5 -21t-5.5 -22q-2 -8 -7.5 -27.5t-7.5 -27.5q-4 -18 -15.5 -59t-16.5 -64q13 -59 34 -143l13 -49l24 -111q8 -37 37 -151q1 -6 4 -15l4 -12q8 -25 13 -57q3 -31 10 -43q0 -1 1 -4t1 -5q2 -4 2 -18q0 -2 1 -6.5t1 -7.5q0 -9 -9 -16.5t-18 -10.5 t-10 -2l8 -2q-10 -4 -14 -4h-1q-4 0 -24 6q0 2 -2 2l-4 2q-19 16 -24 41q-1 7 -3 17t-3 12q-1 5 -4.5 15t-4.5 15l-10 37l-10 41q-10 26 -16 72q-11 26 -17 63q-3 19 -7.5 48.5t-6.5 38.5q-6 37 -8 47q-2 -8 -2 -21q-8 -68 -15 -94q-1 -4 -3 -16.5t-3 -16.5t-3 -13t-3 -13 q-4 -16 -4 -23q-9 -39 -10 -47q-2 -13 -7.5 -37.5t-7.5 -34.5q-1 -8 -8 -49.5t-12 -64.5q-8 -13 -25 -23q-17 -8 -31 -8q-12 0 -20 6q-22 8 -23 26.5t7 32.5q0 1 1 4.5t1 4.5l10 45q7 28 12 67q1 6 4 19.5t4 19.5q2 11 17 80q5 35 6 41q3 9 8 37l8 41q4 18 6 28q7 21 7 33 q12 79 30 182q-5 16 -10 58q-1 5 -3 17.5t-3 17.5v-2l-25 114q-2 10 -7 32t-7 32q-2 7 -5 22.5t-5 22.5l-17 96q-3 15 -9 48t-9 46q-11 44 -21 97q-1 4 -3 17t-3 17z" />
<glyph unicode="y" d="M-10 1415q8 18 36 18q2 0 4 -1q32 -1 42 -21q13 -26 28 -78q6 -18 6 -24l15 -45l14 -54q1 -4 4 -13t4 -13q1 -3 4.5 -11.5t4.5 -11.5q9 -20 16 -53q1 -2 6.5 -19.5t7.5 -23.5q7 -19 21.5 -59t21.5 -58l8 -20q3 6 3 12l22 72q8 38 14 49q7 18 9 31q3 6 6 18q4 16 4 18 q8 36 12 52q1 3 4 11.5t4 14.5l15 45v-2q0 1 1 4t1 4q10 42 12 46l6 30l12 31q0 1 1.5 4.5t3 9t2.5 8.5q2 4 2 11q8 27 26 35q10 5 20 5q12 0 25 -8q23 -14 27 -30v-2v-5q0 -15 -10 -36q-2 -4 -2 -8q-1 -3 -3.5 -7.5t-3.5 -7.5q-6 -12 -6 -18q-1 -4 -3 -12.5t-3 -12.5 q-7 -41 -14 -55q-2 -7 -5.5 -19t-4.5 -14q-4 -8 -4 -10q0 -1 -1.5 -4t-1.5 -4q-4 -15 -10 -35q-4 -4 -4 -10q-8 -33 -10 -43q-2 -7 -8 -21.5t-9 -25.5q-4 -8 -4 -17q-2 -5 -7 -18.5t-7 -18.5q0 -8 -2 -12q0 -2 -2.5 -12t-3.5 -13q-18 -47 -21 -53l-6 -18q-2 -5 -8.5 -22 t-7.5 -21l-4 -8l-8 -21q0 -92 4 -190q4 -122 4 -187v-53q0 -9 -1 -27.5t-1 -27.5q-2 -39 -2 -109v-186q-1 -21 -17 -31q-14 -7 -29 -7h-6q-18 2 -28 11q-12 10 -12 41v342q0 99 2 148v12q0 3 -1 9t-1 9v33q0 32 -3 66v133q-7 26 -14 39q-1 2 -2 5t-2 5l-8 20v-2q-1 2 -2 6 t-2 5q-7 11 -15 36q-1 3 -5 13.5t-5 13.5q-2 4 -6 16.5t-6 16.5q-18 44 -19 55q-4 6 -18 49l-6 19q0 1 -10 26l-19 64l-12 37q-14 52 -35 106q-6 15 -8 23q-9 29 -9 46q0 9 3 15z" />
<glyph unicode="z" horiz-adv-x="387" d="M0 49q0 27 6 43q4 10 12 41q5 15 7 27q2 14 24 139q2 13 7.5 36t6.5 30q1 4 3.5 13t3.5 13q4 16 4 23l28 121q1 7 4.5 20t4.5 20q5 29 16 80q0 2 1 7t1 8q3 36 14 73q5 22 11 33q1 7 5 23.5t5 23.5q2 10 6 17q4 12 4 18l23 92l6 39l22 80l4 16t4 19q3 24 9 41q6 29 14 80 l4 18q11 46 12 47q1 3 3.5 12.5t3.5 12.5q10 30 10 37q-3 1 -12 1q-18 0 -60 -3h-117q-28 0 -28 49q1 24 11.5 29.5t35.5 5.5h22q6 0 13 -1l8 -1h53q4 0 16.5 1t20.5 1h70q20 0 32 -4t23 -24q9 -15 9 -38q0 -6 -1 -14q-2 -13 -7 -32.5t-7 -27.5l-13 -61q-1 -8 -4 -23.5 t-4 -19.5q-2 -8 -5 -22.5t-5 -22.5q-8 -42 -21 -92q0 -13 -4 -25q0 -1 -1 -3t-1 -3q-2 -4 -2 -14q0 -8 -16 -62q0 -2 -1 -8t-1 -8l-10 -43q-11 -42 -21 -86l-14 -56l-17 -57q0 -8 -2 -10q0 -1 -1 -3.5t-1 -4.5q-4 -36 -12 -60q-5 -33 -12 -49q-10 -20 -15 -57q0 -5 -6 -33 t-10 -39q0 -4 -2 -12t-2 -12l-23 -89q-4 -4 -5 -11.5t-1.5 -18.5t-1.5 -15q0 -16 -4 -28q0 -15 -6 -39l-18 -90q0 -10 -5 -25v-2q40 0 60 2h10q7 0 21 1t20 1h37q40 0 72 -4q13 -3 22 -20.5t6 -36.5q-1 -13 -5.5 -19t-8 -7.5t-14.5 -2.5q-1 0 -4 -1t-5 -1h-69q-3 0 -9.5 -1 t-9.5 -1h-65q-5 0 -16 -1t-17 -1q-16 -1 -30 -1q-36 0 -62 7q-37 16 -37 45z" />
<glyph unicode="{" horiz-adv-x="335" d="M23 627q0 28 20 43q4 0 4 4q9 9 18 38t9 60q-2 136 -6 227q-5 93 -5 119q0 91 5 125q9 81 65 143q21 21 49 35h-2q7 4 34.5 8.5t47.5 4.5q17 0 22 -17t5 -49q0 -4 -1 -7.5t-2.5 -5.5t-5 -3.5t-5.5 -2t-7.5 -2t-7.5 -1.5q-2 -1 -7 -2.5t-7 -2.5q-32 -8 -47 -20 q-13 -11 -20.5 -31t-10 -33.5t-6.5 -46.5q-6 -40 -6 -90q0 -5 1 -15t1 -15v-29q0 -5 1 -16t1 -17v-33l4 -135q4 -54 4 -92q0 -37 -10 -68q-9 -31 -39 -61q34 -30 51 -76q29 -65 25 -162q0 -24 -5 -69q0 -3 -1 -13t-1 -14q-4 -46 -4 -65q0 -4 1 -14t1 -15v-29q2 -18 2 -67 v-17q3 -64 13 -94q11 -15 35 -29h12q42 9 57 -20q19 -56 -51 -66q-42 0 -80 13q-21 7 -41 30q-9 9 -20 35q-17 33 -17 119q0 33 -2 45v43q0 7 -1 25.5t-1 29.5q0 28 4 68q0 4 1 16.5t1 16.5q4 50 4 69q4 92 -18 148q-1 2 -3 5t-3 5q-18 35 -29 41h-4q-17 10 -22 29z" />
<glyph unicode="|" horiz-adv-x="331" d="M111 764v254q4 60 6 258q0 17 -2 31q0 2 -1 4.5t-1 3.5v139q0 29 3 38t15 15q29 12 51 6.5t27 -24.5q6 -45 6 -201v-106q0 -31 -4 -129q-4 -66 -4 -90v-236q4 -36 4 -86q0 -43 -2 -66q0 -74 4 -98q2 -25 2 -80v-28q0 -5 -1 -14.5t-1 -14.5v-27q0 -36 2 -59t2 -72 q0 -47 -2 -63v-49q-2 -10 -2 -25v-31q2 -26 -2 -69v-49q0 -2 -1 -10t-1 -11v-131q0 -17 2 -27v-20q5 -47 -4 -66q-8 -19 -30.5 -25.5t-42 6.5t-19.5 44q1 8 -2 47v285q0 59 2 82v196q2 39 2 135q0 95 -4 136v59z" />
<glyph unicode="}" horiz-adv-x="342" d="M27 1368q-19 56 51 66q42 0 80 -13q21 -7 41 -30q9 -9 20 -35q17 -33 17 -117q0 -33 2 -47v-43q0 -7 1 -26t1 -29q0 -26 -4 -66q0 -4 -1.5 -16.5t-1.5 -16.5q-4 -50 -4 -131q-4 -87 19 -145q1 -2 3 -5t3 -5q18 -35 29 -41q2 -2 4 -2q17 -10 22 -29q0 -31 -20 -41 q-4 0 -4 -4q-9 -9 -18 -38t-9 -60q2 -131 6 -195q4 -46 4 -94q0 -141 -4 -172q-9 -84 -65 -146q-20 -18 -49 -32h2q-7 -4 -34.5 -8.5t-47.5 -4.5q-27 0 -27 64q0 4 1 7.5t2.5 5.5t5 3.5t5.5 2t7.5 2t7.5 1.5q2 1 7 2t7 2q31 8 47 21q13 12 20.5 32.5t10 34t6.5 46.5 q6 40 6 137v30q0 5 -1 15.5t-1 15.5v33q0 6 -1 17t-1 16l-4 73q-4 58 -4 95q0 33 10 67q13 34 39 60q-34 30 -51 77q-29 65 -25 160q0 95 4 131q0 3 1 13t1 14q4 46 4 63v29q0 5 -1 15t-1 14q-2 18 -2 69v17q-3 67 -12 92q-11 15 -35 29h-12q-42 -9 -57 20z" />
<glyph unicode="~" horiz-adv-x="604" d="M80 602q3 16 24 37q36 27 54 35q20 6 32 6q22 0 58 -8l14 -4h-2q1 -1 4.5 -2t9 -3.5t9.5 -3.5q10 -5 43 -16q1 0 3 -1t3 -1q9 -6 24 -6q36 0 68 27q23 13 41 24q10 6 29 -8t20 -33q2 -35 -10 -43q-57 -32 -62 -35q-44 -22 -82 -22q-31 -2 -81 22q-3 1 -9.5 4t-9.5 4 q-2 1 -6 2.5t-6 2.5q-25 10 -33 10q-24 0 -37 -8q-2 -2 -6 -5.5t-6 -5.5q-22 -18 -35 -16q-21 1 -37 18.5t-14 28.5z" />
<glyph unicode="&#xa1;" horiz-adv-x="346" d="M111 549q-3 18 4 35q-4 18 0 32v7q0 1 1 4.5t1 5.5q-2 12 -2 45q0 32 20 61q23 9 58 9l14 -9q27 -34 20 -69q-11 -56 -2 -105q7 -31 2 -98v-23q0 -5 -1 -13.5t-1 -12.5v-19q2 -2 2 -10v-313q0 -6 -2 -10q4 -54 4 -95v-10q0 -2 -1 -4.5t-1 -3.5v-21q0 -14 2 -24v-17 q0 -3 1 -7.5t1 -6.5q2 -25 -2 -63q-2 -16 -2 -50v-45q4 -28 4 -47q2 -25 -9.5 -46t-37.5 -21q-37 4 -49 26v-2q-8 11 -8 49v31q-4 12 -4 23v14q0 6 -2 14q0 1 1 5t1 6v10q3 6 0 16l-4 13q6 35 6 94v12q0 2 -1 4.5t-1 5.5q-2 10 -2 43q0 9 4 15q0 6 -2 21.5t-2 21.5 q-4 24 -4 43v86l-2 6q2 25 2 102v51q0 1 1 5t1 6q0 49 -2 82v18q-2 4 -2 20v11q0 2 1 6t1 6v12q0 13 -4 45v-2q-2 8 -2 25zM115 897q2 10 2 23q0 6 -2 14q-7 54 2 84q9 17 35 18.5t47.5 -10.5t21.5 -29q0 -24 -2 -32v2q-4 -28 -4 -41q0 -9 4 -29v-10q0 -1 1 -5t1 -8 q4 -20 4 -38q0 -24 -35 -33l-8 -2q-41 -14 -65 33q-6 28 -2 63z" />
<glyph unicode="&#xa2;" horiz-adv-x="581" d="M68 549v117q0 62 8 168v12q0 3 1 9t1 9q0 32 4 78q0 1 1 5t1 5v11q2 31 12 88q0 1 1 4t1 4l6 41q0 8 2 12q0 7 5 12q1 4 3 17.5t3 17.5q4 29 10 45q20 62 39 92v-2q13 29 70 86q12 9 20 11q0 16 2 26t2 29q4 40 4 70q14 14 47.5 16.5t48.5 -14.5v-109h9l8 -2h6 q9 0 25 -10l-2 2l10 -6q74 -38 41 -82q-23 -26 -60 -8q-8 4 -12 8q-3 2 -12.5 6t-12.5 6l-4 4v-74q0 -6 1 -18t1 -18v-31q0 -35 -4 -51q0 -2 -1 -7t-1 -8t-1 -8t-1 -8q-4 -20 -4 -43q2 -37 2 -133v-51q0 -9 1 -26.5t1 -25.5q0 -53 -4 -151v-123q-4 -86 -4 -141q0 -51 2 -74 v-12q0 -1 -1 -3.5t-1 -3.5q0 -102 -2 -131q-2 -39 -2 -94q14 4 27 10v-2q3 2 10 8.5t10 8.5q9 6 25 22q18 9 30 13q20 5 29.5 1.5t22.5 -16.5q15 -15 17.5 -28t-7.5 -24t-19.5 -17.5t-27.5 -16.5q-1 -1 -3 -2t-3 -2l-9 -4l-16 -10q-20 -20 -49 -25l-25 -8q-10 0 -14 -2v-141 q-10 -11 -44 -11t-46 11q-9 44 -4 106v41l-21 10l-10 4q-4 1 -12.5 5.5t-12.5 5.5q-15 6 -30 23t-21 34l-6 18v-2q-6 9 -10 37q0 2 -1 6.5t-1 6.5q-7 20 -11 26q-10 23 -10 41q0 1 -1 3t-1 3q-2 14 -2 54q-4 50 -8 77q-1 6 -2 20t-2 21q-9 75 -12 152zM168 514l2 -68l6 -67 l4 -60q3 -46 5 -71t11 -60t23 -61v-4q19 -19 27 -25q2 26 2 162v84q0 2 -1 4.5t-1 3.5q0 25 2 33v121q0 2 1 6t1 6v12q2 43 2 134q0 7 1 21.5t1 21.5v63q0 1 -1 3t-1 3q0 80 2 121v59q0 12 1 34.5t1 29.5q0 25 -2 39q0 4 1 12t1 12v172q-4 -4 -4 -8q-17 -20 -37 -76 q-1 -3 -3 -14t-3 -14q0 -1 -1 -4t-1 -4l-6 -25q-2 -4 -2 -10q-7 -27 -9 -43q-4 -56 -8 -70q0 -1 -1 -4t-1 -4v-8q0 -17 -4 -49l-3 -46l-3 -53v-18v-14q0 -95 -2 -138v-139z" />
<glyph unicode="&#xa3;" horiz-adv-x="581" d="M29 743q6 11 13 16.5t11.5 6t13.5 0.5h3h12q10 2 41 2q-6 6 -6 16q-1 2 -4 6.5t-4 6.5l-11 22q-14 28 -14 33q-1 3 -5 12.5t-5 12.5v-3q-19 30 -19 62q0 17 -8 49l-4 37q0 14 -2 22q-8 87 -6 138q4 70 10 98q12 41 37 66q1 2 5.5 10t6.5 10l15 20q51 64 104 64q3 0 8.5 1 t7.5 1h13q11 2 30 1.5t29 -3.5q24 -5 66 -37q21 -18 32 -39l4 -16l3 -4q4 -15 6 -17q10 -20 10 -47q0 -31 -4 -67v-15q0 -3 -1 -9t-1 -9q0 -27 -21 -39l-12 -4q-17 0 -34.5 6.5t-20.5 17.5l2 -2q-14 23 -6 54q4 8 4 14q4 16 4 29q-1 4 -3 16t-3 16q0 13 -4 17q-9 9 -9 16 q-3 3 -9 10.5t-9 10.5l-27 18q-29 0 -53 -14v2q-16 -11 -16 -12q-4 -2 -9 -7q-3 -3 -7.5 -6.5t-7 -6t-3.5 -5.5l-8 -6l-2 -2q-10 -20 -15 -25l-6 -10l2 2q-5 -21 -8 -37q-8 -36 -8 -76v-24l-2 -8v-9q0 -3 1 -10t1 -10q2 -8 2 -25v-20q0 -11 2 -17q0 -8 4 -20l4 -23 q0 -12 2 -18l4 -20q2 -8 11 -41q2 -5 6 -17.5t6 -17.5q1 -2 3 -8.5t3 -8.5l16 -36l7 -15l10 -31q5 -14 10 -22h37q2 0 6 -1t6 -1h21q6 0 14 2h14q3 0 11 1t12 1q1 0 4 -1t4 -1q32 -8 45 -27q2 -12 -2 -30q-5 -17 -8 -19q-18 -33 -82 -20q-8 2 -20 2h-25q0 -2 2 -4l4 -17 q2 -6 6 -20.5t6 -20.5l2 -14q3 -10 10.5 -34t10.5 -34q1 -3 2 -7t2 -9t2 -8q0 -8 2 -10v2q2 -5 2 -15q0 -2 1 -3.5t1 -4.5q8 -40 8 -74q0 -38 -8 -100q-1 -10 -3 -36t-3 -36q-6 -9 -6 -14q0 -12 -2 -18q0 -5 -4 -17q-5 -22 -10 -31q0 -1 -1.5 -2t-1.5 -2q0 -8 -4 -12v-4 q24 3 52 0l14 -4l8 -4q13 0 21 -4l18 -6l14 -7q6 0 15 -6l-2 2q28 -12 41 -10q19 2 49 21v-3q44 29 78 5q12 -14 11.5 -36.5t-20.5 -33.5q-6 0 -16 -10l-16 -8l-41 -15q-24 -14 -66 -14q-6 0 -18 4q-4 2 -15 2l-43 14l-30 13l-33 12q-13 7 -39 -2l-16 -8h2q-22 -13 -25 -13 q-17 -14 -41 -14q-33 8 -41 33l2 -2q-12 19 10 45v4q1 2 19 20q8 17 12 17q0 1 1 4t1 4q12 32 19 72q0 10 2 14t2 10l10 47v11q0 2 1 7t1 7l6 59v21v31v18q-7 35 -22 94q-5 18 -9 45q-10 35 -14 45q-2 5 -8 29q-2 5 -4.5 17.5t-5.5 21.5q-9 0 -13 -2q-1 0 -4.5 -1t-5.5 -1 q-55 -10 -80 8l2 -2q-12 7 -22.5 28t-3.5 37z" />
<glyph unicode="&#xa5;" horiz-adv-x="487" d="M2 727q2 17 11 26.5t18 11.5t28 3h86h5q-5 10 -5 12q-1 3 -3 11.5t-3 11.5q-4 12 -4 24v9q-2 2 -2 4q-1 4 -3 13t-3 13l-4 33l-4 33q-1 3 -3 13t-3 13q-5 26 -15.5 80t-15.5 80q-2 9 -6 32t-6 32q-6 27 -15 57l-22 80q-1 5 -5 15.5t-5 11.5q-23 53 -3 75q27 34 78 -10 q21 -53 25 -80q0 -1 1 -4t1 -4q1 -6 5 -23t5 -26l4 -10v2q11 -22 11 -35q10 -32 18 -80v-2v2v-2q2 -11 7.5 -31.5t6.5 -23.5v-11q4 -8 4 -10q1 -4 3.5 -16.5t3.5 -16.5l4 -32q9 -28 18 -76l2 -29l2 4v-2q0 1 2 4t2 4t1 4.5t1 4.5q0 2 1 7.5t1 6.5q5 16 17 41l12 27 q11 34 20 69l19 53q2 9 6 29t6 29q0 4 4 16q0 11 8 27l13 28q8 21 12 35q16 37 18 62q6 12 9 24v-2q0 1 1 3t1 3l4 19q3 16 20 33q10 10 29 10l12 -4q4 -4 6 -4q24 -12 37 -29q-5 -36 -20 -66q-3 -12 -10 -26q-1 -16 -23 -70l-12 -37q-23 -62 -37 -129q0 -1 -8.5 -27.5 t-12.5 -41.5q-4 -11 -8 -29l-14 -29l-12 -30l-7 -13q-2 -2 -2 -8l-6 -18q-1 -2 -6.5 -19.5t-7.5 -23.5q-17 -28 -27 -68h119l12 -8q22 -13 27 -33q-6 -41 -27 -51q1 0 17 -4q23 -8 35 -39q-7 -25 -26 -36.5t-35 -12.5t-46 0q-3 0 -8.5 1t-7.5 1h-62q-2 0 -8 -1t-10 1v-27 q0 -7 -1 -18t-1 -15q0 -5 1 -15t1 -15v-29q0 -5 1 -16t1 -17v-65q0 -5 -1 -16t-1 -17q-2 -33 -2 -96v-195q0 -1 1 -3t1 -3v2q3 -14 -12 -29q-10 -11 -32.5 -14t-43.5 8q-13 26 -10 68q0 2 1 6t1 6v504q-16 2 -54 -2q-1 0 -4 -1t-4 -1q-48 0 -76 12q-4 8 -4 12q-11 15 -4 37 q3 25 25 31q-29 14 -29 47z" />
<glyph unicode="&#xa6;" d="M111 57q0 3 1 14t1 17v29l2 119q0 28 2 38q0 2 1 8t1 9v16q0 27 -2 47q-4 36 -2 54q32 36 73 24q16 -8 21 -22q0 -7 4 -13v-10q0 -2 -1 -5.5t-1 -4.5v-15q7 -17 2 -65q-1 -20 -3 -67t-3 -66v-12q-5 -100 -8 -125l-2 -9q-11 -14 -35.5 -17t-42.5 5q-13 23 -8 51zM111 995 q0 3 1 14t1 17v29l2 119q0 28 2 38q0 2 1 8t1 9v16q0 27 -2 47q-4 38 -2 54q32 36 73 24q18 -8 21 -24l4 -9v-12q0 -2 -1 -5.5t-1 -4.5v-12q7 -20 2 -68q-1 -20 -3 -67t-3 -66v-12q-5 -100 -8 -125l-2 -9q-11 -14 -35.5 -17t-42.5 5q-13 23 -8 51z" />
<glyph unicode="&#xa7;" d="M25 807q-6 45 16 98q0 1 2 5t2 5q4 18 12 31l9 8q7 14 8 15l10 12q-18 37 -23 53l2 -2q-10 15 -14 33q0 6 -2 10l-4 21q-1 3 -3 10t-3 10q0 6 -4 14l-4 23v16q0 17 -4 27q-2 25 8 68q1 4 3 13t3 13q8 15 8 17q4 15 12 26l7 6q5 10 8 13l6 10l4 8q18 26 43 41l27 10 q44 23 100 13q4 0 12 -2t10 -2q20 -6 35 -21q5 0 11 -6q28 -25 53 -80q19 -49 22 -98q3 -25 -2 -72q0 -24 -10 -41l2 2q-11 -28 -37 -37q-15 -4 -37 6q-18 18 -18 43q0 9 4 25q0 2 1 6t1 6v13q4 24 4 28q0 3 -4 19l-6 37q-9 55 -51 81h2q-30 7 -49 -4q-21 -12 -33 -20 q-8 -8 -10 -12t-13 -15q17 23 13 22q-3 0 -13 -9q-12 -58 -12 -76q0 -32 8 -94q0 -2 1 -5.5t1 -5.5v-12l4 -8v2q16 -55 31 -90l6 -15l4 -8q13 -13 13 -20q6 -6 6 -13l-2 3l24 -37q8 -8 8 -19q0 -1 3 -4l14 -29q2 -4 6 -8q26 -31 61 -119q14 -35 39 -83l11 -25q2 -4 7 -17.5 t8 -19.5t3 -2q22 -56 45 -135l8 -31l6 -31l5 -28q6 -41 6 -105q0 -44 -4 -102q0 -44 -13 -60q-4 -10 -6 -16q0 -8 -2 -12q1 -2 2 -7t2 -8q3 -15 6 -24l4 -25l5 -26q6 -43 6 -105q0 -40 -4 -102q0 -44 -13 -60h2q-4 -8 -4 -12q-3 -15 -12 -31l-18 -20q-8 -8 -11 -14l-22 -19 q-10 -15 -27 -22q-53 -16 -98 -11q-65 10 -86 33t-34 57.5t-13 65.5q0 9 -4 25q-5 20 -5 32v33q0 2 1.5 5t1.5 5v29q0 33 18 51q22 13 37 6q19 8 43 -16q2 -29 -2 -70q-4 -39 2 -59v-12q0 -2 1 -7.5t1 -7.5q0 -8 4 -20q5 -21 23 -53q32 -18 57 -6q12 6 18 6q1 1 2 3t2 3v6 l15 14q3 4 11 14.5t11 14.5l-2 -2q2 4 6 39v14v12v13l4 53q3 82 -16 158l-8 24q0 7 -4 11q-8 13 -2 28q-34 98 -62 152l-16 33q-9 28 -33 71l-12 25q-12 17 -19 33q-17 20 -20 36v-2q-1 2 -2 6t-2 5q-12 24 -14 26l-17 29l-12 24q-4 14 -10 23q-5 10 -23 37q-17 33 -25 53 q-11 21 -14 35q0 1 -1 5t-1 5l-4 21q-1 3 -3 10t-3 10q0 9 -4 17l-4 20v8q0 1 -1 4t-1 4q0 17 -2 23zM129 840q0 -32 8 -90q0 -2 1 -6.5t1 -6.5v-12l4 -8v2q18 -64 29 -88l21 -41q1 -2 5 -9.5t5 -9.5q4 -8 10 -14l12 -16q8 -8 8 -19l3 -6l14 -29q2 -4 6 -8q33 -43 61 -121 q19 -44 39 -82q0 -10 4 -16q3 81 -14 152q-22 106 -84 231l-12 25q-13 32 -31 67l-12 25q-9 15 -19 35q-18 27 -20 36l2 -2l-6 11l2 -2q-1 2 -6 10.5t-8 13.5l-13 23l-4 4q-6 -27 -6 -49z" />
<glyph unicode="&#xa8;" horiz-adv-x="587" d="M68 1231v26q-2 28 26 60q19 29 82 29q14 0 39 -11q14 -9 31 -39q19 -39 0 -79q-13 -23 -33 -43q-14 -14 -25 -17q-27 -7 -55 4q-11 0 -24 10q-1 1 -6.5 5.5t-6.5 5.5q-21 13 -28 49zM317 1255q0 16 19 42.5t37 39.5q30 18 55 9l48 -27q12 -5 11 -2q1 -1 2.5 -1.5l3 -1 t1.5 -1.5q18 -18 20 -58q0 -18 -4 -30q0 -1 -1 -4t-1 -4q-4 -5 -8 -15q-8 -24 -23 -33v2q-16 -16 -57 -16h-14q-21 0 -52 25q-23 23 -26 37q-11 19 -11 38z" />
<glyph unicode="&#xa9;" d="M45 881q0 13 6 28q0 1 1 5t1 6v20q0 41 2 57q0 15 2 19q0 12 4 20v13q0 18 2 24v10q8 141 19 217q7 46 22 77.5t48 49.5l-2 -2q21 16 63 19q10 0 16 2q47 8 111 -21l14 -14v2q8 -4 23 -29l6 -14l6 -12q5 -15 12 -29q15 -49 15 -115v-36q0 -42 2 -62q4 -63 2 -92 q0 -45 -2 -63q0 -7 -1 -29t-1 -29q-4 -78 -4 -112v-78q-4 -82 -4 -123q0 -10 -1 -31t-1 -33q0 -24 -5 -127l-8 -92q0 -25 -2 -33q0 -3 -1 -11.5t-1 -10.5v-23q-4 -101 -14 -129q-8 -40 -23 -59q-1 -1 -3 -2t-3 -2q-17 -17 -41 -29q-35 -15 -94 -12q-18 4 -27 8q-12 4 -16 4 l-37 37q-18 27 -29 49q-8 10 -14 23q-33 96 -33 147v10q0 4 -1 21.5t-1 28.5q-2 23 -2 61v23q0 2 1 5.5t1 6.5q-6 48 -2 117v170q0 3 -1 7.5t-1 8.5q-2 10 -2 43v65q0 1 1 7.5t1 13.5q0 1 -1 3.5t-1 4.5q-2 6 -2 21zM147 344q3 -15 3 -31q-4 -44 18 -155q22 -39 31 -52 q1 -1 3.5 -2.5t4.5 -3t2 -2.5l4 -8q1 0 2 -1t2 -1l12 -2q4 -4 9 -4q10 -3 28 6q2 2 6.5 7t6.5 7l6 15q0 1 1 2.5t1 3.5q6 34 10 100q0 23 2 33t2 29q0 3 1 10t1 10v19v12v-2l-6 -8q-11 -18 -35 -21q-20 -8 -51 0q-1 0 -4 1t-4 1q-38 12 -56 37zM156 1128q0 3 2 5 q13 20 51 49q4 -4 29 8l10 4q6 0 12 -2v2q19 0 31 -6q4 -4 6 -4l14 -8l11 -11l4 -4q-2 6 -2 17v20q0 29 -2 43q-8 90 -31 117q-15 6 -41 6q-21 0 -53 -12q-21 -28 -27 -64q-8 -50 -12 -145q-2 -2 -2 -15zM203 836q0 -38 2 -58q0 -4 1 -13.5t1 -14.5v-45q0 -3 -1 -8.5 t-1 -8.5v-55q0 -35 8 -109q0 -2 1 -8.5t1 -9.5v-39q0 -39 14 -64q0 16 29 31q26 22 45 8l8 -8q4 70 6 109q2 51 2 178q0 29 5 172q0 10 1 30t1 29q4 74 4 109q0 27 -2 43q-20 -15 -35 0q-2 2 -4 2l-15 4l-4 4q-31 -14 -43 -70q-16 -66 -18 -98q0 -30 -4 -76q0 -3 -1 -9.5 t-1 -10.5v-14z" />
<glyph unicode="&#xaa;" horiz-adv-x="518" d="M45 408q0 8 1 24t1 23v110q0 2 1 6.5t1 6.5v32q0 68 14 123q7 21 7 29q0 22 18 53q0 2 4 14q5 16 10 23q2 5 10.5 13.5t10.5 11.5l18 18q3 6 13 16q1 1 8 17q10 2 18 10l13 10q16 8 18 10q25 3 41 11h33q25 0 39 -6v61q0 36 -5 109q-2 14 -2 53v22q0 4 -1 13t-1 14 q0 2 -1 6t-1 6l-4 27q-4 10 -4 31v10q-2 0 -2 4q-1 4 -4 10t-4 10l-8 13q-27 0 -31 -4q-6 -6 -14 -29q0 -2 -2 -6t-2 -6v-23q0 -1 -1 -2.5t-1 -3.5q0 -17 -3 -29q-2 -4 -2 -14q-4 -49 -36 -66q-20 -3 -42 10.5t-28 32.5q-8 23 4 68q0 10 2 12q2 4 2 11l8 24q9 27 9 33 q0 19 26 45q9 12 35 27l27 10l16 4q34 3 53 -6h6q7 0 11 -4q2 0 7.5 -1t6.5 -1q32 -23 55 -58l10 -24q11 -20 11 -58l-2 -30q5 -40 10 -174v-54q4 -99 2 -151v-144q0 -10 0.5 -26.5t0.5 -30t-1 -25.5q-4 -78 -2 -118q0 -1 -0.5 -3t-1 -6.5t-0.5 -9.5q0 -1 1 -2.5t1 -3.5 q2 -8 2 -31q0 -39 2 -59q3 -82 -4 -178q0 -29 -2 -31v2q-4 -46 -4 -76q0 -5 1 -11t1 -7v-70q3 -32 -19 -47q-13 -10 -28.5 -7.5t-26.5 9.5t-18 15q-8 12 -9 14l-6 -6q-17 -23 -49 -35q-30 -12 -55 -12q-79 0 -115 51q-17 31 -20 67l-4 17q-1 4 -3.5 16.5t-3.5 16.5 q-6 24 -6 67v8q0 1 -1 3t-1 4q-2 4 -2 22q-6 64 -6 150zM139 406q0 -108 17 -201l4 -31q8 -74 28 -90q6 -6 33 -2h-2q20 7 35.5 24.5t21.5 36.5q7 21 19 37q0 4 4 8l6 9q2 2 2 6q0 18 6 33q0 12 6 24q0 17 9 35v8q3 87 -4 191q-3 65 4 127q4 50 4 90q0 39 -8 75v-2 q-4 4 -9 35q0 2 -1 5.5t-1 4.5q0 2 -1 5t-1 4q-1 4 -6 16q-8 18 -6 18q-1 1 -6 2.5t-6 2.5h-15q-1 0 -22 -7q-1 -1 -3 -2t-3 -2l-43 -39q-4 -6 -23 -49q-20 -61 -26 -129q-13 -156 -13 -243z" />
<glyph unicode="&#xab;" horiz-adv-x="542" d="M2 608q0 31 21 49l12 13q11 18 26 37q2 2 2 4q4 8 13 14q6 6 6 10q1 1 3.5 6.5t4.5 8.5q27 28 23 26q1 1 3 4t3 4l6 7l8 10l-2 -2q1 2 5 7t5 7q1 0 13 18q2 2 8 8.5t8 8.5q5 13 14 22l6 7q12 11 13 16l20 29q7 15 10 24q27 24 37 41v-2q1 2 6.5 11.5t6.5 11.5 q11 19 41 41q36 -9 57 -39l4 -11q0 -22 -8 -30q-2 -2 -2 -8l-15 -23h2q-7 -13 -20 -20q0 -3 -4 -7q-8 -12 -10 -14l-6 -10l2 2q-1 -3 -5.5 -9.5t-5.5 -9.5q-1 -1 -3 -4t-3 -4q-17 -23 -33 -37q-37 -52 -96 -118q-4 -4 -4 -11q-2 -2 -2 -12q-15 -11 -27 -29q-1 -1 -2 -3 t-2 -3l2 2l-6 -12l-6 -8q-2 -4 -8 -10q-2 -2 -2 -5l-10 -8l24 -22q4 -21 19 -43l6 -8l14 -29l12 -31q7 -15 23.5 -46t23.5 -46q1 -2 4.5 -6t4.5 -6l26 -47q1 -2 5.5 -8.5t5.5 -8.5q29 -37 24 -74q-16 -20 -46 -21t-42 11l-18 27q-9 9 -9 12q-4 12 -4 25q-2 4 -8.5 14 t-7.5 12l-8 13q-8 5 -8 20q-1 2 -4.5 6t-4.5 6q-2 3 -6.5 12l-10 20t-11.5 24l-27 53q9 -47 9 -54q0 -5 -3 5q-3 8 -14 43l-17 53l-4 12q-7 7 -14 21q-2 4 -4 4q-37 26 -39 57zM168 604q4 18 25 39q6 6 8 12l22 29q9 6 15 18q44 51 88 123l36 56h-2q11 19 15 28v-2 q18 31 26 43q3 3 7 11q4 4 4 6q12 20 39 47q46 -15 59 -47l2 -13q-2 -21 -29 -57q-1 0 -4 -10q-2 -2 -2 -23h-14l-4 -8t-4 -10q-2 -3 -6.5 -9.5t-6.5 -9.5l2 2q-1 -2 -4 -6t-4 -6l-20 -29q-2 -3 -7.5 -11t-7.5 -11l2 2q-2 -4 -7 -12.5t-7 -12.5l-14 -24q-1 -1 -2 -3t-2 -3 q-4 -4 -4 -8q-25 -39 -68 -89l-4 -8q-4 -8 -8 -10l-4 -8l-2 -4q7 -18 14 -25q6 -6 6 -10l16 -25q4 -15 27 -49h-2q1 -1 4 -5t4 -5l23 -39l2 -10v2q6 -12 10 -14q9 -23 43 -74q8 -8 8 -10q22 -22 19 -60q0 -2 -2 -10t-2 -10q-22 -14 -40.5 -13.5t-29 7.5t-27.5 24l-10 25 l-2 10q-3 4 -11 16.5t-12 16.5q-15 18 -28 45q-12 15 -12 26q-1 3 -11 23l-2 4l-8 16q-12 12 -12 25q-2 3 -8.5 13.5t-8.5 13.5q-14 23 -14 24q-2 3 -7 12.5t-7 12.5q-1 1 -2 2.5t-2 2.5t-2 1l-7 6q-18 18 -20 49z" />
<glyph unicode="&#xac;" horiz-adv-x="524" d="M-18 1425q0 17 22 17h23h6h39h55h6h14q15 0 21 -2q7 0 10 -8v-11q0 -14 -8 -16q-12 -2 -49 -2h-8h-11v-10v-13v-34q0 -25 2 -35v-35q0 -14 1 -49t1 -51q0 -20 -1 -58.5t-1 -56.5v-19v-8v-61v-29v-67q0 -23 -2 -31q-1 -7 -12 -10t-20 2q-11 9 -11 61v4q4 24 4 84v14v29v31 q3 43 3 94v25v30v29v8q0 1 -1.5 3.5t-1.5 4.5v19q-2 10 -2 35v34v43v17h-57q-8 1 -11.5 2.5t-7 6.5t-3.5 13zM205 1065v16v15v14q0 31 2 43q0 3 -1 15t-1 14v39v114q0 45 4 95q2 8 13.5 12t21.5 0q10 -3 18 -19q1 -8 3 -25.5t3 -25.5l2 -18q0 -9 4 -29v-4q5 -10 5 -21 q3 -15 8 -65v-10q4 -34 8 -51q6 -36 6 -39q2 -7 5 -24t5 -24q3 -15 6 -36q0 -11 2 -17l7 -35l4 -22v-6q2 -4 2 -17q0 3 1 11.5t1 11.5q4 24 4 31q0 6 1 14t1 10l2 2l4 21q0 1 1 7t1 7q4 12 4 18q0 1 1 6t1 7l4 12l7 27q0 3 1 9.5t1 8.5q2 4 2 12q0 13 4 25q0 13 6 25 q0 4 4 16l2 10q0 3 6 27q0 8 4 20q1 5 3 15.5t3 15.5q1 6 5 15l4 10q0 8 4 12q4 20 4 31q0 10 2 16v8q-4 17 10 25q10 5 19 2t14 -10q9 -11 4 -25v-170v-96q0 -2 -1 -6t-1 -5q0 -5 -0.5 -13.5t-0.5 -15t1 -11.5v-7q2 -2 2 -6l-2 -6v-61q0 -43 2 -66v-12l-2 -4v-10l2 -3v-4 v-26q0 -1 1 -5t1 -6v-12q0 -18 -14 -26q-21 -4 -27 2t-6 18v21v10q2 8 2 18v39q0 2 -1 5t-1 5v17q0 2 1 7.5t1 8.5v12v13v14v12q-2 25 -2 78q0 51 2 76v10v8v13v8q-1 -3 -2 -7.5t-2 -6.5q0 -7 -2 -17q0 -6 -4 -14q0 -7 -4 -23q0 -8 -4 -24q-7 -28 -7 -43q0 -7 -4 -15 q-1 -2 -2 -7t-2 -7l-10 -55q-2 -2 -2 -8q0 -11 -2 -15q0 -6 -4 -18q0 -2 -1 -6t-1 -7q-2 -4 -2 -20q-1 -3 -2 -8t-2 -8q0 -3 -1.5 -9t-1.5 -8q0 -10 -2 -12v-23q0 -13 -6 -22v2q-7 -21 -32 -10l-3 2q-6 0 -10 10h2q-4 4 -4 16q0 5 -2 9q0 1 -1 4.5t-1 5.5l-2 20 q-1 6 -3 18.5t-3 18.5q-1 3 -6 23q0 6 -2 10l-4 39q-1 3 -2.5 10t-2.5 13.5t-2 11.5q-7 26 -10 57l-20 119v4v-6v-15v-24q-3 -9 0 -27v-63v-9v-8q2 -18 2 -65v-37v-23q3 -21 0 -41v-6q0 -4 2 -4q2 -6 1.5 -28.5t-5.5 -30.5q-10 -17 -35 -2q-4 4 -4 30v15v6v8v8v66v37v8v8v19 q0 12 -2 18z" />
<glyph unicode="&#xad;" horiz-adv-x="503" d="M29 629q9 35 41 35h8q40 0 55 -2q68 0 88 2h8q78 4 127 4q38 0 74 -4q35 -8 41 -48q1 -27 -6 -38t-25 -11q-59 0 -82 2q-103 5 -131 0h-123q-1 0 -11 1t-17 1h-23q-11 0 -17.5 19.5t-6.5 38.5z" />
<glyph unicode="&#xae;" horiz-adv-x="583" d="M41 815q0 38 7 118t7 118v26q0 98 15 113l-4 8v10q0 12 5 30t5 34q-2 2 -2 8q0 4 10 14v25q0 13 6.5 38.5t18.5 41.5l30 26q1 1 15 8t18 15l23 8h-5q18 6 33 6l19 6q12 5 51 5q35 0 88 -21l14 -10q0 -4 8 -4l-2 2q15 -8 48 -45v4q6 -7 15 -30t11 -26q29 -70 39 -130 t10 -142v-53q2 -14 2 -45q0 -29 -2 -41q4 -12 4 -17q0 -8 -2 -12v6q0 -1 -1 -2.5t-1 -3.5q6 -14 6 -53q0 -17 -4 -54.5t-4 -52.5v-16q0 -25 -2 -35l-2 -10q0 -13 -4 -37t-4 -33l2 -6l-2 -18l2 4q-5 -38 -12 -60v-10q0 -22 -1.5 -46.5t-3 -41t-1.5 -18.5v-64q0 -43 -2 -61 v-53q0 -29 -0.5 -39.5t-4.5 -32.5t-14 -55q-3 -11 -21.5 -34t-23.5 -38q-27 -40 -71 -57t-81 -17q-10 0 -17.5 1t-12 2.5t-15.5 5t-22 6.5l-14 6q-7 6 -32 23.5t-39.5 31t-19.5 27.5q-6 27 -12 45.5t-9.5 26t-6 12t-2.5 6.5q2 0 2 2t-2 4v-4q-2 14 -8.5 38t-10.5 55t-4 77 q0 79 -5 242.5t-5 242.5zM125 707q0 -13 6 -148q-2 -16 -2 -49q0 -8 4 -18v-80q0 -177 45 -310q9 -16 42.5 -39.5t72.5 -23.5q3 0 6 0.5t5.5 1t6 2t6 2.5t6.5 3.5t6.5 4t8 5t8.5 6t10 7t11 7.5q24 24 39 86l-3 -4q3 17 3.5 69.5t3.5 79.5q-2 12 -2 39q-14 -14 -43 -14 q-16 6 -23 28v5l2 -2q-3 9 -14 35t-17 44v-2q-1 4 -8.5 17.5t-13.5 30.5t-6 34l-11 30q-27 80 -38 103q0 -35 -3 -75v2q-2 -33 -2 -99q0 -14 2.5 -44t2.5 -46v-6q0 -2 1 -7.5t1 -8.5q0 -43 -43 -43q-11 0 -19.5 10t-9.5 27v49q-6 16 -6 51q0 7 1 22t1 27q-2 4 -2 12 q4 12 4 17v65q2 18 2 62q0 2 -1 6t-1 6v10v33v64v59q0 4 -1 10t-1 8v111q0 5 1 17t1 18v14q0 3 -1 7.5t-1 6.5q0 26 4 62q0 3 -2 7.5t-2 8.5q0 17 12 25.5t22 9t33 0.5h11q1 0 5.5 1t9 1t14 -2t19.5 -6.5t26 -15t34 -25.5h-2q31 -38 41 -67t10 -64q0 -95 -40.5 -150 t-86.5 -55l2 -2q-2 2 0 -3q1 -3 7 -13q18 -36 14 -37q15 -47 20 -68l6 -14q6 -6 11.5 -25.5t11.5 -25.5l4 -6q12 -60 31 -110.5t31 -68.5h2q20 215 20 281l-2 8q2 29 9 90.5t7 95.5q0 28 -3 80t-3 88v35l1 47q-5 77 -33 156h2l-5 18q-15 89 -110 97q-51 0 -90 -23 q-26 -8 -44 -98t-18 -176q0 -51 -8 -146.5t-8 -134.5v-110zM229 979q0 -150 13 -150q10 0 18.5 3t14 7t10.5 9.5t7.5 10.5t4 9.5t1.5 6.5l1 2l16 41q2 2 6.5 28t4.5 33q0 23 -10 38.5t-13 26.5l-10 15q-1 0 -4.5 3t-8.5 7t-8 6l2 -2q-16 11 -43 14q0 -16 -1 -53t-1 -55z" />
<glyph unicode="&#xaf;" horiz-adv-x="888" d="M96 1253q10 17 27 23q31 2 137 2q144 0 189 -2h108q77 -3 160 6q16 0 24 -1t18.5 -6t16 -17.5t6.5 -32.5q0 -21 -5.5 -29.5t-24.5 -9.5q-18 -4 -35 0h-125q-109 -4 -166 -2h-66q-13 0 -34.5 1t-32.5 1q-31 0 -43 -2q-3 0 -8.5 -1t-8.5 -1q-87 -9 -104 2q-42 36 -33 69z " />
<glyph unicode="&#xb0;" horiz-adv-x="571" d="M47 1161v15q-2 87 64 165l6 9q28 35 51 53q25 18 68 20h61q10 0 18 -4q1 0 5 -1t6 -1q4 -4 12 -4q29 0 59 -17t47 -44q20 -12 29 -35l2 -2q21 -25 33 -49q11 -38 8 -90q0 -17 -10 -37q0 -10 -10 -23l-25 -41l-16 -8q-6 -3 -9 -6l-2 -12q-6 -9 -24 -21l-10 -10l-11 -14 q-27 -16 -49 -19q-52 -9 -98 -2q-10 4 -23 4q-35 0 -51 10l-24 13q-19 6 -62 32h2q-12 2 -28 35v-2q-16 28 -19 86zM156 1169q0 -22 6 -43l16 -16l6 -6q4 -4 17 -4q2 -1 47 -8q2 0 6 -1t6 -1h51q19 0 41 16q24 12 27 20q1 4 5 13.5t5 13.5q1 5 5 17.5t5 17.5v49q0 19 -2 23 l-8 8q-2 2 -9 6t-9 6l-17 16q-3 7 -12 11q-8 4 -18 4q-7 0 -37 6q-32 9 -37 4q-24 -10 -33 -16t-14 -11l-6 -10h2q-43 -74 -43 -115z" />
<glyph unicode="&#xb1;" horiz-adv-x="1249" d="M94 16q-15 44 19 82q30 10 45 6h24q24 0 60 -4h12q32 -4 65 -4q82 4 142 4q149 0 217 -6q33 0 37 2q2 0 7 1t7 1q23 4 47 0q37 0 47 -2t31 -2h90q33 2 127 2h21q28 0 51 -18q0 -9 4 -15q0 -27 -19 -61q-31 -2 -102 -2h-154q-36 -4 -65 -4q-32 0 -64 4q-41 2 -151 2 q-23 0 -35 -2q-28 -4 -47 -4q-1 0 -3.5 1t-4.5 1q-27 0 -39 2t-31 2q-7 -2 -24 2q-10 -2 -41 -2q-6 -1 -22.5 -3t-22.5 -3q-33 0 -43 2h2q-33 4 -52 2h-51q-52 -12 -84 16zM440 386.5q-5 12.5 2 27.5l-2 -2q9 40 60 24q0 -2 2 -2h65q0 9 4 17v38q-5 56 4 82q16 18 31.5 19.5 t23.5 -5.5t21 -22q1 -1 5 -4t6.5 -5.5t3.5 -4.5q2 -18 2 -76v-45h14q21 0 29 -2q25 2 46 -12t21 -37q0 -25 -19.5 -36.5t-46 -10t-53.5 3.5q-2 -11 3 -31q0 -1 1 -3.5t1 -4.5v-10q5 -32 -13 -66h-14q-27 -8 -49 0h-2v-2l-27 39q8 30 4 61v-2q-2 8 -2 29h-20q-43 0 -84 21 q-12 9 -17 21.5z" />
<glyph unicode="&#xb2;" horiz-adv-x="710" d="M113 923q-9 34 28 56q5 5 25 12l84 72q8 6 23.5 18.5t23.5 18.5q36 27 45 33h-2q3 5 10 15t10 15q0 6 9 15l4 8l6 10q6 18 8 41q9 34 -4 57q-2 2 -8.5 12t-9.5 13h2q-7 7 -13 10q-1 0 -4 1t-4 1q-15 10 -18 10q-10 5 -11 5l-34 8q-17 0 -39 -11q-2 -1 -8 -3t-7 -3 q-6 0 -12 -6q-14 -4 -39 -10q-48 15 -53 55q13 23 45 37q6 6 14 10l31 7q18 4 29 8q2 0 7.5 1t8.5 1h41q12 -6 16 -6l21 -4q29 -6 65 -25l43 -45l13 -19q8 -4 8 -12v2q0 -4 6 -10q10 -13 10 -21q2 -14 2 -55v-20q0 -39 -18 -74l-18 -25l-13 -26l-14 -19q-2 -2 -12 -13 t-15 -15l-18 -13q-4 -2 -8 -6q-5 -5 -11 -8q-4 -2 -6 -4q-8 -8 -20 -14q-4 -4 -8 -6.5t-8.5 -5t-6.5 -3.5l-4 -2l-14 -14l-6 -4q45 0 55 -2q1 0 3 1t3 1h115q8 0 16 2q2 0 8.5 1t8.5 1h8q8 0 20 -4q2 0 5 -1t5 -1l29 -8q9 -3 12 -13q12 -18 13 -20q3 -16 -4 -29 q-1 -1 -4.5 -5t-4.5 -5q-30 -12 -57 -8l-4 1q-3 1 -8 1h-37q-3 0 -9 -1t-9 -1h-52q-4 0 -13 1t-13 1h-27q-4 0 -11.5 -1t-10.5 -1h-54q-53 0 -73 2q-5 -2 -7 -2q-15 -4 -28 -2q-38 8 -47 42z" />
<glyph unicode="&#xb3;" horiz-adv-x="620" d="M115 1010l10 18q23 15 53 2q6 -3 15 -12.5t14 -16.5l6 -6q9 -6 16 -6l29 -6q83 5 102 21l15 14q6 4 20 18q18 36 2 62l2 -2q-1 1 -2 5t-2 5q-1 4 -12 12q-15 5 -25 10q-15 11 -26 11q-14 2 -45 -2q-2 0 -7.5 -1t-7.5 -1l-8 -2q-20 -10 -35 -7q-23 3 -39 23h3l-7 6 q-12 20 -8 41q15 33 64 29h6q9 2 28.5 8t28.5 8q24 8 25 8l8 8q5 10 12 17q29 33 21 51q-11 8 -19 14l2 -2l-8 4q-32 20 -55 23q-25 0 -66 -18q-1 -1 -5 -3.5t-5 -3.5q-4 4 -6 4h-10q-29 12 -39 37q0 23 7 32t26 9l8 4l12 5q50 12 84 10q26 0 41 -6q3 -1 11 -3.5t11 -3.5 l21 -10l-2 2l4 -2l14 -4l25 -16q31 -31 35 -37h-2q4 -4 4 -12q0 -1 1 -3.5t1 -3.5q6 -9 6 -22v-16q0 -1 -1 -5t-1 -6q0 -30 -23 -61h2q-1 -2 -28 -29q2 -1 5.5 -2t4.5 -2l37 -37q29 -51 37 -88q-3 -58 -15 -76v2l-10 -20l-22 -29q-31 -28 -68 -41q-61 -22 -133 -12 q-30 0 -47 10l-17 4q-15 5 -36 19q-50 35 -37 80z" />
<glyph unicode="&#xb4;" horiz-adv-x="288" d="M43 1223q-3 24 14 41q6 6 13 20q1 2 7 12l9 15q16 20 20 24q14 21 17 25q10 10 14 18q1 1 4 5.5t4 5.5q12 12 17 22q2 9 10.5 18t20.5 9q49 0 51 -43q2 -31 -47 -86q-7 -9 -17 -23.5t-12 -17.5q-2 -2 -4.5 -6t-3.5 -5l-17 -26q0 -1 -1 -3t-1 -3q-12 -32 -43 -39 q-18 0 -35 9.5t-20 27.5z" />
<glyph unicode="&#xb5;" horiz-adv-x="884" d="M117 1006q4 19 24 25t40 1t26 -14h-2q16 -16 12 -51q0 -2 -1 -7.5t-1 -7.5q-2 -8 -2 -14l1 -2q1 -3 1 -8q0 -2 2 -4q2 -4 2 -21q0 -1 -1 -3t-1 -3v-14q0 -72 4 -150v-108q0 -101 2 -142q0 -3 1 -7.5t1 -6.5v-35q0 -36 8 -94v2q3 -12 3 -35q0 -3 1 -8.5t1 -7.5v-12 q0 -13 2 -23v-2q10 -49 28 -90q2 -4 8 -10q9 -18 23 -23l14 -12l13 -13q2 0 4 -2q31 -10 41 -18q59 -13 98 -2q44 13 74 39l6 6l6 6q8 4 10 6q2 3 8.5 11.5t8.5 11.5q17 21 28 84q1 3 2 9t2 9q15 67 15 201v98q0 2 1 7.5t1 7.5v12q2 6 2 22v70q0 12 2 16q0 3 1 9.5t1 9.5v20 q0 46 2 62q8 81 4 153v9q0 1 -1 3t-1 3q-4 23 2 47q13 13 49 8q23 6 43 -14q4 -66 4 -117q0 -4 1 -13t1 -14v-213q-4 -24 -4 -39v-57q0 -92 2 -127q0 -1 -1 -4t-1 -4l-2 -4q0 -80 4 -96v-23q0 -1 1 -2t1 -2q3 -9 0 -25l1 -4q1 -4 1 -8v-18q-3 -48 0 -72q5 -4 5 -10 q5 -29 2 -43q0 -11 2 -21q4 -19 0 -35q0 -1 -1 -3t-1 -3h-2q2 -4 2 -12q0 -1 -1 -3t-1 -3q0 -23 -10 -32t-38 -9q-16 0 -31.5 12t-15.5 33v72q-14 -23 -37 -37v2q-5 -4 -18 -14.5t-18 -14.5l-15 -10l2 2l-16 -12q-44 -28 -70 -31q-24 -5 -80 0q-22 0 -30 4q-6 2 -15 2 q-16 0 -41 14l-12 9l2 -2q-12 3 -24 12l-17 12q-2 2 -9 6t-9 6l-15 13q-1 1 -4.5 3.5t-5.5 4.5q0 -25 -2 -33v-84q0 -35 -2 -49q4 -6 4 -18q0 -2 -1 -6t-1 -9v-43q0 -2 1 -4.5t1 -3.5v-8q0 -4 -1 -12.5t-1 -12.5v-20q-3 -39 2 -88q2 -16 2 -60v-73q0 -19 2 -31q4 -58 -8 -80 l-22 -23q-23 -19 -39 -8q-29 29 -29 66v14q-4 76 -4 246q0 73 4 229v62q0 1 -1 3t-1 3v14q0 31 2 39q0 2 1 6t1 6v13v84v110q0 21 -4 53q-4 49 -2 74v25q0 3 1 8t1 8v121q0 10 -1 30t-1 29v52q0 122 -2 163q-7 73 -4 134zM215 84l4 -4z" />
<glyph unicode="&#xb6;" horiz-adv-x="915" d="M49 995q4 74 4 107q6 21 10 33q3 6 9 30q16 48 43 101q15 33 45 59q5 7 18 16q12 8 17 13l10 8q1 1 4 3t4 3q11 11 25 18h-2q5 6 34 15l23 10q1 0 3 1t3 1q8 4 16 4q18 6 25 6q1 0 5 1t5 1q24 12 62 7h10q113 0 158 2h84q5 0 14 -1t14 -1h27q14 0 23 0.5t13 1t5 0.5 q23 0 41 -2h8q10 4 26.5 0.5t24.5 -13.5q14 -13 5 -47.5t-23 -34.5h-49q-3 0 -9.5 -1t-9.5 -1h-8q-9 0 -43 17q4 -82 4 -156v-31q0 -6 -1 -19.5t-1 -19.5v-39q0 -8 -0.5 -24t-0.5 -29.5t1 -25.5v-39q0 -1 1 -6t1 -9q0 -1 -1 -4.5t-1 -5.5t1 -6.5t1 -7.5v-92q0 -3 2 -7 q0 -1 1 -5.5t1 -6.5v-10q0 -25 -2 -33q0 -2 -1 -6t-1 -8v-76q0 -1 1 -3.5t1 -4.5v-8q0 -2 -1 -5.5t-1 -5.5v-18q0 -2 1 -6t1 -6v-25q0 -94 -4 -143v-76q0 -7 -1 -21.5t-1 -21.5v-131q0 -4 1 -11t1 -10v-16q4 -20 4 -41q0 -3 1 -8.5t1 -7.5q0 -31 6 -49q12 -42 -22.5 -62 t-73.5 -2q-8 8 -12.5 25.5t-1.5 29.5q2 6 2 17v8q0 5 1 15t1 14v90q-4 16 -4 33q-4 52 0 94v71q0 6 1 19.5t1 19.5v33q0 2 1 5t1 5v209q0 6 1 18.5t1 18.5v35q0 30 -4 88v47q0 6 -1 18.5t-1 18.5v37v76q2 27 2 86q2 57 2 170v28h-72q-45 0 -72 -4q-22 -2 -49 2h-12 q-4 0 -4 2v-233q-2 -43 -2 -123t2 -121v-39q0 -25 2 -37q0 -8 -1 -25t-1 -26v-96v-88v-424q0 -5 -0.5 -16.5t-0.5 -23t1 -22.5q5 -33 -16 -59q-15 -9 -41 -5t-39 19q-2 74 -2 226v90v98v49l-5 133h-2l-26 8l2 13q-12 0 -12 -4l-19 10l4 -2q-6 0 -10 4h-4q-43 19 -59 33 q-3 0 -15 8q-26 17 -57 74l-6 12l2 -2q-21 31 -31 55q-12 18 -14 35q-6 16 -15 68q0 1 -1 5t-1 5q-6 24 -6 63zM281 627q2 -2 4 -2q-4 0 -4 2z" />
<glyph unicode="&#xb7;" horiz-adv-x="278" d="M86 557v98q0 2 1 5.5t1 5.5v26l4 35q23 13 45.5 9t38.5 -17v-14q0 -1 1 -2.5t1 -2.5q4 -8 4 -16v-41q0 -2 1 -5.5t1 -4.5v-12q0 -1 1 -4t1 -5q4 -20 0 -47q4 -39 -14 -65l-53 -4q-14 9 -23.5 27t-9.5 34z" />
<glyph unicode="&#xb8;" horiz-adv-x="507" d="M82 -328q10 25 21 31t36 -4l25 -12q1 -1 4 -3t4 -3v2q18 -11 28.5 -15.5t34 -9.5t44.5 2q24 4 36 8q11 6 14.5 21t-1.5 24q-22 22 -56 19q-10 0 -32 -13v2q-18 -12 -47 -12q-11 0 -19.5 6.5t-12 12.5t-11.5 22q-12 24 16 66q4 6 19.5 31.5t21.5 35.5q3 6 11 21.5t11 21.5 q25 0 39 -2q29 -7 39 -28q12 -20 -8 -48q-1 -1 -6.5 -10.5t-7.5 -11.5l-15 -16q23 6 45 2q2 0 7.5 -1t7.5 -1q53 -9 78 -58q14 -28 14 -51q0 -26 -15.5 -52.5t-35.5 -39.5q-25 -22 -47 -29q-68 -9 -107 0q-2 2 -8 2q-21 3 -41 8q-12 6 -21 9q-18 7 -59 43q-13 13 -6 30z" />
<glyph unicode="&#xb9;" d="M106 1315q8 20 17 28t24 13q5 0 11 6q23 7 57 37l8 8q5 5 19 12q13 13 32 17q19 3 62 -27q4 -18 4 -45v-35l-2 -6v-8q0 -1 1 -4.5t1 -5.5q-4 -28 -4 -43v-25q0 -1 1 -4.5t1 -5.5v-10q0 -22 -4 -50v-10q0 -2 -1 -6t-1 -6v-62q0 -49 4 -159v-13q1 -2 3 -8t3 -8 q2 -18 -5.5 -39t-23.5 -31q-12 -6 -45 2q-1 0 -3 1t-3 1l-16 7q-16 22 -19 49q0 21 4 41v90q0 2 -1 6t-1 6q0 26 4 72q0 2 1.5 7.5t1.5 8.5v76q0 25 2 33v8q0 1 1 7t1 13q0 1 -1 3.5t-1 3.5v8q0 24 2 32v3q-9 -3 -19 -13q-20 -15 -49 -26q-55 9 -66 51z" />
<glyph unicode="&#xba;" horiz-adv-x="684" d="M49 641v35q0 69 2 104q4 28 4 41v17q0 3 -1 9.5t-1 10.5q-2 10 -2 45q-2 31 -2 113q0 79 2 112v29q0 2 1 6t1 6q0 15 4 23v6q0 15 9 27v2l1 3q1 4 1 9q0 10 2 14q0 12 8 15q0 2 4 10q0 4 4 8v4q2 13 10 25l8 14q16 32 17 33q5 10 20 20q5 5 13 9l-2 -2q4 3 14 10t14 10 q2 1 6.5 4t6.5 4l-3 -2q20 16 29 19l29 4q89 18 135 6q46 -11 84 -31q12 -8 31 -27l16 -18v-2l14 -23h-2l6 -6v-2q15 -11 15 -18l2 -2q21 -26 24 -66q5 -2 5 -8q18 -43 32 -113q17 -70 17 -139v-86q0 -2 1 -5t1 -5v-10q-2 -10 -2 -29v-131q0 -12 0.5 -33.5t0.5 -40t-1 -35.5 q0 -27 -2 -39q0 -5 -1 -19t-1 -19l-7 -80q0 -55 -8 -101v-6q0 -1 -1 -3.5t-1 -4.5l-6 -63l-6 -17q0 -2 -2 -7t-2 -7l-6 -45q-14 -42 -25 -68q-25 -40 -39 -63q-21 -32 -49 -45l-16 -9q-6 -3 -15 -12q-15 -10 -37 -12q-35 -6 -69 -6q-45 0 -90 16q-4 4 -8 4l-21 6 q-10 8 -29 17q-8 4 -10 6q-2 1 -6 4t-6 4l-19 14q-11 13 -26 43v-2q-1 2 -2 6t-2 5l-29 65l-12 49q-1 3 -3 11.5t-3 11.5q-7 28 -11 90v10q-8 168 -8 293zM141 1026q0 -8 1 -23.5t1 -23.5v-29q0 -5 1 -15t1 -15q0 -14 1 -36.5t1 -31.5v-33q3 -3 3 -10v-49q5 -49 0 -80 q-5 -37 -3 -51l-1 -5q-1 -5 -1 -10q0 -38 2 -63q0 -2 1.5 -6.5t1.5 -7.5v-43q0 -23 2 -35q0 -20 6 -101q6 -70 22 -139q7 -27 21 -61q0 -1 1 -3t1 -3q11 -26 22 -37l8 -4l13 -11l-2 2q2 -1 8 -3t8 -3l21 -8h12q-2 -2 4 -4q3 0 9.5 -1t10.5 -1h29q15 -3 31 0h-2q32 7 41 16 q1 2 5 6.5t5 6.5v-2q0 2 2 5.5t2 4.5q14 12 21 22l6 11q1 2 4 9t4 9t3 7t3 7v-2q0 1 2 3t2 3q0 11 8 19q4 11 5 23.5t1 13.5q0 2 1.5 6t1.5 6l8 53q0 13 2 19t2 12q8 47 16 170q0 5 1 16.5t1 16.5q2 12 2 37l6 165q0 1 -1 7t-1 12v22q0 1 1 5t1 6q-8 250 -30 372 q-3 15 -8 25q0 1 -1.5 3.5t-1.5 4.5q-4 8 -4 19q-9 30 -14 41l-12 28l-13 21l-6 6l-6 6l-2 2l-10 10l-2 6q-4 0 -6 2q-7 2 -24.5 7.5t-24.5 7.5q-11 0 -13 2q-12 4 -24 4q-34 0 -72 -10q-25 -11 -53 -39h2q-41 -59 -58 -144q-6 -49 -6 -100v-45zM240 8l6 10l-6 -6v-4z" />
<glyph unicode="&#xbb;" horiz-adv-x="555" d="M25 301q7 28 26 47q7 22 27 45q1 1 8 25q4 0 6 -2q3 5 13.5 20l17.5 25q1 1 3 4t3 4q2 4 6 8q15 20 21 29l-2 -2l14 28l-2 -2q2 4 7 12.5t7 12.5l33 43l18 18q-2 3 -7.5 14.5t-6.5 12.5q-2 4 -9 19t-13 24l-11 25q0 6 -2.5 13t-7 16t-6.5 14q0 6 -8 26q-13 21 -19 35 q-2 5 -8.5 14t-7.5 11l-23 53q-1 2 -4 7t-4 7q-8 16 -8 19q-10 10 -14 26.5t4 36.5q14 13 29 14t23.5 -3t21.5 -13q1 -1 3 -2t3 -2q8 -9 16 -31q0 -1 2 -4t2 -4q1 0 4.5 -1t5.5 -1v-14q1 0 3.5 -1t3.5 -1v-15l16 -39q1 -1 2 -3t4 -7.5t6 -11.5v-2l2 -4q9 0 13 -2l2 -23 q1 -2 3 -5t3 -5l6 -14l4 -13q0 -2 2 -4q4 0 10 -4l2 -24l2 -7q3 -17 17 -28l16 -25q1 -2 3.5 -6t4.5 -7t4 -5l7 -13q0 -6 10 -16q6 -6 6 -10l4 -8v2l6 -13q0 -25 -22 -43q-9 -13 -19 -20q-2 -3 -8 -9.5t-8 -9.5q-32 -32 -41 -61l-27 -43h2q-11 -17 -34 -51t-25 -37v2 q-3 -8 -13.5 -23t-13.5 -20q-4 -4 -6 -10q-7 -13 -10.5 -18t-12.5 -13.5t-22 -13.5q-50 9 -63 57zM203 256q-10 33 6 39q6 0 6 2q4 8 8 12q6 14 29 41q2 2 2 4q0 4 4 8l35 48l-2 -2q1 2 5 8t5 8l21 29q1 1 3.5 6t5.5 10.5t5 9.5l4 4v2q1 1 2 3.5t2 3.5l-2 -27l-12 2l4 8 q2 2 2 4q1 1 2 3t2 3v2l25 33h-3q26 42 44 66q2 4 10 12q6 6 8 10q4 8 6 8l-6 13l-4 10q-2 3 -5 7t-5 7q-1 1 -2.5 3.5t-2.5 5t-2 2.5l-2 8l-16 26l-4 11l-12 12q-2 6 -2 12l-5 10v-2q-2 4 -6 13.5t-6 13.5l-18 39q-21 43 -23 47q0 1 -1 3t-1 3l-6 12q-5 15 -6 17 q-2 3 -7 13t-7 13l-13 23q0 12 -8 20l-6 10t-4 7.5t-2 3.5l-4 14v-2q-15 26 2 56q20 4 32 5.5t21.5 -6t13.5 -12.5t9 -14l10 -14v2q3 -5 9 -17.5t9 -17.5l8 -19l39 -82q13 -39 60 -118l24 -43q4 -12 4 -15q1 -2 5.5 -7t5.5 -7l-2 2q2 -3 8 -11t8 -11q2 -2 6 -7.5t6 -7.5 q12 -12 25 -31l-2 -18q-8 -16 -25 -33q-1 -2 -5 -6t-5 -6l-27 -31q-1 -1 -2 -3t-2 -3q-9 -15 -14 -20q-1 -2 -4 -6.5t-4 -6.5l-35 -51q-2 -3 -9 -15.5t-10 -17.5v2l-4 -12q-1 -2 -3 -5t-3 -5q-14 -23 -20 -29q-22 -33 -43 -61q-2 -3 -7.5 -10.5t-7.5 -10.5l-12 -22l2 2 q-8 -24 -39 -37q-57 6 -63 45zM322 659q0 2 2 0v-2z" />
<glyph unicode="&#xbc;" d="M84 1393q0 16 1 23t8 13.5t22 6.5q39 0 55 -27q0 -21 2 -27q2 -14 2 -53q0 -3 1 -8.5t1 -7.5v-19q0 -12 2 -18q0 -2 1 -7t1 -9q2 -25 2 -82v-60l4 -45q9 -65 9 -96q0 -13 -9 -27t-20 -20l-49 4q-1 0 -4 1t-7 1q-14 29 -14 53v23l-4 106v23q0 4 -1 11.5t-1 10.5 q-2 63 -2 230zM90 18q6 31 16 48q3 15 17 32q8 27 18 45l25 60q8 16 8 18q0 19 2 23q0 1 1 2.5t1 3.5q4 8 4 14q0 1 1 4.5t1 5.5v11l13 8v4l2 12l8 23q0 2 6 8v2q0 6 4 12q1 2 3 6.5t3 6.5q0 12 2 14q0 8 13 18v2l8 23l12 31q1 6 5 19.5t5 19.5l6 18q6 19 29 82 q3 8 8.5 23.5t7.5 21.5l15 45l18 55q16 52 25 82l24 78l13 37q40 121 43 135q9 70 22 117q7 58 19 82q1 4 3 13t3 13q0 1 1 4.5t1 4.5q6 14 8 36q6 6 6 17l6 20q0 14 6 23q0 22 13 35q25 18 49 7t31 -36l-11 -41q0 -8 -2 -10q0 -1 -1 -4t-1 -4q-2 -6 -2 -17q0 -1 -1 -5 t-1 -5q-2 -6 -2 -12v-11q0 -2 -1 -5t-1 -5q-4 -27 -8 -35q-1 -5 -4 -17t-4 -17q-2 -2 -2 -7l-13 -53l-6 -10v-8q0 -2 -1 -6t-1 -5l-6 -12q2 0 0 -10q0 -13 -4 -21q0 -4 -2 -11t-2 -11l-10 -29q-2 -4 -2 -6v-8q0 -2 -1 -5.5t-1 -4.5l-7 -17q0 -10 -2 -14l-3 -8q-3 -8 -5 -10 q-4 -16 -4 -41q-7 -25 -22 -60q-20 -59 -31 -92q-18 -46 -23 -65q-2 -6 -5 -18.5t-5 -18.5q0 -18 -16 -25q0 -3 -1 -11t-1 -11q0 -2 -1 -6.5t-1 -6.5v-8q0 -7 -9 -22v2q-2 -4 -2 -9q-3 -16 -14 -34v2q-1 -2 -8 -23q-3 -11 -19 -45l-6 -8q0 -1 -2 -6t-2 -6q-4 -8 -4 -13 l-8 -35q-5 -5 -7 -8.5t-2.5 -7t-0.5 -4.5q-8 -41 -21 -74l-24 -59q-3 -8 -10.5 -26.5t-10.5 -26.5q-22 -64 -25 -74q-5 -11 -8 -27q0 -10 -4 -14q0 -1 -1 -3t-1 -3l-2 -8q0 -19 -8 -27l-12 -18q-3 -9 -11 -25q-24 -11 -52 -3.5t-44 23.5zM463 328v63q6 31 6 119q0 53 2 100 q59 9 80 -6q12 -12 12 -41v-47q0 -4 1 -9.5t1 -8.5v-11q0 -18 -2 -24q0 -2 -1 -8.5t-1 -8.5q-4 -28 -4 -38v-31h6q24 -6 51 -6v86q0 55 -2 84v12q-8 26 11 53q17 10 61 4q21 -23 21 -69v-68q2 -29 2 -106q8 0 14 2q44 0 65 -21v-4l2 -4q0 -3 3 -6q4 -22 -2.5 -35t-15 -16.5 t-23.5 -6.5h-25q-10 5 -14 3h-4v-95q0 -6 1 -19t1 -20v-36q2 -2 2 -15q0 -10 2 -20q4 -34 -11 -74q-16 -7 -37.5 -4t-39.5 14q-11 29 -7 64q0 2 1.5 6t1.5 6v10q0 5 -5 25v16q0 2 -1 6.5t-1 6.5q0 23 4 51q-1 1 -2 3t-2 3q4 48 2 76h-26q-3 0 -8.5 1t-8.5 1h-16q-12 4 -20 4 q-19 1 -31 3.5t-24.5 11.5t-18.5 24z" />
<glyph unicode="&#xbd;" horiz-adv-x="976" d="M86 1350q3 12 20 26q4 8 23 27l8 8q1 1 3 2t3 2l7 7q8 6 11.5 8t11.5 5t17 3q13 0 35 -11q3 -1 12.5 -5t12.5 -5q14 -12 14 -31v-43q4 -24 4 -47q2 -11 -2 -47q0 -4 2 -6q0 -1 1 -4.5t1 -5.5v-45q0 -3 -1 -9t-1 -10q0 -3 1 -7.5t1 -6.5v-94q0 -13 -2 -21q-4 -10 -2 -12 v-14q2 -4 4 -10q0 -5 2 -9v-20q9 -58 -28 -72q-23 -14 -48 -6t-28 45q0 1 -1 3t-1 3v-2q-2 6 -2 25q0 14 4 28l1 5q1 4 1 8q0 1 -1 3.5t-1 4.5v108q4 20 4 37l1 5q1 4 1 10q4 25 2 39v18q0 3 -1 11t-1 12v14q0 2 1 5t1 5v21q0 2 -1 5t-1 5v-2q-8 -11 -18 -18.5t-21.5 -10 t-23 6.5t-21.5 30v-2q-11 16 -4 31zM104 45q0 23 19 51q8 16 8 19l4 8q2 7 15 29l-3 -2l11 22l16 27l-2 -2q1 2 6 9.5t8 12.5l4 10q5 11 25 41q2 2 2 4q21 56 55 115q2 12 11 27v-2q0 4 8 12l-2 -2q7 17 23.5 53t23.5 53q24 55 26 62l11 8q0 2 4 14q8 16 8 19l14 29 q2 5 7.5 16t7.5 16q1 2 3.5 10.5t6 16t8.5 14.5q3 8 14 28t13 23q11 28 39 78q32 83 57 133l6 11v8l6 16l8 15q16 28 25 71l12 33q31 82 41 102q0 5 2 7l2 6l33 73l6 25q0 1 1 4t1 4q16 55 29 78q64 0 80 -29l4 -16q-5 -24 -29 -88q-4 -4 -4 -6l-18 -49q-1 -3 -4 -9.5 t-4 -9.5l-7 -20q-5 -14 -16 -44.5t-16 -43.5q-7 -19 -8 -21q-1 -3 -6.5 -13.5t-6.5 -13.5q-4 -4 -4 -10l-10 -26l-10 -35q-15 -44 -23 -55q-2 -6 -8 -19.5t-8 -19.5q-18 -36 -21 -43q-1 -1 -8 -17.5t-12 -23.5q-10 -20 -15 -35q0 -1 -1 -3t-1 -3q-22 -59 -34 -80l-11 -15 l2 3q-6 -12 -20.5 -39.5t-20.5 -38.5q-13 -31 -18 -39q-1 -2 -3 -8.5t-3 -8.5l-6 -14q-29 -64 -43 -86l-13 -25q-3 -7 -10 -22.5t-10 -22.5q-2 -4 -7 -15t-7 -15q-2 -2 -2 -9l-9 -24q16 14 -10 -25l-14 -20l-6 -6q0 -1 -1 -5t-1 -6l-15 -22l2 2l-24 -43q-1 -4 -5.5 -12.5 t-5.5 -12.5t-5 -16t-5 -16q-9 -20 -37 -58l2 2q-1 -3 -4 -10t-4 -10q-4 -4 -6 -4q-2 -4 -2 -6v-11q-3 -15 -5.5 -23t-12.5 -18t-27 -18q-36 0 -45 16q-14 11 -21 29zM444 55q14 31 43 41l5 2q14 14 22 19l6 4q11 11 23 16l6 6l6 2q1 1 4 3.5t4 3.5l12 10l15 10l18 18l6 9 l9 8q1 1 4 3t4 3q16 8 12 8q27 27 51 58l-2 -3l13 25q16 28 16 45v31q0 47 -10 59q-5 11 -19 19h2q-8 4 -18 4q-9 3 -27 -6q-6 -2 -20 -2q-11 0 -25 -9l-12 -12q-22 -22 -39 -24q-24 0 -49.5 25.5t-3.5 47.5q38 35 78 45l14 4h-2q81 28 129 15q15 -4 26 -15q17 -11 23 -16 q1 -1 3 -2t3 -2l8 -8q39 -31 39 -92v-23q0 -2 1 -7.5t1 -8.5v-15q0 -10 -6 -28q-2 -4 -2 -13q0 -17 -16 -41q-5 -5 -8 -14q-8 -20 -27 -39l-10 -10l-9 -10l-12 -17q-10 -10 -16 -18q-1 -1 -2 -3t-2 -3l-27 -27l-6 -2l-12 -8l-4 -2q-10 -10 -15 -10l-4 -5l-8 -10l-8 -8h2h12 q1 0 4.5 1t5.5 1h23q4 0 12 -1t12 -1q14 -2 45 -2h41q19 0 25 2h27q13 -1 21.5 -11.5t19.5 -35.5l-9 4q3 -16 -2 -29q-32 -15 -77 -12q-5 0 -7 -2q-8 -2 -32 -2q-86 4 -129 4q-25 0 -107 -4h-16q-18 0 -35 14q-26 15 -21 43zM678 1051q2 0 2 2z" />
<glyph unicode="&#xbe;" d="M119 989l12 19q23 15 55 4q4 0 7.5 -0.5t6 -2t4 -2.5t4 -4t3 -4l2.5 -5t2 -5q4 -2 10 -8q2 -1 6.5 -2t6.5 -2q24 -8 28 -10q65 0 115 26q2 2 6.5 6t5.5 5q6 9 15 18q11 28 2 61l-19 27q-2 0 -9 2t-9 2q-20 12 -31 12q-14 2 -45 -2h-12q-2 0 -7.5 -1t-7.5 -1l-6 -4 q-4 -4 -20 -4q-28 0 -43 23h2l-6 6q-15 19 -11 45q19 27 62 22h8q20 3 47 13q-5 -5 4 -4q6 1 17 4l36 39q23 29 23 55q-2 7 -25 18q-1 0 -3 1t-3 1q-34 17 -51 17q-8 0 -20 -6q-1 -1 -4.5 -2.5t-4.5 -2.5q-27 -13 -57 -10l-8 2q-25 8 -39 35q0 23 9.5 32t29.5 11l16 4 q49 21 82 17q18 0 39 -7q8 0 12 -4q1 -1 8.5 -3t8.5 -3l18 -6l23 -8q9 -9 18 -12l6 -7q17 -13 31 -34q8 -19 10 -35v-35q0 -25 -24 -61l-29 -29q8 -4 10 -4q26 -19 37 -35q38 -53 41 -94q3 -30 -16 -78q-16 -28 -31 -45q-15 -15 -55 -35l-17 -4h2q-57 -28 -141 -18 q-36 4 -47 12h2q-2 1 -6 2t-6 2q-23 9 -39 20q-52 37 -41 76zM260 18q3 27 14 50q5 12 21 32l-2 -2q5 18 18 45l25 60q0 6 6 18q0 19 2 23q0 1 1 2.5t1 3.5q4 8 4 10l2 4q0 1 1 4.5t1 5.5v11l13 8v4l2 12l8 23q0 2 6 8v2q0 6 4 12q1 2 3 6.5t3 6.5q0 12 2 14q0 8 13 16 q-2 0 0 2l6 25q2 6 14 31q1 6 5 19.5t5 19.5l6 18q6 19 29 82q9 40 31 90l18 55q2 6 5 18.5t5 18.5q27 89 39 123q3 14 11 29q23 65 43 143q7 53 24 117q7 58 19 82q1 4 3 13t3 13q0 1 1 4.5t1 4.5q6 14 8 36q6 6 6 17l6 20q0 5 4 17q-5 17 15 43q28 11 50 2.5t28 -33.5 l-11 -41q0 -8 -2 -10q0 -1 -1 -3t-1 -3v-19q0 -1 -1 -5t-1 -5q-2 -6 -2 -12v-11q0 -2 -1 -5t-1 -5q-4 -27 -8 -35q-1 -5 -4 -16t-4 -16q0 -1 -1 -4.5t-1 -4.5l-13 -53l-6 -10v-8q0 -2 -1 -6t-1 -5l-6 -12l-2 -10q0 -12 -6 -21q0 -4 -1 -11t-1 -11l-8 -29q-2 -4 -2 -6v-8 q0 -2 -1 -5.5t-1 -4.5l-7 -17q0 -10 -2 -14l-3 -8q-3 -8 -5 -10q-4 -16 -4 -41q-7 -25 -22 -60q-20 -59 -31 -92l-35 -100q0 -2 -1 -7.5t-1 -7.5v-14h-10v-2l-9 -33v-6q0 -9 -8 -22v2q-2 -4 -2 -9q-5 -25 -12 -34v2q-1 -2 -8 -23q-3 -11 -19 -45l-6 -8q0 -1 -2 -6t-2 -6 q-4 -8 -4 -13l-10 -35q-5 -5 -7 -8.5t-2.5 -7t-0.5 -4.5q-3 -27 -19 -74l-24 -59q-35 -88 -46 -127q-5 -11 -8 -27q0 -10 -4 -14q0 -1 -1 -3t-1 -3l-2 -8q0 -19 -8 -27l-12 -18q-10 -20 -11 -21q-23 -13 -52.5 -6t-43.5 22zM303 1223l8 4zM662 330v16q0 29 2 37v27 q0 5 -1 13.5t-1 12.5q0 34 4 80q-2 8 -2 37q-4 24 2 51q22 22 57 15t43 -31v-96q0 -13 -2 -19v-8q0 -2 -1 -5.5t-1 -4.5q-3 -39 0 -70v-18q0 -9 2 -13l-4 -2q1 -2 3 -5t3 -5q23 -2 74 2h20q2 0 7 1t10 1v109q0 43 -3 80v16q-4 35 5 67q23 14 55.5 5.5t32.5 -31.5 q0 -3 1 -9.5t1 -9.5v-18q5 -70 0 -113h-2q2 -8 2 -26v-15q0 -37 2 -57q8 4 10 4q28 4 59 0q41 -4 41 -35v-39q-13 -11 -25 -16t-18.5 -5.5t-23.5 -0.5h-41q0 -6 2 -12q0 -2 1 -9t1 -10v-18q0 -5 4 -25q0 -2 1 -7t1 -7q4 -49 2 -76v-6q1 -2 2 -7t2 -7q2 -4 2 -11 q0 -24 -20 -53q-33 -8 -64 0q-22 28 -22 70l2 8v8q0 11 -4 23q-2 6 -2 26v29q0 53 -2 84h-9q-6 0 -16 1t-14 1h-49q-4 0 -13 -1t-14 -1q-25 -4 -47 0q-13 0 -31 12v-2q-12 8 -17.5 19.5t-6 19.5t-0.5 29z" />
<glyph unicode="&#xbf;" horiz-adv-x="546" d="M68 -147q0 62 20 127q0 4 2 8q0 1 1 3t1 3q9 41 41 98v-2q1 2 3 5t3 5l17 25l-2 -2q2 4 5.5 10t4.5 8q8 15 16 27q3 4 10.5 12.5t10.5 12.5l-2 -3q4 7 12 23t12 23q6 6 6 12q0 1 1 3t1 3q2 2 2 4q0 8 7 29q3 19 14 41q12 23 18 49l7 26q1 7 4 23t4 23q10 82 10 167v84 q0 4 1 17t1 22q0 1 -1 3t-1 3v-2q-7 33 4 54q29 44 74 20q25 -17 20 -72q0 -1 -1 -4.5t-1 -5.5v-35q0 -26 -2 -36v-39q0 -111 -4 -168l-12 -76q0 -2 -1 -6t-1 -6q-4 -30 -15 -58q-16 -44 -26 -61q0 -2 -4 -10t-4 -15q-8 -11 -15 -41q-4 -10 -20 -30l-4 -4q-1 -2 -4.5 -6.5 t-4.5 -6.5l-20 -26l2 2q-1 -3 -5 -10.5t-5 -10.5l-17 -24q-7 -7 -10 -13l-26 -47q-1 -5 -5 -16l-4 -10l-10 -39q-10 -46 -10 -101q0 -42 14 -82l-2 2q4 -8 6 -10q9 -9 9 -14q3 -3 9 -11.5t9 -11.5l2 -2l25 -10q12 -9 34.5 -11.5t42.5 3.5q4 2 13.5 6t13.5 6q14 5 16 12 l13 21q1 1 2 4t2 4l-2 -2q1 2 3 7t3 7q7 20 36 25t44 -10q20 -20 6 -47q-1 -3 -3 -10.5t-3 -10.5q-10 -20 -21 -31l-8 -8l-10 -14q-2 -4 -17 -19q-18 -16 -36 -20l-11 -2q-14 -6 -45 -10q-95 -7 -143 26q-24 18 -35 37q-1 2 -4 5t-4 5q-2 2 -12 16t-15 19l-20 49 q-10 55 -10 93zM285 977q0 43 16 59q12 15 47 10.5t41 -22.5q8 -31 4 -59v-39q5 -35 0 -47q-8 -15 -26 -25.5t-35 -9.5q-23 0 -35 20q-10 39 -8 47v31l-2 19v8q0 2 -1 4.5t-1 3.5z" />
<glyph unicode="&#xc0;" horiz-adv-x="563" d="M16 57l7 19q3 19 10 41q0 2 2 7.5t2 8.5q4 8 4 14l6 33q6 19 14 56q3 26 9 43q0 2 1 5t1 5q0 6 2 10t2 6l8 49q4 12 4 23q2 8 2 22q0 9 4 21q1 9 3 26.5t3 26.5q1 10 5.5 34t5.5 34l12 51q0 8 2 12q2 6 2 14l6 27q1 4 3 14.5t3 14.5q4 16 4 22q3 20 9.5 59t9.5 58v-2 q8 54 26.5 165t26.5 165l8 43l13 57q1 6 4 18.5t4 18.5q2 34 6 74v26q0 29 18 54q53 16 82 -7q12 -14 12 -43v-10q-2 -9 3 -41q0 -3 1 -8.5t1 -7.5t1 -6t1 -6v-11l6 -67q3 -19 10 -58t10 -59q1 -9 6 -45q3 -25 11 -55q4 -17 8 -52q1 -17 12 -110q0 -7 4 -15l4 -30 q5 -46 15 -101q5 -42 16 -102l10 -106q2 -16 7.5 -51t7.5 -52q11 -72 26 -196q6 -30 6 -41q6 -33 7 -39l4 -17q7 -36 4 -65q0 -18 -7 -23.5t-22 -7.5q-1 0 -3 -1t-3 -1q-23 -4 -39 0q-11 4 -16 13.5t-6 18t-1 25.5q0 5 -4 21v10q0 1 -1 3t-1 3q-6 37 -16 129q-1 10 -5 43.5 t-7 54.5q-1 9 -5 33.5t-6 38.5q-2 17 -4.5 42.5t-3.5 29.5q-8 73 -14 108q0 3 -1 5.5t-1 5.5q-14 2 -39 2h-14q-50 0 -103 -6h-8q-2 -5 -8 -43q-4 -8 -4 -21l-6 -33q0 -8 -5 -18q0 -13 -2 -17q-2 -6 -2 -16q0 -21 -4 -41v-6l-4 -25l-4 -28l-6 -39q0 -1 -1 -5t-1 -5 q-8 -40 -8 -43q-2 -6 -2 -11q0 -12 -11 -45q-3 -13 -12 -35q-2 -4 -2 -12q0 -1 -1 -4t-1 -4q-2 -4 -2 -12q0 -1 -1 -5t-1 -6q-1 -4 -4 -15.5t-4 -18.5q-1 -3 -2 -9.5t-2 -9.5q-2 -2 -2 -10q-6 -28 -19 -37q-8 -5 -28.5 -5.5t-34.5 5.5q-24 15 -13 53zM131 1682q9 32 33 37 q31 5 55 -23q4 -5 22 -29q3 -4 12 -14l9 -12q3 -4 10 -12.5t10 -12.5q32 -36 45 -55q3 -6 11 -14q10 -10 24 -35q7 -15 -4.5 -35t-28.5 -23q-19 -3 -28.5 3.5t-29.5 31.5q-5 5 -7 8q-6 5 -16 23q-2 2 -3.5 5.5t-3 5.5t-2.5 3q-8 8 -18 23q-12 15 -27 30l-14 15l-37 47 q-15 12 -12 33zM229 666q2 0 6.5 1t6.5 1q24 4 49 4h53h21q-2 12 -5.5 35t-5.5 34q-7 62 -28 191q-11 75 -15 119q0 3 -1 8t-1 8q-1 20 -0.5 31t0 22.5t-3.5 24.5q-1 -6 -2 -16.5t-2 -16.5q-1 -12 -4 -37t-4 -37q-12 -75 -17 -120l-8 -31q-6 -15 -6 -29q-4 -41 -8 -61 q-4 -12 -4 -17l-6 -37l-6 -34q0 -2 -1 -6.5t-1 -6.5v-8q0 -1 -1.5 -4t-1.5 -4q-4 -8 -4 -14z" />
<glyph unicode="&#xc1;" horiz-adv-x="563" d="M16 57l7 19q3 19 10 41q0 2 2 7.5t2 8.5q4 8 4 14l6 33q6 19 14 56q3 26 9 43q0 2 1 5t1 5q0 6 2 10t2 6l8 49q4 12 4 23q2 8 2 22q0 9 4 21q1 9 3 26.5t3 26.5q1 10 5.5 34t5.5 34l12 51q0 8 2 12q2 6 2 14l6 27q1 4 3 14.5t3 14.5q4 16 4 22q3 20 9.5 59t9.5 58v-2 q8 54 26.5 165t26.5 165l8 43l13 57q1 6 4 18.5t4 18.5q2 34 6 74v26q0 29 18 54q53 16 82 -7q12 -14 12 -43v-10q-2 -9 3 -41q0 -3 1 -8.5t1 -7.5t1 -6t1 -6v-11l6 -67q3 -19 10 -58t10 -59q1 -9 6 -45q3 -25 11 -55q4 -17 8 -52q1 -17 12 -110q0 -7 4 -15l4 -30 q5 -46 15 -101q5 -42 16 -102l10 -106q2 -16 7.5 -51t7.5 -52q11 -72 26 -196q6 -30 6 -41q6 -33 7 -39l4 -17q7 -36 4 -65q0 -18 -7 -23.5t-22 -7.5q-1 0 -3 -1t-3 -1q-23 -4 -39 0q-11 4 -16 13.5t-6 18t-1 25.5q0 5 -4 21v10q0 1 -1 3t-1 3q-6 37 -16 129q-1 10 -5 43.5 t-7 54.5q-1 9 -5 33.5t-6 38.5q-2 17 -4.5 42.5t-3.5 29.5q-8 73 -14 108q0 3 -1 5.5t-1 5.5q-14 2 -39 2h-14q-50 0 -103 -6h-8q-2 -5 -8 -43q-4 -8 -4 -21l-6 -33q0 -8 -5 -18q0 -13 -2 -17q-2 -6 -2 -16q0 -21 -4 -41v-6l-4 -25l-4 -28l-6 -39q0 -1 -1 -5t-1 -5 q-8 -40 -8 -43q-2 -6 -2 -11q0 -12 -11 -45q-3 -13 -12 -35q-2 -4 -2 -12q0 -1 -1 -4t-1 -4q-2 -4 -2 -12q0 -1 -1 -5t-1 -6q-1 -4 -4 -15.5t-4 -18.5q-1 -3 -2 -9.5t-2 -9.5q-2 -2 -2 -10q-6 -28 -19 -37q-8 -5 -28.5 -5.5t-34.5 5.5q-24 15 -13 53zM229 666q2 0 6.5 1 t6.5 1q24 4 49 4h53h21q-2 12 -5.5 35t-5.5 34q-7 62 -28 191q-11 75 -15 119q0 3 -1 8t-1 8q-1 20 -0.5 31t0 22.5t-3.5 24.5q-1 -6 -2 -16.5t-2 -16.5q-1 -12 -4 -37t-4 -37q-12 -75 -17 -120l-8 -31q-6 -15 -6 -29q-4 -41 -8 -61q-4 -12 -4 -17l-6 -37l-6 -34 q0 -2 -1 -6.5t-1 -6.5v-8q0 -1 -1.5 -4t-1.5 -4q-4 -8 -4 -14zM238 1477q-3 24 14 41q6 6 13 20q1 2 7 12l9 15q16 20 20 24q14 21 17 25q10 10 14 18q1 1 4 5.5t4 5.5q12 12 17 22q2 9 10.5 18t20.5 9q49 0 51 -43q2 -31 -47 -86q-7 -9 -17 -23.5t-12 -17.5q-2 -2 -4.5 -6 t-3.5 -5l-17 -26q0 -1 -1 -3t-1 -3q-12 -32 -43 -39q-18 0 -35 9.5t-20 27.5z" />
<glyph unicode="&#xc2;" horiz-adv-x="563" d="M16 57l7 19q3 19 10 41q0 2 2 7.5t2 8.5q4 8 4 14l6 33q6 19 14 56q3 26 9 43q0 2 1 5t1 5q0 6 2 10t2 6l8 49q4 12 4 23q2 8 2 22q0 9 4 21q1 9 3 26.5t3 26.5q1 10 5.5 34t5.5 34l12 51q0 8 2 12q2 6 2 14l6 27q1 4 3 14.5t3 14.5q4 16 4 22q3 20 9.5 59t9.5 58v-2 q8 54 26.5 165t26.5 165l8 43l13 57q1 6 4 18.5t4 18.5q2 34 6 74v26q0 29 18 54q53 16 82 -7q12 -14 12 -43v-10q-2 -9 3 -41q0 -3 1 -8.5t1 -7.5t1 -6t1 -6v-11l6 -67q3 -19 10 -58t10 -59q1 -9 6 -45q3 -25 11 -55q4 -17 8 -52q1 -17 12 -110q0 -7 4 -15l4 -30 q5 -46 15 -101q5 -42 16 -102l10 -106q2 -16 7.5 -51t7.5 -52q11 -72 26 -196q6 -30 6 -41q6 -33 7 -39l4 -17q7 -36 4 -65q0 -18 -7 -23.5t-22 -7.5q-1 0 -3 -1t-3 -1q-23 -4 -39 0q-11 4 -16 13.5t-6 18t-1 25.5q0 5 -4 21v10q0 1 -1 3t-1 3q-6 37 -16 129q-1 10 -5 43.5 t-7 54.5q-1 9 -5 33.5t-6 38.5q-2 17 -4.5 42.5t-3.5 29.5q-8 73 -14 108q0 3 -1 5.5t-1 5.5q-14 2 -39 2h-14q-50 0 -103 -6h-8q-2 -5 -8 -43q-4 -8 -4 -21l-6 -33q0 -8 -5 -18q0 -13 -2 -17q-2 -6 -2 -16q0 -21 -4 -41v-6l-4 -25l-4 -28l-6 -39q0 -1 -1 -5t-1 -5 q-8 -40 -8 -43q-2 -6 -2 -11q0 -12 -11 -45q-3 -13 -12 -35q-2 -4 -2 -12q0 -1 -1 -4t-1 -4q-2 -4 -2 -12q0 -1 -1 -5t-1 -6q-1 -4 -4 -15.5t-4 -18.5q-1 -3 -2 -9.5t-2 -9.5q-2 -2 -2 -10q-6 -28 -19 -37q-8 -5 -28.5 -5.5t-34.5 5.5q-24 15 -13 53zM163.5 1458 q-1.5 10 8.5 23v6q1 4 3.5 10t7 18.5t8.5 22.5q5 11 18.5 39.5t18.5 40.5q1 3 3 8.5t3 8.5q9 24 18 39q16 26 43 26q23 0 29.5 -2t19.5 -12q19 -16 43 -78q5 -10 7 -12q3 -11 16 -31v-2q4 -6 20 -49q2 -4 6.5 -16.5t6.5 -16.5q0 -12 -16 -28.5t-29 -16.5q-7 3 -14.5 9 t-11.5 11l-3 5l-57 94v2q-2 4 -5.5 7t-5.5 7q-6 -6 -10 -14q-1 -2 -3.5 -12.5t-8 -23.5t-15.5 -28l-10 -20q-12 -21 -25 -28.5t-46 -4.5q-18 8 -19.5 18zM229 666q2 0 6.5 1t6.5 1q24 4 49 4h53h21q-2 12 -5.5 35t-5.5 34q-7 62 -28 191q-11 75 -15 119q0 3 -1 8t-1 8 q-1 20 -0.5 31t0 22.5t-3.5 24.5q-1 -6 -2 -16.5t-2 -16.5q-1 -12 -4 -37t-4 -37q-12 -75 -17 -120l-8 -31q-6 -15 -6 -29q-4 -41 -8 -61q-4 -12 -4 -17l-6 -37l-6 -34q0 -2 -1 -6.5t-1 -6.5v-8q0 -1 -1.5 -4t-1.5 -4q-4 -8 -4 -14z" />
<glyph unicode="&#xc3;" horiz-adv-x="563" d="M16 57l7 19q3 19 10 41q0 2 2 7.5t2 8.5q4 8 4 14l6 33q6 19 14 56q3 26 9 43q0 2 1 5t1 5q0 6 2 10t2 6l8 49q4 12 4 23q2 8 2 22q0 9 4 21q1 9 3 26.5t3 26.5q1 10 5.5 34t5.5 34l12 51q0 8 2 12q2 6 2 14l6 27q1 4 3 14.5t3 14.5q4 16 4 22q3 20 9.5 59t9.5 58v-2 q8 54 26.5 165t26.5 165l8 43l13 57q1 6 4 18.5t4 18.5q2 34 6 74v26q0 29 18 54q53 16 82 -7q12 -14 12 -43v-10q-2 -9 3 -41q0 -3 1 -8.5t1 -7.5t1 -6t1 -6v-11l6 -67q3 -19 10 -58t10 -59q1 -9 6 -45q3 -25 11 -55q4 -17 8 -52q1 -17 12 -110q0 -7 4 -15l4 -30 q5 -46 15 -101q5 -42 16 -102l10 -106q2 -16 7.5 -51t7.5 -52q11 -72 26 -196q6 -30 6 -41q6 -33 7 -39l4 -17q7 -36 4 -65q0 -18 -7 -23.5t-22 -7.5q-1 0 -3 -1t-3 -1q-23 -4 -39 0q-11 4 -16 13.5t-6 18t-1 25.5q0 5 -4 21v10q0 1 -1 3t-1 3q-6 37 -16 129q-1 10 -5 43.5 t-7 54.5q-1 9 -5 33.5t-6 38.5q-2 17 -4.5 42.5t-3.5 29.5q-8 73 -14 108q0 3 -1 5.5t-1 5.5q-14 2 -39 2h-14q-50 0 -103 -6h-8q-2 -5 -8 -43q-4 -8 -4 -21l-6 -33q0 -8 -5 -18q0 -13 -2 -17q-2 -6 -2 -16q0 -21 -4 -41v-6l-4 -25l-4 -28l-6 -39q0 -1 -1 -5t-1 -5 q-8 -40 -8 -43q-2 -6 -2 -11q0 -12 -11 -45q-3 -13 -12 -35q-2 -4 -2 -12q0 -1 -1 -4t-1 -4q-2 -4 -2 -12q0 -1 -1 -5t-1 -6q-1 -4 -4 -15.5t-4 -18.5q-1 -3 -2 -9.5t-2 -9.5q-2 -2 -2 -10q-6 -28 -19 -37q-8 -5 -28.5 -5.5t-34.5 5.5q-24 15 -13 53zM137 1493q2 11 20 29 q35 25 43 29q17 6 35 8t45 2q18 0 56 -17q1 -1 4 -1.5t8 -2.5q16 -8 26 -8q7 0 35 14q2 1 7.5 3.5t7.5 3.5q14 6 28 6q9 0 26 -18.5t17 -32.5q0 -23 -24 -37h2q-5 -3 -17.5 -9.5t-17.5 -9.5v2l-4 -4q-20 -12 -45 -12q-25 -2 -80 20q-3 1 -10.5 4.5t-10.5 4.5q-10 4 -26 4 q-28 0 -47 -15l-8 -8q-19 -19 -31 -14q-18 3 -29.5 25t-9.5 34zM229 666q2 0 6.5 1t6.5 1q24 4 49 4h53h21q-2 12 -5.5 35t-5.5 34q-7 62 -28 191q-11 75 -15 119q0 3 -1 8t-1 8q-1 20 -0.5 31t0 22.5t-3.5 24.5q-1 -6 -2 -16.5t-2 -16.5q-1 -12 -4 -37t-4 -37 q-12 -75 -17 -120l-8 -31q-6 -15 -6 -29q-4 -41 -8 -61q-4 -12 -4 -17l-6 -37l-6 -34q0 -2 -1 -6.5t-1 -6.5v-8q0 -1 -1.5 -4t-1.5 -4q-4 -8 -4 -14z" />
<glyph unicode="&#xc4;" horiz-adv-x="563" d="M16 57l7 19q3 19 10 41q0 2 2 7.5t2 8.5q4 8 4 14l6 33q6 19 14 56q3 26 9 43q0 2 1 5t1 5q0 6 2 10t2 6l8 49q4 12 4 23q2 8 2 22q0 9 4 21q1 9 3 26.5t3 26.5q1 10 5.5 34t5.5 34l12 51q0 8 2 12q2 6 2 14l6 27q1 4 3 14.5t3 14.5q4 16 4 22q3 20 9.5 59t9.5 58v-2 q8 54 26.5 165t26.5 165l8 43l13 57q1 6 4 18.5t4 18.5q2 34 6 74v26q0 29 18 54q53 16 82 -7q12 -14 12 -43v-10q-2 -9 3 -41q0 -3 1 -8.5t1 -7.5t1 -6t1 -6v-11l6 -67q3 -19 10 -58t10 -59q1 -9 6 -45q3 -25 11 -55q4 -17 8 -52q1 -17 12 -110q0 -7 4 -15l4 -30 q5 -46 15 -101q5 -42 16 -102l10 -106q2 -16 7.5 -51t7.5 -52q11 -72 26 -196q6 -30 6 -41q6 -33 7 -39l4 -17q7 -36 4 -65q0 -18 -7 -23.5t-22 -7.5q-1 0 -3 -1t-3 -1q-23 -4 -39 0q-11 4 -16 13.5t-6 18t-1 25.5q0 5 -4 21v10q0 1 -1 3t-1 3q-6 37 -16 129q-1 10 -5 43.5 t-7 54.5q-1 9 -5 33.5t-6 38.5q-2 17 -4.5 42.5t-3.5 29.5q-8 73 -14 108q0 3 -1 5.5t-1 5.5q-14 2 -39 2h-14q-50 0 -103 -6h-8q-2 -5 -8 -43q-4 -8 -4 -21l-6 -33q0 -8 -5 -18q0 -13 -2 -17q-2 -6 -2 -16q0 -21 -4 -41v-6l-4 -25l-4 -28l-6 -39q0 -1 -1 -5t-1 -5 q-8 -40 -8 -43q-2 -6 -2 -11q0 -12 -11 -45q-3 -13 -12 -35q-2 -4 -2 -12q0 -1 -1 -4t-1 -4q-2 -4 -2 -12q0 -1 -1 -5t-1 -6q-1 -4 -4 -15.5t-4 -18.5q-1 -3 -2 -9.5t-2 -9.5q-2 -2 -2 -10q-6 -28 -19 -37q-8 -5 -28.5 -5.5t-34.5 5.5q-24 15 -13 53zM113 1538v25 q-3 23 22 51q17 24 70 24q15 0 35 -10q7 -4 26 -33q15 -34 0 -69q-18 -27 -28 -37l-21 -14q-26 -5 -49 4q-9 0 -21 8l-10 10q-20 12 -24 41zM229 666q2 0 6.5 1t6.5 1q24 4 49 4h53h21q-2 12 -5.5 35t-5.5 34q-7 62 -28 191q-11 75 -15 119q0 3 -1 8t-1 8q-1 20 -0.5 31 t0 22.5t-3.5 24.5q-1 -6 -2 -16.5t-2 -16.5q-1 -12 -4 -37t-4 -37q-12 -75 -17 -120l-8 -31q-6 -15 -6 -29q-4 -41 -8 -61q-4 -12 -4 -17l-6 -37l-6 -34q0 -2 -1 -6.5t-1 -6.5v-8q0 -1 -1.5 -4t-1.5 -4q-4 -8 -4 -14zM328 1561q0 13 16 35t31 34q25 15 49 8l42 -23 q10 -4 9 -1l4 -4q17 -17 19 -49q0 -19 -4 -27q0 -1 -1 -4t-1 -4q-4 -4 -7 -13q-8 -21 -20 -28v2q-14 -14 -49 -14h-13q-8 0 -22 7.5t-21 14.5q-21 18 -24 31q-8 16 -8 35z" />
<glyph unicode="&#xc5;" horiz-adv-x="563" d="M16 57l7 19q3 19 10 41q0 2 2 7.5t2 8.5q4 8 4 14l6 33q6 19 14 56q3 26 9 43q0 2 1 5t1 5q0 6 2 10t2 6l8 49q4 12 4 23q2 8 2 22q0 9 4 21q1 9 3 26.5t3 26.5q1 10 5.5 34t5.5 34l12 51q0 8 2 12q2 6 2 14l6 27q1 4 3 14.5t3 14.5q4 16 4 22q3 20 9.5 59t9.5 58v-2 q8 54 26.5 165t26.5 165l8 43l13 57q1 6 4 18.5t4 18.5q1 11 3 36.5t3 37.5v10q-22 7 -25 12q-6 3 -22 19q-1 1 -3 4t-3 4l-17 16q-9 9 -16 23q-19 59 -12 90q7 35 43 67q27 26 46.5 32.5t51.5 6.5q35 3 74 -6q49 -14 67 -47h-2q25 -42 25 -65q0 -44 -15 -78q-1 -3 -5 -10.5 t-5 -10.5q-3 -10 -31 -33q3 4 -8 -5q-3 -2 -10 -8l-8 -7q-3 -1 -6.5 -4t-8.5 -4q0 -7 5 -27q0 -3 1 -8.5t1 -7.5t1 -6t1 -6v-11l6 -67q3 -19 10 -58t10 -59q1 -9 6 -45q3 -25 11 -55q4 -17 8 -52q1 -17 12 -110q0 -7 4 -15l4 -30q5 -46 15 -101q5 -42 16 -102l10 -106 q2 -16 7.5 -51t7.5 -52q11 -72 26 -196q6 -30 6 -41q6 -33 7 -39l4 -17q7 -36 4 -65q0 -18 -7 -23.5t-22 -7.5q-1 0 -3 -1t-3 -1q-23 -4 -39 0q-11 4 -16 13.5t-6 18t-1 25.5q0 5 -4 21v10q0 1 -1 3t-1 3q-6 37 -16 129q-1 10 -5 43.5t-7 54.5l-19 144q-8 73 -14 108 q0 3 -1 5.5t-1 5.5q-14 2 -39 2h-14q-50 0 -103 -6h-8q-2 -5 -8 -43q-4 -8 -4 -21l-6 -33q0 -8 -5 -18q0 -13 -2 -17q-2 -6 -2 -16q0 -21 -4 -41v-6l-4 -25l-4 -28l-6 -39q0 -1 -1 -5t-1 -5q-8 -40 -8 -43q-2 -6 -2 -11q0 -13 -11 -45l-12 -35q-2 -4 -2 -12q0 -1 -1 -4 t-1 -4q-2 -4 -2 -12q0 -1 -1 -5t-1 -6q-1 -4 -4 -15.5t-4 -18.5q-1 -3 -2 -9.5t-2 -9.5q-2 -2 -2 -10q-6 -28 -19 -37q-8 -5 -28.5 -5.5t-34.5 5.5q-24 15 -13 53zM229 666q2 0 6.5 1t6.5 1q24 4 49 4h53h21q-2 12 -5.5 35t-5.5 34q-7 62 -28 191q-11 75 -15 119q0 3 -1 8 t-1 8q-1 20 -0.5 31t0 22.5t-3.5 24.5q-1 -6 -2 -16.5t-2 -16.5q-1 -12 -4 -37t-4 -37q-12 -75 -17 -120l-8 -31q-6 -15 -6 -29q-4 -41 -8 -61q-4 -12 -4 -17l-6 -37l-6 -34q0 -2 -1 -6.5t-1 -6.5v-8q0 -1 -1.5 -4t-1.5 -4q-4 -8 -4 -14zM244 1507q3 -13 11.5 -26.5 t16.5 -18.5q6 -5 19.5 -10.5t17.5 -5.5q31 -3 51 31h2q7 11 7 34q0 9 -7 23q-3 8 -22 13.5t-43 4.5q-13 0 -32.5 -14t-20.5 -31z" />
<glyph unicode="&#xc6;" horiz-adv-x="755" d="M-8 6q-12 34 6 66l2 18l10 33q7 13 10 37l5 17l2 5q1 5 4 15.5t4 15.5q11 22 18 63q0 16 8 37v-2q0 1 1 3t1 3t1.5 3.5t1.5 3.5q0 10 2 14q1 5 4 15.5t4 15.5l6 26q0 3 4 15l4 8q0 2 1 6t1 6l1 4q1 5 1 10l6 25q2 6 2 23l7 -3v7h-7q0 1 1 3t1 3l5 -2q3 39 12 69v-2 q0 1 1 3.5t1 4.5q4 6 8 41q0 11 2 13q2 4 2 8q0 8 2.5 17.5t7.5 22.5t7 19q1 6 4.5 18t3.5 13l14 47q74 246 78 256q8 20 22 78q10 33 13 49q1 4 3 13.5t3 13.5q4 16 4 20q0 2 1 6.5t1 6.5q2 8 5.5 22.5t6.5 26t6 20.5q2 7 7.5 23.5t7.5 23.5q1 3 2 8.5t2 8.5l18 67 q22 22 76 17h19q3 0 12 -1t14 -1h49q1 0 2.5 1t3.5 1q38 0 54 -2h12q42 4 70 -29h-7q7 -16 0 -49q-43 -15 -96 -6q-23 4 -45 0q-3 0 -8 -1t-8 -1h-25q-2 0 -4.5 1t-3.5 1h-6v-91q0 -49 2 -69q4 -117 2 -174q-4 -64 4 -185q0 -5 1 -15t1 -15q2 -35 2 -113q8 -2 31 -2 q12 -2 37 -2h16q14 0 21 -1t15.5 -5.5t13 -15.5t5.5 -29q-11 -44 -73 -35h-17q-2 0 -6.5 1t-7.5 1h-16h-21v-25q0 -3 -1 -9.5t-1 -10.5v-291q0 -6 -1 -23t-1 -26v-76q0 -5 1 -15t1 -16v-14q11 -5 21 -2q2 0 8 1t8 1h92q56 5 70 -24q8 -22 -4.5 -45t-32.5 -23h-88h-88h-17 q-34 0 -49 6q-24 17 -24 45v12q0 2 1 5.5t1 5.5v102q0 5 -1 15.5t-1 15.5v80q0 5 -1 15t-1 15v60q0 10 -1.5 30.5t-1.5 30.5q0 66 3 154h-74q-46 4 -70 2q-1 -9 -6 -45l-4 -25l-12 -53l-35 -141l-45 -183l-6 -22q-8 -10 -11 -41q-4 -12 -4 -14l-8 -29q-6 -25 -29 -39 q-23 -11 -69 4zM244 674q49 0 67 4q22 -11 58 -4q2 26 -2 74v28q0 5 -1 16.5t-1 16.5v55q0 5 1 15.5t1 15.5v27q0 45 2 61q0 4 1 14.5t1 14.5v94l-13 -35q-1 -5 -4 -16.5t-4 -16.5q-2 -16 -8 -39l-18 -59q-28 -85 -62 -211q-12 -28 -18 -55z" />
<glyph unicode="&#xc7;" horiz-adv-x="595" d="M70 680q-2 61 6 172l6 63q2 25 2 66q0 122 43 246q4 20 10 28v-2q1 3 5 9.5t5 9.5q18 40 23 45h-2q33 47 55 69q37 32 74 48q6 0 10 4q36 14 70 12h14q26 0 82 -18l10 -5q10 -5 13 -8v2q10 -5 -6 6q3 -2 32 -24l15 -14q20 -20 32 -52q0 -1 1 -5t1 -5v2l7 -22q0 -5 2 -9 t2 -14q0 -29 -4 -35q-23 -21 -56 -14q-28 8 -28 41l-1 3q-1 3 -1 7q-6 43 -11 43q-33 23 -49 29q-2 0 -7 2t-7 2q-37 7 -70 -4q-17 -4 -43 -23l-22 -14l2 2q-17 -11 -25 -27q-1 -2 -5 -7t-5 -7q-1 -3 -5 -9t-5 -9q-14 -21 -19 -43l-6 -19q-2 -7 -8.5 -28.5t-10 -34.5 t-7.5 -37.5t-5 -48.5l-6 -33v2q-2 -23 -2 -66l-8 -100v-8q0 -2 -1 -4.5t-1 -3.5l-4 -21q0 -33 -4 -69v-45q0 -19 2 -29q0 -5 1 -15t1 -14v-102q0 -4 1 -11t1 -10q2 -6 2 -35q0 -3 0.5 -17.5t1.5 -51.5t2 -86v-86q6 -47 16 -80q29 -49 62 -66q24 -15 71 -28q43 -10 72 -4 q33 2 60 22q18 12 30 27l-2 -2l4 8q9 23 9 33q1 13 2.5 21t6 16.5t14 13.5t24.5 6q58 -7 45 -76q-1 -5 -4.5 -15t-4.5 -15q0 -5 -4 -9q-2 -2 -2 -4l-8 -16q-1 -1 -4.5 -7.5t-6.5 -11t-7 -6.5q-15 -10 -23 -18q-2 -2 -7 -6t-7 -6l-25 -17q-7 -5 -35 -14q-24 -4 -36 -8 q-1 -1 -2 -5.5t-2 -5.5l-19 -28l-14 -17q23 6 45 2q2 0 7 -1t7 -1q53 -10 78 -55q14 -28 14 -51q0 -27 -15.5 -54t-35.5 -40q-32 -24 -47 -29q-68 -9 -107 0q-2 2 -8 2q-21 3 -41 8q-8 4 -20 8q-20 8 -60 43q-13 17 -6 33q10 25 21.5 31t36.5 -4l24 -12q1 -1 4 -3.5t4 -3.5 v2q54 -32 107 -22q26 4 37 8q11 6 14 21t-2 24q-21 21 -55 19q-11 0 -33 -13v2q-18 -12 -47 -12q-11 0 -19.5 6.5t-12 12.5t-11.5 22q-12 22 16 64q5 8 16.5 26.5t16.5 26.5q-3 1 -9 2t-9 2q-4 2 -13 2q-34 8 -55 18l-72 56q-15 15 -28 41v-2q-3 5 -7.5 12t-7.5 12 q-28 59 -28 158q0 5 1 15.5t1 15.5v28q0 6 1 19.5t1 19.5v39q-2 20 -2 74v35q0 6 -1 17t-1 17q-2 31 -2 109z" />
<glyph unicode="&#xc8;" horiz-adv-x="417" d="M82 1674q9 32 33 37q31 5 55 -23q4 -5 22 -29q3 -4 12 -14l9 -12q3 -4 10 -12.5t10 -12.5q32 -36 45 -55q3 -6 11 -14q10 -10 24 -35q7 -15 -4.5 -35t-28.5 -23q-19 -3 -28.5 3.5t-29.5 31.5q-5 5 -7 8q-5 5 -16 23q-2 2 -3.5 5.5t-3 5.5t-2.5 3q-8 8 -18 23 q-12 15 -27 30l-14 15l-37 47q-15 12 -12 33zM90 942v35v63q2 37 2 140q0 131 -2 192q0 42 25 58q17 10 49 6h10q2 0 5.5 -1t4.5 -1h62q39 0 55 -2h10q38 3 62 -15q14 -12 6 -51q-7 -10 -17 -16q-41 -7 -129 -2h-14q-3 0 -8 -1t-8 -1h-19h-6v-89q0 -49 2 -69q3 -79 1.5 -133 t2.5 -133q10 -2 45 -2h41q14 0 21 -1t16 -5.5t13.5 -15t5.5 -28.5q3 -22 -20.5 -30t-53.5 -6h-16q-2 0 -6.5 1t-6.5 1h-16h-25q2 -5 2 -7v-18q0 -3 -1 -9.5t-1 -10.5l4 -529q0 -6 -1 -23t-1 -26v-76q0 -5 1 -15t1 -16v-14h129q57 5 68 -24q8 -22 -3.5 -45t-31.5 -23 q-4 0 -14 -1t-15 -1h-28q-86 -5 -133 4q-21 2 -40 14.5t-22 30.5q-4 43 -4 96q0 7 1 21.5t1 21.5v70v66q0 1 0.5 6.5t1 18t0.5 30.5q0 229 -2 342v15q-1 14 -1.5 51t-0.5 92v32q0 5 -1 16.5t-1 16.5z" />
<glyph unicode="&#xc9;" horiz-adv-x="417" d="M90 942v35v63q2 37 2 140q0 131 -2 192q0 42 25 58q17 10 49 6h10q2 0 5.5 -1t4.5 -1h62q39 0 55 -2h10q38 3 62 -15q14 -12 6 -51q-7 -10 -17 -16q-41 -7 -129 -2h-14q-3 0 -8 -1t-8 -1h-19h-6v-89q0 -49 2 -69q3 -79 1.5 -133t2.5 -133q10 -2 45 -2h41q14 0 21 -1 t16 -5.5t13.5 -15t5.5 -28.5q3 -22 -20.5 -30t-53.5 -6h-16q-2 0 -6.5 1t-6.5 1h-16h-25q2 -5 2 -7v-18q0 -3 -1 -9.5t-1 -10.5l4 -529q0 -6 -1 -23t-1 -26v-76q0 -5 1 -15t1 -16v-14h129q57 5 68 -24q8 -22 -3.5 -45t-31.5 -23q-4 0 -14 -1t-15 -1h-28q-86 -5 -133 4 q-21 2 -40 14.5t-22 30.5q-4 43 -4 96q0 7 1 21.5t1 21.5v70v66q0 1 0.5 6.5t1 18t0.5 30.5q0 229 -2 342v15q-1 14 -1.5 51t-0.5 92v32q0 5 -1 16.5t-1 16.5zM201 1489q-3 24 14 41q6 6 13 20q1 2 7 12l9 15q16 20 20 24q14 21 17 25q10 10 14 18q1 1 4 5.5t4 5.5 q12 12 17 22q2 9 10.5 18t20.5 9q49 0 51 -43q2 -31 -47 -86q-7 -9 -17 -23.5t-12 -17.5q-2 -2 -4.5 -6t-3.5 -5l-17 -26q0 -1 -1 -3t-1 -3q-12 -32 -43 -39q-18 0 -35 9.5t-20 27.5z" />
<glyph unicode="&#xca;" horiz-adv-x="417" d="M90 942v35v63q2 37 2 140q0 131 -2 192q0 42 25 58q17 10 49 6h10q2 0 5.5 -1t4.5 -1h62q39 0 55 -2h10q38 3 62 -15q14 -12 6 -51q-7 -10 -17 -16q-41 -7 -129 -2h-14q-3 0 -8 -1t-8 -1h-19h-6v-89q0 -49 2 -69q3 -79 1.5 -133t2.5 -133q10 -2 45 -2h41q14 0 21 -1 t16 -5.5t13.5 -15t5.5 -28.5q3 -22 -20.5 -30t-53.5 -6h-16q-2 0 -6.5 1t-6.5 1h-16h-25q2 -5 2 -7v-18q0 -3 -1 -9.5t-1 -10.5l4 -529q0 -6 -1 -23t-1 -26v-76q0 -5 1 -15t1 -16v-14h129q57 5 68 -24q8 -22 -3.5 -45t-31.5 -23q-4 0 -14 -1t-15 -1h-28q-86 -5 -133 4 q-21 2 -40 14.5t-22 30.5q-4 43 -4 96q0 7 1 21.5t1 21.5v70v66q0 1 0.5 6.5t1 18t0.5 30.5q0 229 -2 342v15q-1 14 -1.5 51t-0.5 92v32q0 5 -1 16.5t-1 16.5zM99.5 1460q-1.5 10 8.5 23v6q1 4 3.5 10t7 18.5t8.5 22.5q5 12 18.5 40.5t18.5 39.5q1 3 3 8.5t3 8.5q9 24 18 39 q16 26 43 26q23 0 29.5 -2t19.5 -12q19 -16 43 -78q5 -10 7 -12q3 -11 16 -31v-2q4 -6 20 -49q2 -4 6.5 -16.5t6.5 -16.5q0 -12 -16 -28.5t-29 -16.5q-7 3 -14.5 9t-11.5 11l-3 5l-57 94v2q-2 4 -5.5 7t-5.5 7q-6 -6 -10 -14q-1 -2 -3.5 -12.5t-8 -23.5t-15.5 -28l-10 -20 q-12 -21 -25 -28.5t-46 -4.5q-18 8 -19.5 18z" />
<glyph unicode="&#xcb;" horiz-adv-x="417" d="M39 1538v25q-3 23 22 51q17 24 70 24q15 0 35 -10q8 -5 27 -33q15 -34 0 -69q-16 -24 -29 -37q-2 -1 -6.5 -4.5t-8 -6t-6.5 -3.5q-26 -5 -49 4q-8 0 -20 8q-1 1 -4 3t-5 4t-2 3q-20 12 -24 41zM90 942v35v63q2 37 2 140q0 131 -2 192q0 42 25 58q17 10 49 6h10 q2 0 5.5 -1t4.5 -1h62q39 0 55 -2h10q38 3 62 -15q14 -12 6 -51q-7 -10 -17 -16q-41 -7 -129 -2h-14q-3 0 -8 -1t-8 -1h-19h-6v-89q0 -49 2 -69q3 -79 1.5 -133t2.5 -133q10 -2 45 -2h41q14 0 21 -1t16 -5.5t13.5 -15t5.5 -28.5q3 -22 -20.5 -30t-53.5 -6h-16q-2 0 -6.5 1 t-6.5 1h-16h-25q2 -5 2 -7v-18q0 -3 -1 -9.5t-1 -10.5l4 -529q0 -6 -1 -23t-1 -26v-76q0 -5 1 -15t1 -16v-14h129q57 5 68 -24q8 -22 -3.5 -45t-31.5 -23q-4 0 -14 -1t-15 -1h-28q-86 -5 -133 4q-21 2 -40 14.5t-22 30.5q-4 43 -4 96q0 7 1 21.5t1 21.5v70v66q0 1 0.5 6.5 t1 18t0.5 30.5q0 229 -2 342v15q-1 14 -1.5 51t-0.5 92v32q0 5 -1 16.5t-1 16.5zM254 1561q0 13 16 35t31 34q25 15 49 8l42 -23q10 -4 9 -1q1 -1 3 -2q1 0 1.5 -0.5t0.5 -1.5q16 -16 18 -49q0 -19 -4 -27q0 -1 -1 -4t-1 -4q-2 -2 -6 -13q-8 -20 -21 -28v2q-14 -14 -49 -14 h-12q-8 0 -22 7.5t-21 14.5q-22 19 -25 31q-8 16 -8 35z" />
<glyph unicode="&#xcc;" horiz-adv-x="290" d="M0 1674q9 32 33 37q31 5 55 -23q4 -5 22 -29q3 -4 12 -14l9 -12q3 -4 10 -12.5t10 -12.5q32 -36 45 -55q3 -6 11 -14q10 -10 24 -35q7 -15 -4.5 -35t-28.5 -23q-19 -3 -28.5 3.5t-29.5 31.5q-5 5 -7 8q-6 5 -16 23q-2 2 -3.5 5.5t-3 5.5t-2.5 3q-8 8 -18 23 q-12 15 -27 30l-14 15l-37 47q-15 12 -12 33zM90 936v37v76q2 27 2 86q2 29 2 88v163q-6 17 -2 30.5t27 17.5q46 9 67 -31q9 -39 4 -143v-31q0 -7 -1 -18t-1 -15v-109q0 -8 -0.5 -24t-0.5 -29.5t1 -25.5v-285q0 -4 1 -15t1 -16v-14q2 -39 0 -57q0 -5 -1 -15t-1 -14v-41 q0 -8 -0.5 -24t-0.5 -32.5t1 -33.5v-76q0 -7 -1 -21.5t-1 -21.5v-131q0 -4 1 -11t1 -10v-34q0 -3 1 -11t1 -12q0 -3 1.5 -8.5t1.5 -7.5q0 -31 6 -49q9 -29 -5.5 -50.5t-38 -24t-46.5 10.5v-2q-15 8 -15 53v13q0 2 -1 7.5t-1 8.5q0 5 1 15t1 14v90q-2 16 -2 71v54q0 6 1 29.5 t1 43.5v291q0 6 1 18.5t1 18.5v35q0 30 -4 88v47q0 6 -1 18.5t-1 18.5z" />
<glyph unicode="&#xcd;" horiz-adv-x="290" d="M63 1477q-3 24 14 41q6 6 13 20q1 2 7 12l9 15q16 20 20 24q14 21 17 25q10 10 14 18q1 1 4 5.5t4 5.5q12 12 17 22q2 9 10.5 18t20.5 9q49 0 51 -43q2 -31 -47 -86q-7 -9 -17 -23.5t-12 -17.5q-2 -2 -4.5 -6t-3.5 -5l-17 -26q0 -1 -1 -3t-1 -3q-12 -32 -43 -39 q-18 0 -35 9.5t-20 27.5zM90 936v37v76q2 27 2 86q2 29 2 88v163q-6 17 -2 30.5t27 17.5q46 9 67 -31q9 -39 4 -143v-31q0 -7 -1 -18t-1 -15v-109q0 -8 -0.5 -24t-0.5 -29.5t1 -25.5v-285q0 -4 1 -15t1 -16v-14q2 -39 0 -57q0 -5 -1 -15t-1 -14v-41q0 -8 -0.5 -24 t-0.5 -32.5t1 -33.5v-76q0 -7 -1 -21.5t-1 -21.5v-131q0 -4 1 -11t1 -10v-34q0 -3 1 -11t1 -12q0 -3 1.5 -8.5t1.5 -7.5q0 -31 6 -49q9 -29 -5.5 -50.5t-38 -24t-46.5 10.5v-2q-15 8 -15 53v13q0 2 -1 7.5t-1 8.5q0 5 1 15t1 14v90q-2 16 -2 71v54q0 6 1 29.5t1 43.5v291 q0 6 1 18.5t1 18.5v35q0 30 -4 88v47q0 6 -1 18.5t-1 18.5z" />
<glyph unicode="&#xce;" horiz-adv-x="290" d="M5.5 1462q-1.5 10 8.5 23v6q1 4 3.5 10t7 18.5t8.5 22.5q5 12 18.5 40.5t18.5 39.5q1 3 3 8.5t3 8.5q9 24 18 39q16 26 43 26q23 0 29.5 -2t19.5 -12q19 -16 43 -78q5 -10 7 -12q3 -11 16 -31v-2q4 -6 20 -49q2 -4 6.5 -16.5t6.5 -16.5q0 -12 -16 -28.5t-29 -16.5 q-7 3 -14.5 9t-11.5 11l-3 5l-57 94v2q-2 4 -5.5 7t-5.5 7q-6 -6 -10 -14q-1 -2 -3.5 -12.5t-8 -23.5t-15.5 -28l-10 -20q-12 -21 -25 -28.5t-46 -4.5q-18 8 -19.5 18zM90 936v37v76q2 27 2 86q2 29 2 88v163q-6 17 -2 30.5t27 17.5q46 9 67 -31q9 -39 4 -143v-31 q0 -7 -1 -18t-1 -15v-109q0 -8 -0.5 -24t-0.5 -29.5t1 -25.5v-285q0 -4 1 -15t1 -16v-14q2 -39 0 -57q0 -5 -1 -15t-1 -14v-41q0 -8 -0.5 -24t-0.5 -32.5t1 -33.5v-76q0 -7 -1 -21.5t-1 -21.5v-131q0 -4 1 -11t1 -10v-34q0 -3 1 -11t1 -12q0 -3 1.5 -8.5t1.5 -7.5 q0 -31 6 -49q9 -29 -5.5 -50.5t-38 -24t-46.5 10.5v-2q-15 8 -15 53v13q0 2 -1 7.5t-1 8.5q0 5 1 15t1 14v90q-2 16 -2 71v54q0 6 1 29.5t1 43.5v291q0 6 1 18.5t1 18.5v35q0 30 -4 88v47q0 6 -1 18.5t-1 18.5z" />
<glyph unicode="&#xcf;" horiz-adv-x="290" d="M-53 1538v25q-3 23 22 51q17 24 70 24q15 0 35 -10q7 -4 26 -33q15 -34 0 -69q-18 -27 -28 -37q-2 -1 -6.5 -4.5t-8 -6t-6.5 -3.5q-26 -5 -49 4q-8 0 -20 8q-1 1 -4 3t-5 4t-2 3q-20 12 -24 41zM90 936v37v76q2 27 2 86q2 29 2 88v163q-6 17 -2 30.5t27 17.5q46 9 67 -31 q9 -39 4 -143v-31q0 -7 -1 -18t-1 -15v-109q0 -8 -0.5 -24t-0.5 -29.5t1 -25.5v-285q0 -4 1 -15t1 -16v-14q2 -39 0 -57q0 -5 -1 -15t-1 -14v-41q0 -8 -0.5 -24t-0.5 -32.5t1 -33.5v-76q0 -7 -1 -21.5t-1 -21.5v-131q0 -4 1 -11t1 -10v-34q0 -3 1 -11t1 -12q0 -3 1.5 -8.5 t1.5 -7.5q0 -31 6 -49q9 -29 -5.5 -50.5t-38 -24t-46.5 10.5v-2q-15 8 -15 53v13q0 2 -1 7.5t-1 8.5q0 5 1 15t1 14v90q-2 16 -2 71v54q0 6 1 29.5t1 43.5v291q0 6 1 18.5t1 18.5v35q0 30 -4 88v47q0 6 -1 18.5t-1 18.5zM162 1561q0 13 16 35t31 34q25 15 49 8l42 -23 q10 -4 9 -1l4 -4q17 -17 19 -49q0 -19 -4 -27q0 -1 -1 -4t-1 -4q-4 -4 -7 -13q-8 -21 -20 -28v2q-14 -14 -49 -14h-12q-8 0 -22 7.5t-21 14.5q-22 19 -25 31q-8 16 -8 35z" />
<glyph unicode="&#xd0;" horiz-adv-x="641" d="M27 698q-11 14 6 31q5 10 23 17t34 4q19 -4 27 -2v28q0 3 1 9.5t1 9.5v36q0 5 1 17t1 20v39q0 7 -1 21.5t-1 21.5v74q2 31 -2 98v23q0 4 -1 13t-1 13v66q0 55 -2 82q0 19 -2 27q-5 15 -5 24q0 2 -1 5t-1 5q-5 32 13 52q10 10 24 10q51 4 111 -31v-2q2 0 10 -8 q6 -3 27 -17q52 -41 106 -106q1 -2 11 -12q22 -30 28 -43l-2 2q3 -4 8.5 -14.5t8.5 -14.5l14 -22l4 -17q1 -2 4 -9t4 -9q5 -15 8 -21q17 -38 27 -78q1 -3 3 -11t3 -11q3 -12 6 -27l4 -20l13 -53q13 -60 20 -156q0 -5 1 -15.5t1 -15.5q2 -15 2 -33q0 -83 -6.5 -139 t-26.5 -125l-10 -28q0 -1 -1 -3.5t-1 -3.5l-6 -18l-18 -35q-1 -4 -5.5 -13.5t-5.5 -13.5q-5 -10 -8 -22l-8 -21q-2 -4 -2 -6l-6 -12q-2 -3 -8 -13l-17 -29v1q-4 -6 -14 -16l-10 -15q-4 -5 -13.5 -15t-13.5 -15q-2 -2 -4.5 -6t-3.5 -5q-8 -11 -27 -28l-12 -13q-1 -2 -5 -7 t-5 -7q-29 -33 -80 -59l-21 -11q-4 -2 -8 -6q-7 -7 -31 -16q-46 -4 -75 25q-2 16 -2 59q0 2 1 7t1 7v45q0 7 1 21.5t1 21.5v33q0 6 1 17.5t1 17.5v31q0 5 -1 15.5t-1 16.5q-2 27 -2 95q0 63 2 96q0 22 -2 79t-2 81q-17 0 -25 2q-48 -4 -57 30zM203 264q0 -101 8 -145l12 4 q18 12 31 29l14 14l13 16l28 27q7 9 23.5 27.5t23.5 27.5q20 32 27 53l6 13q4 8 4 10q2 5 5 14.5t5 14.5q14 40 21 67q11 28 22 82q0 4 3 10q2 4 2 7q0 1 1 3.5t1 4.5v8q14 86 14 151q-2 71 -25 209q-1 5 -4 15.5t-4 15.5q-3 20 -10 45q-17 73 -53 166q0 6 -4 10 q-5 15 -15 25q-8 8 -8 10q-3 4 -12.5 17.5t-12.5 17.5q-36 54 -65 72l-21 12l3 -2q-7 3 -31 22q2 -10 2 -41v-77q0 -3 1 -9.5t1 -9.5v-14q2 -12 2 -47q0 -2 1 -7.5t1 -7.5v-14q4 -32 4 -55q0 -59 -2 -84v-174l-1 -21q0 -20 1 -26h111q53 4 61 -37q8 -19 -12 -39 q-6 -7 -31 -17l-12 -2q-44 7 -74 7h-25q-2 0 -10.5 1t-11.5 -1q-2 -41 -2 -121v-58q0 -9 -1 -28t-1 -29q-4 -106 -4 -162z" />
<glyph unicode="&#xd1;" horiz-adv-x="710" d="M96 1376l2 23q0 23 19 33q54 21 71 -29q1 -3 15 -31q13 -27 22 -61q1 -2 8.5 -25.5t12.5 -32.5q1 -3 6.5 -14t7.5 -18l12 -32t13 -34q17 -59 49 -141q42 -114 80 -232q5 -11 8 -24q4 -18 6 -21q0 -1 1 -3.5t1 -4.5q1 -2 2 -8t4 -16.5t6 -22.5l15 -51l14 -64q2 -7 6 -23.5 t6 -23.5l6 -24l15 -50l6 -32v143q0 7 -1 21t-1 20v203q0 38 -2 63q-2 46 2 123q4 94 2 141q-4 74 -4 121q0 31 4 117v20q-4 28 16 48q29 9 62 -7q24 -30 20 -69q0 -8 -1 -18.5t-1 -12.5v-10q-4 -69 0 -105v-100q3 -47 0 -98q-4 -66 0 -99v-213q4 -56 0 -104v-27 q0 -5 -1 -15.5t-1 -14.5v-82q0 -3 -1 -9.5t-1 -9.5v-94v-119q0 -35 -2 -45v2q-4 -41 0 -69l2 -43q3 -29 -10.5 -52t-38.5 -26q-31 4 -41.5 12.5t-13.5 26.5q0 2 -4 10q-9 22 -9 35v10q0 2 -1 4.5t-1 3.5q-1 5 -4 15.5t-4 15.5q-1 2 -6 43q0 1 -1 3t-1 3l-4 21l-14 61 q-7 34 -21 90q-1 3 -12 47q-7 40 -21 78l-41 168q-6 17 -14.5 47.5t-9.5 34.5q-3 10 -10.5 33.5t-10.5 36.5l-10 32q-1 3 -4 11t-5.5 14t-4.5 10l-13 43q-1 4 -4 13.5t-4 13.5q-3 12 -11 34t-11 33q-4 8 -9 23q-13 39 -16 45l-16 49v-27l2 -155q0 -74 2 -105q4 -92 2 -135 q4 -14 0 -47v-70q0 -3 1 -10.5t1 -11.5v-109q0 -77 2 -114v-176q0 -40 2 -60q0 -1 1 -4t1 -4v-8q5 -39 -2 -62q-12 -26 -41 -26q-15 0 -35 8q-26 17 -22 59v103q0 131 -9 473v39q-2 80 -2 282q0 295 -8 422zM201 1489q2 11 20 29q35 25 43 29q17 6 35 8t45 2q18 0 56 -17 q2 -1 5 -1.5t7 -2.5q16 -8 26 -8q7 0 35 14q2 1 7.5 3.5t7.5 3.5q14 6 28 6q9 0 26 -18.5t17 -32.5q0 -23 -24 -37h2q-5 -3 -17.5 -9.5t-17.5 -9.5v2l-4 -4q-20 -12 -45 -12q-25 -2 -80 20q-3 1 -10.5 4.5t-10.5 4.5q-10 4 -26 4q-28 0 -47 -15l-8 -8q-19 -19 -31 -14 q-18 3 -29.5 25t-9.5 34z" />
<glyph unicode="&#xd2;" horiz-adv-x="655" d="M68 760q0 63 4 149q0 2 1 7.5t1 7.5v14q0 27 2 37q0 25 4 49q0 3 1 12.5t1 12.5q4 29 8 79q9 108 51 197q7 17 19 29q23 34 49 57q13 9 41.5 21.5t46.5 13.5q65 4 106 -12q26 -9 56 -35q16 -14 41 -51h-2q29 -42 45 -119q2 -9 6 -29t6 -29q9 -67 12 -153v-78 q0 -6 1 -18.5t1 -18.5q0 -50 4 -104q4 -38 2 -58q0 -5 -1 -14.5t-1 -13.5v-23q-2 -14 -2 -51v-180q7 -30 -2 -97q0 -2 -1 -5t-1 -5l-10 -116q-2 -10 -2 -19q0 -32 -20 -82l-9 -18q-22 -49 -37 -68q-25 -32 -49 -43l-14 -8l-10 -4q-8 -4 -35 -4q-58 -8 -100 4q-32 7 -54 22 q-4 2 -9.5 7.5t-9.5 10.5l-3 5q-3 4 -16.5 18.5t-14.5 16.5h2l-16 16q-17 20 -25 35q-46 94 -57 291q0 14 -2 20q0 3 -1 11.5t-1 11.5v14q-4 98 -4 176v53q0 9 -1 28.5t-1 29.5zM156 1686q9 32 33 37q31 5 55 -23q4 -5 22 -29q3 -4 12 -14l9 -12q3 -4 10 -12.5t10 -12.5 q32 -36 45 -55q3 -6 11 -14q10 -10 24 -35q7 -15 -4.5 -35t-28.5 -23q-19 -3 -28.5 3.5t-29.5 31.5q-5 5 -7 8q-6 5 -16 23q-2 2 -3.5 5.5t-3 5.5t-2.5 3q-8 8 -18 23q-12 15 -27 30l-14 15l-37 47q-15 12 -12 33zM166 692q-2 -41 2 -121q2 -20 2 -69q0 -46 2 -64 q4 -24 4 -43q4 -52 8 -82q0 -1 1 -4t1 -4q11 -64 15 -76q0 -1 1 -4.5t1 -5.5l8 -24q9 -22 12 -25q10 -10 13 -16l-3 2q1 -2 5 -7l6 -10q14 -19 49 -45q26 -22 63 -22q22 6 31 10q47 25 53 68l11 24q0 3 2 11.5t2 11.5q8 39 8 73q0 3 1 9.5t1 9.5q0 16 1 31t1 18v14 q8 63 8 197q0 76 2 115v188q0 7 -1 21.5t-1 21.5v35q0 15 -4 43q0 8 -1 15.5t-1 10.5q-4 26 -2 70q0 31 -2 45l-6 72q-5 38 -8 53t-11 36t-22 38q-4 4 -10.5 9.5t-8.5 8.5l-14 15q-7 7 -27 10q-51 9 -88 -15q-6 -4 -16 -14l-12 -12q-7 -7 -11 -15q-11 -14 -16 -38 q-4 -8 -20 -60q-7 -19 -11 -78q0 -29 -2 -37q0 -23 -4 -43q0 -2 -1 -9t-1 -9t-1 -7t-1 -9v-11q-4 -50 -4 -71q-2 -6 -2 -17v-104l-2 -72v-43z" />
<glyph unicode="&#xd3;" horiz-adv-x="655" d="M68 760q0 63 4 149q0 2 1 7.5t1 7.5v14q0 27 2 37q0 25 4 49q0 3 1 12.5t1 12.5q4 29 8 79q9 108 51 197q7 17 19 29q23 34 49 57q13 9 41.5 21.5t46.5 13.5q65 4 106 -12q26 -9 56 -35q16 -14 41 -51h-2q29 -42 45 -119q2 -9 6 -29t6 -29q9 -67 12 -153v-78 q0 -6 1 -18.5t1 -18.5q0 -50 4 -104q4 -38 2 -58q0 -5 -1 -14.5t-1 -13.5v-23q-2 -14 -2 -51v-180q7 -30 -2 -97q0 -2 -1 -5t-1 -5l-10 -116q-2 -10 -2 -19q0 -32 -20 -82l-9 -18q-22 -49 -37 -68q-25 -32 -49 -43l-14 -8l-10 -4q-8 -4 -35 -4q-58 -8 -100 4q-32 7 -54 22 q-4 2 -9.5 7.5t-9.5 10.5l-3 5q-3 4 -16.5 18.5t-14.5 16.5h2l-16 16q-17 20 -25 35q-46 94 -57 291q0 14 -2 20q0 3 -1 11.5t-1 11.5v14q-4 98 -4 176v53q0 9 -1 28.5t-1 29.5zM166 692q-2 -41 2 -121q2 -20 2 -69q0 -46 2 -64q4 -24 4 -43q4 -52 8 -82q0 -1 1 -4t1 -4 q11 -64 15 -76q0 -1 1 -4.5t1 -5.5l8 -24q9 -22 12 -25q10 -10 13 -16l-3 2q1 -2 5 -7l6 -10q14 -19 49 -45q26 -22 63 -22q22 6 31 10q47 25 53 68l11 24q0 3 2 11.5t2 11.5q8 39 8 73q0 3 1 9.5t1 9.5q0 16 1 31t1 18v14q8 63 8 197q0 76 2 115v188q0 7 -1 21.5t-1 21.5 v35q0 15 -4 43q0 8 -1 15.5t-1 10.5q-4 26 -2 70q0 31 -2 45l-6 72q-5 38 -8 53t-11 36t-22 38q-4 4 -10.5 9.5t-8.5 8.5l-14 15q-7 7 -27 10q-51 9 -88 -15q-6 -4 -16 -14l-12 -12q-7 -7 -11 -15q-11 -14 -16 -38q-4 -8 -20 -60q-7 -19 -11 -78q0 -29 -2 -37q0 -23 -4 -43 q0 -2 -1 -9t-1 -9t-1 -7t-1 -9v-11q-4 -50 -4 -71q-2 -6 -2 -17v-104l-2 -72v-43zM262 1497q-3 24 14 41q6 6 13 20q1 2 7 12l9 15q16 20 20 24q14 21 17 25q10 10 14 18q1 1 4 5.5t4 5.5q12 12 17 22q2 9 10.5 18t20.5 9q49 0 51 -43q2 -31 -47 -86q-7 -9 -17 -23.5 t-12 -17.5q-2 -2 -4.5 -6t-3.5 -5l-17 -26q0 -1 -1 -3t-1 -3q-12 -32 -43 -39q-18 0 -35 9.5t-20 27.5z" />
<glyph unicode="&#xd4;" horiz-adv-x="655" d="M68 760q0 63 4 149q0 2 1 7.5t1 7.5v14q0 27 2 37q0 25 4 49q0 3 1 12.5t1 12.5q4 29 8 79q9 108 51 197q7 17 19 29q23 34 49 57q13 9 41.5 21.5t46.5 13.5q65 4 106 -12q26 -9 56 -35q16 -14 41 -51h-2q29 -42 45 -119q2 -9 6 -29t6 -29q9 -67 12 -153v-78 q0 -6 1 -18.5t1 -18.5q0 -50 4 -104q4 -38 2 -58q0 -5 -1 -14.5t-1 -13.5v-23q-2 -14 -2 -51v-180q7 -30 -2 -97q0 -2 -1 -5t-1 -5l-10 -116q-2 -10 -2 -19q0 -32 -20 -82l-9 -18q-22 -49 -37 -68q-25 -32 -49 -43l-14 -8l-10 -4q-8 -4 -35 -4q-58 -8 -100 4q-32 7 -54 22 q-4 2 -9.5 7.5t-9.5 10.5l-3 5q-3 4 -16.5 18.5t-14.5 16.5h2l-16 16q-17 20 -25 35q-46 94 -57 291q0 14 -2 20q0 3 -1 11.5t-1 11.5v14q-4 98 -4 176v53q0 9 -1 28.5t-1 29.5zM166 692q-2 -41 2 -121q2 -20 2 -69q0 -46 2 -64q4 -24 4 -43q4 -52 8 -82q0 -1 1 -4t1 -4 q11 -64 15 -76q0 -1 1 -4.5t1 -5.5l8 -24q9 -22 12 -25q10 -10 13 -16l-3 2q1 -2 5 -7l6 -10q14 -19 49 -45q26 -22 63 -22q22 6 31 10q47 25 53 68l11 24q0 3 2 11.5t2 11.5q8 39 8 73q0 3 1 9.5t1 9.5q0 16 1 31t1 18v14q8 63 8 197q0 76 2 115v188q0 7 -1 21.5t-1 21.5 v35q0 15 -4 43q0 8 -1 15.5t-1 10.5q-4 26 -2 70q0 31 -2 45l-6 72q-5 38 -8 53t-11 36t-22 38q-4 4 -10.5 9.5t-8.5 8.5l-14 15q-7 7 -27 10q-51 9 -88 -15q-6 -4 -16 -14l-12 -12q-7 -7 -11 -15q-11 -14 -16 -38q-4 -8 -20 -60q-7 -19 -11 -78q0 -29 -2 -37q0 -23 -4 -43 q0 -2 -1 -9t-1 -9t-1 -7t-1 -9v-11q-4 -50 -4 -71q-2 -6 -2 -17v-104l-2 -72v-43zM189.5 1470q-1.5 10 8.5 23v6q1 4 3.5 10t7 18.5t8.5 22.5q5 11 18.5 40t18.5 40q1 3 3 8.5t3 8.5q9 24 18 39q16 26 43 26q23 0 29.5 -2t19.5 -12q19 -16 43 -78q5 -10 7 -12q3 -11 16 -31 v-2q4 -6 20 -49q2 -4 6.5 -16.5t6.5 -16.5q0 -12 -16 -28.5t-29 -16.5q-7 3 -14.5 9t-11.5 11l-3 5l-57 94v2q-2 4 -5.5 7t-5.5 7q-6 -6 -10 -14q-1 -2 -3.5 -12.5t-8 -23.5t-15.5 -28l-10 -20q-12 -21 -25 -28.5t-46 -4.5q-18 8 -19.5 18z" />
<glyph unicode="&#xd5;" horiz-adv-x="655" d="M68 760q0 63 4 149q0 2 1 7.5t1 7.5v14q0 27 2 37q0 25 4 49q0 3 1 12.5t1 12.5q4 29 8 79q9 108 51 197q7 17 19 29q23 34 49 57q13 9 41.5 21.5t46.5 13.5q65 4 106 -12q26 -9 56 -35q16 -14 41 -51h-2q29 -42 45 -119q2 -9 6 -29t6 -29q9 -67 12 -153v-78 q0 -6 1 -18.5t1 -18.5q0 -50 4 -104q4 -38 2 -58q0 -5 -1 -14.5t-1 -13.5v-23q-2 -14 -2 -51v-180q7 -30 -2 -97q0 -2 -1 -5t-1 -5l-10 -116q-2 -10 -2 -19q0 -32 -20 -82l-9 -18q-22 -49 -37 -68q-25 -32 -49 -43l-14 -8l-10 -4q-8 -4 -35 -4q-58 -8 -100 4q-32 7 -54 22 q-4 2 -9.5 7.5t-9.5 10.5l-3 5q-3 4 -16.5 18.5t-14.5 16.5h2l-16 16q-17 20 -25 35q-46 94 -57 291q0 14 -2 20q0 3 -1 11.5t-1 11.5v14q-4 98 -4 176v53q0 9 -1 28.5t-1 29.5zM156 1513q2 11 20 29q35 25 43 29q17 6 35 8t45 2q18 0 56 -17q1 -1 4 -1.5t8 -2.5 q16 -8 26 -8q7 0 35 14q2 1 7.5 3.5t7.5 3.5q14 6 28 6q9 0 26 -18.5t17 -32.5q0 -23 -24 -37h2q-5 -3 -17.5 -9.5t-17.5 -9.5v2l-4 -4q-20 -12 -45 -12q-25 -2 -80 20q-3 1 -10.5 4.5t-10.5 4.5q-10 4 -26 4q-28 0 -47 -15l-8 -8q-19 -19 -31 -14q-18 3 -29.5 25t-9.5 34z M166 692q-2 -41 2 -121q2 -20 2 -69q0 -46 2 -64q4 -24 4 -43q4 -52 8 -82q0 -1 1 -4t1 -4q11 -64 15 -76q0 -1 1 -4.5t1 -5.5l8 -24q9 -22 12 -25q10 -10 13 -16l-3 2q1 -2 5 -7l6 -10q14 -19 49 -45q26 -22 63 -22q22 6 31 10q47 25 53 68l11 24q0 3 2 11.5t2 11.5 q8 39 8 73q0 3 1 9.5t1 9.5q0 16 1 31t1 18v14q8 63 8 197q0 76 2 115v188q0 7 -1 21.5t-1 21.5v35q0 15 -4 43q0 8 -1 15.5t-1 10.5q-4 26 -2 70q0 31 -2 45l-6 72q-5 38 -8 53t-11 36t-22 38q-4 4 -10.5 9.5t-8.5 8.5l-14 15q-7 7 -27 10q-51 9 -88 -15q-6 -4 -16 -14 l-12 -12q-7 -7 -11 -15q-11 -14 -16 -38q-4 -8 -20 -60q-7 -19 -11 -78q0 -29 -2 -37q0 -23 -4 -43q0 -2 -1 -9t-1 -9t-1 -7t-1 -9v-11q-4 -50 -4 -71q-2 -6 -2 -17v-104l-2 -72v-43z" />
<glyph unicode="&#xd6;" horiz-adv-x="655" d="M68 760q0 63 4 149q0 2 1 7.5t1 7.5v14q0 27 2 37q0 25 4 49q0 3 1 12.5t1 12.5q4 29 8 79q9 108 51 197q7 17 19 29q23 34 49 57q13 9 41.5 21.5t46.5 13.5q65 4 106 -12q26 -9 56 -35q16 -14 41 -51h-2q29 -42 45 -119q2 -9 6 -29t6 -29q9 -67 12 -153v-78 q0 -6 1 -18.5t1 -18.5q0 -50 4 -104q4 -38 2 -58q0 -5 -1 -14.5t-1 -13.5v-23q-2 -14 -2 -51v-180q7 -30 -2 -97q0 -2 -1 -5t-1 -5l-10 -116q-2 -10 -2 -19q0 -32 -20 -82l-9 -18q-22 -49 -37 -68q-25 -32 -49 -43l-14 -8l-10 -4q-8 -4 -35 -4q-58 -8 -100 4q-32 7 -54 22 q-4 2 -9.5 7.5t-9.5 10.5l-3 5q-3 4 -16.5 18.5t-14.5 16.5h2l-16 16q-17 20 -25 35q-46 94 -57 291q0 14 -2 20q0 3 -1 11.5t-1 11.5v14q-4 98 -4 176v53q0 9 -1 28.5t-1 29.5zM137 1540v23q-2 19 23 51q21 24 71 24q13 0 33 -10q8 -5 27 -33q6 -13 6.5 -32t-6.5 -35 q-16 -24 -29 -37q-11 -11 -20 -14q-28 -6 -47 4q-12 0 -23 8q0 1 -2 2.5t-4.5 3t-3.5 2.5q-18 13 -25 43zM166 692q-2 -41 2 -121q2 -20 2 -69q0 -46 2 -64q4 -24 4 -43q4 -52 8 -82q0 -1 1 -4t1 -4q11 -64 15 -76q0 -1 1 -4.5t1 -5.5l8 -24q9 -22 12 -25q10 -10 13 -16 l-3 2q1 -2 5 -7l6 -10q14 -19 49 -45q26 -22 63 -22q22 6 31 10q47 25 53 68l11 24q0 3 2 11.5t2 11.5q8 39 8 73q0 3 1 9.5t1 9.5q0 16 1 31t1 18v14q8 63 8 197q0 76 2 115v188q0 7 -1 21.5t-1 21.5v35q0 15 -4 43q0 8 -1 15.5t-1 10.5q-4 26 -2 70q0 31 -2 45l-6 72 q-5 38 -8 53t-11 36t-22 38q-4 4 -10.5 9.5t-8.5 8.5l-14 15q-7 7 -27 10q-51 9 -88 -15q-6 -4 -16 -14l-12 -12q-7 -7 -11 -15q-11 -14 -16 -38q-4 -8 -20 -60q-7 -19 -11 -78q0 -29 -2 -37q0 -23 -4 -43q0 -2 -1 -9t-1 -9t-1 -7t-1 -9v-11q-4 -50 -4 -71q-2 -6 -2 -17 v-104l-2 -72v-43zM352 1561q0 13 15.5 35.5t31.5 33.5q22 15 47 8l43 -23q10 -4 9 -1l4 -4q16 -13 18 -49q0 -15 -4 -27q0 -1 -1 -3t-1 -3l-6 -12q-9 -22 -21 -29v2q-12 -14 -49 -14h-12q-16 0 -43 20q-20 20 -23 33q-8 16 -8 33z" />
<glyph unicode="&#xd7;" horiz-adv-x="598" d="M113 1174q10 18 38.5 24t41.5 -2q23 -22 26 -47l2 -12q1 -1 2 -3.5t2 -3.5l15 -24q3 -8 10 -19l2 -4q2 -3 7 -11t7 -11q2 -2 6.5 -7t6.5 -7q0 -1 1.5 -4.5t3.5 -8t3 -6.5q0 -4 2 -6q0 1 1 3t1 3l10 16q3 6 18 31h3q8 11 10 21l33 51l-3 -2q5 15 15 35q9 28 31 37 q20 0 47 -9q12 -12 18 -30q0 -30 -16 -58q-2 -2 -6 -10l2 2l-9 -16q-24 -40 -32 -58q-9 -22 -17 -32q-3 -5 -9 -16.5t-9 -16.5v2q-1 -2 -5 -7t-5 -7t-3.5 -4.5t-3.5 -4.5q-12 -20 -12 -22q2 -3 7 -12.5t7 -12.5q1 -1 2.5 -3t2.5 -3q4 -6 6 -10q4 -8 8 -12q7 -18 10 -21 l17 -20q16 -27 16 -31q3 -8 18 -35q2 -2 17 -12q18 -27 20 -33q0 -38 -33 -53l-47 8q-12 8 -20 12l-31 53h2l-12 13q0 4 -2 8q-8 10 -17 31q-8 16 -18 26q-1 1 -2 3.5l-2 5t-2 2.5l-4 4l-6 -11l-19 -32l-20 -41q-6 -15 -10 -21q-1 -2 -5.5 -9t-5.5 -9l-6 -6q-15 -22 -33 -35 q-49 5 -67 28q0 44 18 62q1 2 5 9t5 9q3 9 15 21h-2q6 12 10 16q2 4 2 8l4 9l14 28l21 31l12 14q10 15 13 21q-3 6 -9 12l-8 16l-14 19l-39 72l2 -2q-2 3 -6 12t-6 12q-22 33 -29 47l2 -2q-20 29 -16 58z" />
<glyph unicode="&#xd8;" d="M2 156q2 21 16 45v-2q1 3 5.5 9t5.5 9q10 13 10 25q2 2 2 6l20 47q3 7 11.5 24.5t11.5 24.5v-2q2 31 2 115v57q0 10 1 32t1 32q2 20 2 59q0 5 1 15.5t1 15.5v63q0 5 -1 15.5t-1 15.5v92q0 8 2 16q0 1 1 4t1 5v10q2 16 2 53t2 51q0 2 1 8t1 9q4 16 4 18v29q0 2 1 5t1 5 l3 10v6q-5 11 2 37q-4 12 0 41v29q4 46 4 74q0 76 57 139l6 2q7 7 19 12l20 10q1 0 3 1.5t3 1.5q24 6 41 6q2 0 5.5 1t6.5 1q32 4 58 -4q1 0 3 -1t3 -1q10 -5 16 -7l13 -8h6l20 -10q20 -13 25 -31v-2q4 -8 8 -12q5 -7 18 -33q0 -19 3 -37q2 -34 6 -112q0 2 4 6v4q6 10 6 12 l6 17l8 24q3 5 6 13t4 10q3 11 13 23.5t20 15.5q24 0 50 -13t26 -32q0 -23 -16 -39q-4 -4 -4 -9l-21 -41q-2 -5 -6 -14t-6 -14q-17 -39 -27 -68q-25 -42 -35 -71q-2 -5 -7 -14.5t-7 -14.5l-12 -25l-6 -18q0 -2 -1 -8.5t-1 -8.5v-16q-19 -345 -21 -543q6 -6 6 -28 q-6 -15 -2 -35q0 -2 1 -6t1 -6v-13q0 -12 -4 -28q-2 -8 -2 -17v-24q0 -21 -2 -31l-1 -5q-1 -5 -1 -9q0 -1 -1 -5.5t-1 -5.5q-12 -60 -39 -90q-1 -1 -3 -5t-3 -5l-6 -6l-19 -17q-6 -2 -16 -12q-56 -17 -127 -10q-11 0 -19 8q-6 0 -10 4q-3 3 -16 14t-17 15t-12 16v2 q-2 2 -6 2l-8 23q0 2 -4 6q-6 6 -8 12q-17 20 -17 41l-22 -22q-18 -8 -43 4.5t-25 32.5zM184 330q2 -55 11 -162q0 -21 6 -33l4 -8v2l6 -12q1 -1 2 -3t2 -3l12 -17q9 -9 15 -12l6 1q5 1 10 1q1 0 3.5 1t4.5 1h10q6 6 19 6l12 12q1 1 3 4.5t3 4.5l2 2l7 14q0 1 1 5.5t1 6.5 q1 4 6 29q4 16 4 45v18q0 1 1 4t1 7v14q-2 53 -2 152q4 94 4 137q0 12 1 33.5t1 31.5v76q-52 -120 -55 -125q-4 -10 -22 -48.5t-25 -57.5q-28 -59 -54 -127zM184 573l2 2q0 7 7 17q17 35 22 51q5 15 8 21q19 42 23 55l8 10l-2 -2l6 12q0 9 6 21q1 2 4 6t4 6q0 6 4 14 q5 9 7 15q6 15 12 33q22 27 33 61q1 2 3 8t3 8q1 3 4 9.5t4 9.5q8 24 10 26q0 11 2 17v-2q4 70 4 203v36q-4 6 -4 19l2 51q-6 12 -6 35q0 2 -2 2h-2q-2 2 -10 18q-34 15 -55 11q-45 -14 -54 -29q-20 -29 -20 -123v-68q2 -6 2 -26q-5 -28 -10 -90q0 -9 -2 -29t-2 -29 q-5 -68 -5 -80q0 -6 -1 -19t-1 -19v-19q0 -4 -1 -11.5t-1 -10.5v-86l2 -86z" />
<glyph unicode="&#xd9;" horiz-adv-x="651" d="M70 565v211q0 12 1 35t1 35v217q-3 44 2 123v196q0 17 1 26t9.5 19.5t24.5 12.5q2 -2 14.5 0t27.5 -9.5t15 -35.5v-88q0 -40 -2 -52q0 -135 2 -153q0 -8 1 -22.5t1 -22.5v-96q0 -9 -1 -28t-1 -28v-123q0 -3 -1 -10t-1 -10v-232q0 -29 2 -43v-16q0 -3 1 -26t1 -46 q0 -29 2 -41q6 -49 14 -96v-2q4 -16 19 -72l8 -28q19 -44 43 -64q13 -12 40 -17.5t48 -0.5q26 9 37 18q1 2 7 9.5t14.5 18t11.5 13.5q20 27 20 39q4 21 8 27q1 7 4.5 19t4.5 16q0 6 6 36q4 20 4 27q4 24 4 33q0 27 2 37v-2q6 72 10 198v211q-4 56 -2 80q0 30 4 70v10 q4 46 4 63v39v27q-5 44 -2 72q0 42 -2 65q0 6 -1 18.5t-1 18.5v143q0 29 17 48q28 14 65 -7h-2q21 -10 16 -59v-338v-108q0 -4 -1 -12.5t-1 -12.5q-2 -8 -2 -25v-18q0 -3 1 -10.5t1 -10.5v-75v-80v-80q0 -7 -1 -21.5t-1 -21.5q0 -138 -8 -211q-2 -8 -2 -12l-6 -51 q0 -2 -1 -6.5t-1 -6.5v-8l-14 -53q0 -3 -5 -8q-1 -1 -1.5 -3.5t-1 -6.5t-1.5 -7q0 -13 -6 -22q-3 -6 -6 -15q0 -7 -10 -22q-9 -9 -12 -21q-5 -10 -11 -18l2 2q-1 -2 -3.5 -5t-4.5 -7q-11 -18 -20 -25q-23 -23 -58 -45q-51 -23 -129 -8q-20 2 -51 20q-39 23 -55 41l-12 23 q0 8 -5 8q-12 16 -12 20q-7 14 -10 23q0 1 -10 31q-17 68 -31 143q-12 94 -12 262zM146 1671q9 32 33 37q31 5 55 -23q4 -5 22 -29q3 -4 12 -14l9 -12q3 -4 10 -12.5t10 -12.5q32 -36 45 -55q3 -6 11 -14q10 -10 24 -35q7 -15 -4.5 -35t-28.5 -23q-19 -3 -28.5 3.5 t-29.5 31.5q-5 5 -7 8q-5 6 -16 23q-2 2 -3.5 5.5t-3 5.5t-2.5 3q-8 8 -18 23q-12 15 -27 30l-14 15l-37 47q-15 12 -12 33z" />
<glyph unicode="&#xda;" horiz-adv-x="651" d="M70 565v211q0 12 1 35t1 35v217q-3 44 2 123v196q0 17 1 26t9.5 19.5t24.5 12.5q2 -2 14.5 0t27.5 -9.5t15 -35.5v-88q0 -40 -2 -52q0 -135 2 -153q0 -8 1 -22.5t1 -22.5v-96q0 -9 -1 -28t-1 -28v-123q0 -3 -1 -10t-1 -10v-232q0 -29 2 -43v-16q0 -3 1 -26t1 -46 q0 -29 2 -41q6 -49 14 -96v-2q4 -16 19 -72l8 -28q19 -44 43 -64q13 -12 40 -17.5t48 -0.5q26 9 37 18q1 2 7 9.5t14.5 18t11.5 13.5q20 27 20 39q4 21 8 27q1 7 4.5 19t4.5 16q0 6 6 36q4 20 4 27q4 24 4 33q0 27 2 37v-2q6 72 10 198v211q-4 56 -2 80q0 30 4 70v10 q4 46 4 63v39v27q-5 44 -2 72q0 42 -2 65q0 6 -1 18.5t-1 18.5v143q0 29 17 48q28 14 65 -7h-2q21 -10 16 -59v-338v-108q0 -4 -1 -12.5t-1 -12.5q-2 -8 -2 -25v-18q0 -3 1 -10.5t1 -10.5v-75v-80v-80q0 -7 -1 -21.5t-1 -21.5q0 -138 -8 -211q-2 -8 -2 -12l-6 -51 q0 -2 -1 -6.5t-1 -6.5v-8l-14 -53q0 -3 -5 -8q-1 -1 -1.5 -3.5t-1 -6.5t-1.5 -7q0 -13 -6 -22q-3 -6 -6 -15q0 -7 -10 -22q-9 -9 -12 -21q-5 -10 -11 -18l2 2q-1 -2 -3.5 -5t-4.5 -7q-11 -18 -20 -25q-23 -23 -58 -45q-51 -23 -129 -8q-20 2 -51 20q-39 23 -55 41l-12 23 q0 8 -5 8q-12 16 -12 20q-7 14 -10 23q0 1 -10 31q-17 68 -31 143q-12 94 -12 262zM244 1477q-3 24 14 41q6 6 13 20q1 2 7 12l9 15q16 20 20 24q14 21 17 25q10 10 14 18q1 1 4 5.5t4 5.5q12 12 17 22q2 9 10.5 18t20.5 9q49 0 51 -43q2 -31 -47 -86q-7 -9 -17 -23.5 t-12 -17.5q-2 -2 -4.5 -6t-3.5 -5l-17 -26q0 -1 -1 -3t-1 -3q-12 -32 -43 -39q-18 0 -35 9.5t-20 27.5z" />
<glyph unicode="&#xdb;" horiz-adv-x="651" d="M70 565v211q0 12 1 35t1 35v217q-3 44 2 123v196q0 17 1 26t9.5 19.5t24.5 12.5q2 -2 14.5 0t27.5 -9.5t15 -35.5v-88q0 -40 -2 -52q0 -135 2 -153q0 -8 1 -22.5t1 -22.5v-96q0 -9 -1 -28t-1 -28v-123q0 -3 -1 -10t-1 -10v-232q0 -29 2 -43v-16q0 -3 1 -26t1 -46 q0 -29 2 -41q6 -49 14 -96v-2q4 -16 19 -72l8 -28q19 -44 43 -64q13 -12 40 -17.5t48 -0.5q26 9 37 18q1 2 7 9.5t14.5 18t11.5 13.5q20 27 20 39q4 21 8 27q1 7 4.5 19t4.5 16q0 6 6 36q4 20 4 27q4 24 4 33q0 27 2 37v-2q6 72 10 198v211q-4 56 -2 80q0 30 4 70v10 q4 46 4 63v39v27q-5 44 -2 72q0 42 -2 65q0 6 -1 18.5t-1 18.5v143q0 29 17 48q28 14 65 -7h-2q21 -10 16 -59v-338v-108q0 -4 -1 -12.5t-1 -12.5q-2 -8 -2 -25v-18q0 -3 1 -10.5t1 -10.5v-75v-80v-80q0 -7 -1 -21.5t-1 -21.5q0 -138 -8 -211q-2 -8 -2 -12l-6 -51 q0 -2 -1 -6.5t-1 -6.5v-8l-14 -53q0 -3 -5 -8q-1 -1 -1.5 -3.5t-1 -6.5t-1.5 -7q0 -13 -6 -22q-3 -6 -6 -15q0 -7 -10 -22q-9 -9 -12 -21q-5 -10 -11 -18l2 2q-1 -2 -3.5 -5t-4.5 -7q-11 -18 -20 -25q-23 -23 -58 -45q-51 -23 -129 -8q-20 2 -51 20q-39 23 -55 41l-12 23 q0 8 -5 8q-12 16 -12 20q-7 14 -10 23q0 1 -10 31q-17 68 -31 143q-12 94 -12 262zM175.5 1466q-1.5 10 8.5 23v6q1 4 3.5 10t7 18.5t8.5 22.5q5 11 18.5 39.5t18.5 40.5q1 3 3 8.5t3 8.5q9 24 18 39q16 26 43 26q23 0 29.5 -2t19.5 -12q19 -16 43 -78q5 -10 7 -12 q3 -11 16 -31v-2q4 -6 20 -49q2 -4 6.5 -16.5t6.5 -16.5q0 -12 -16 -28.5t-29 -16.5q-7 3 -14.5 9t-11.5 11l-3 5l-57 94v2q-2 4 -5.5 7t-5.5 7q-6 -6 -10 -14q-1 -2 -3.5 -12.5t-8 -23.5t-15.5 -28l-10 -20q-12 -21 -25 -28.5t-46 -4.5q-18 8 -19.5 18z" />
<glyph unicode="&#xdc;" horiz-adv-x="651" d="M98 565v211q0 12 1 35t1 35v217q-3 44 2 123v196q0 17 1 26t9.5 19.5t24.5 12.5q2 -2 15 0t28 -9.5t15 -35.5v-88q0 -40 -2 -52q0 -135 2 -153q0 -8 1 -22.5t1 -22.5v-96q0 -9 -1 -28t-1 -28v-123q0 -3 -1 -10t-1 -10v-232q0 -29 2 -43v-16q0 -3 1 -26t1 -46q0 -29 2 -41 q6 -49 14 -96v-2q8 -35 18 -72l9 -28q19 -44 43 -64q13 -12 40 -17.5t48 -0.5q26 9 37 18q1 3 32 41q21 28 21 39q4 21 8 27q1 7 4 19l4 16q0 6 6 36q4 20 4 27q5 30 5 33q0 27 2 37v-2q6 72 10 198v211q-4 56 -2 80q0 30 4 70v10q4 46 4 63v39v27q-5 44 -2 72q0 42 -2 65 q0 6 -1 18.5t-1 18.5v143q0 30 16 48q28 14 66 -7h-2q21 -10 16 -59v-338v-108q0 -4 -1 -12.5t-1 -12.5q-2 -8 -2 -25v-18q0 -3 1 -10.5t1 -10.5v-75v-80v-80q0 -7 -1 -21.5t-1 -21.5q0 -138 -8 -211q-2 -8 -2 -12l-6 -51q0 -2 -1 -6.5t-1 -6.5v-8l-15 -53q0 -4 -4 -8 q-1 -1 -1.5 -3.5t-1 -6.5t-1.5 -7q0 -13 -6 -22q-3 -6 -6 -15q0 -5 -11 -22q-9 -9 -12 -21q-7 -14 -10 -18l2 2q-1 -2 -3.5 -5t-4.5 -7q-10 -17 -21 -25q-25 -25 -57 -45q-51 -23 -129 -8q-20 2 -51 20q-41 24 -56 41l-12 23q0 8 -4 8q-12 16 -12 20q-7 14 -10 23q0 1 -2 6 t-4.5 12.5t-4.5 12.5q-14 54 -30 143q-13 101 -13 262zM139 1530v24q-3 25 25 56q20 26 76 26q14 0 36 -10q16 -13 27 -35q8 -14 8.5 -34.5t-8.5 -38.5q-10 -20 -29 -39q-15 -15 -22 -17q-32 -6 -51 4q-12 0 -23 11q-1 1 -6 4t-6 4q-20 14 -27 45zM371 1552q0 15 16.5 40 t32.5 36q26 19 51 8l45 -25q11 -4 10 -1q1 -1 3 -2q3 -1 3 -2q17 -21 19 -54q0 -18 -4 -26q0 -1 -1 -4t-1 -4q-3 -3 -8 -13q-3 -19 -21 -30v2q-15 -17 -53 -17h-12q-10 0 -48 23q-22 26 -24 35q-8 12 -8 34z" />
<glyph unicode="&#xdd;" horiz-adv-x="448" d="M-14 1421q17 11 42 9t38 -19l24 -68q23 -55 29 -79l12 -54q1 -4 4 -13t4 -13t4 -12t5.5 -13.5t1.5 -5.5q2 -3 14 -41l1 -2q1 -2 1 -6l12 -41l4 -19q1 -2 5.5 -9t5.5 -9l6 -12q9 -38 22 -64l4 -14q2 2 2 4l2 2l23 66q5 36 14 63l2 4l11 35q4 12 4 18q0 1 1 3.5t1 3.5v8 q0 10 4 16q0 1 1 4t1 4q0 13 2 15q0 4 4 12q0 4 4 8v2q0 6 4 10v3q0 6 4 10q-1 0 1 6.5t5 15.5q0 9 9 27q1 3 3 10t3 10l12 37l12 31q0 10 4 18v-2q0 2 1 6t1 5l5 10q9 28 20 33q26 15 55 -9l15 -16l6 -18q-3 -24 -10 -33v2l-5 -10l-4 -15q0 -14 -6 -20q-1 -15 -16 -60 q-1 -3 -3 -10t-3 -10l-6 -31q-1 -4 -4 -10t-3 -8q0 -1 -1 -4t-1 -4l-6 -27q-6 -22 -14 -37q-1 -3 -4 -10t-4 -10q0 -7 -6 -25q0 -5 -3 -14q0 -1 -4 -21l-2 -4q-1 -8 -4 -18t-7 -21.5t-5 -15.5q0 -1 -1 -3t-1 -3q0 -13 -6 -21q-6 -27 -21 -53l-6 -12l-6 -25q-4 -8 -4 -12 l-10 -10q0 -3 -4 -15q0 -1 -1 -2t-1 -2q0 -5 -3 -8q0 -61 5 -184q0 -10 1 -31t1 -31q4 -74 4 -125v-53q0 -9 -1 -27.5t-1 -27.5q-2 -39 -2 -109q0 -8 1 -23.5t1 -23.5v-98q0 -9 -1 -27t-1 -26q-16 -16 -40 -19.5t-38 4.5q-24 24 -17 37q0 1 1 2.5t1 3.5q3 156 3 344v146 q2 14 -3 59q0 45 -2 68v28q0 5 -1 14t-1 13v27v51q-2 4 -6 15t-6 15l2 -2q-8 12 -8 21q0 2 -6 10l-6 10l-9 17l-10 28q-8 16 -8 21q1 0 -5 17t-9 24q-11 24 -19 53q-13 27 -12 31l-6 18q-1 3 -2 9.5t-2 9.5q-4 16 -8 26l-19 64l-12 37q-14 52 -35 106q0 4 -2 6q0 4 -2 6 q-17 34 -10 78zM158 1491q0 5 2 10.5t2.5 7t5.5 8t6 7.5q8 8 16 24l3 -2q0 6 4 10q1 1 3 4.5t3 4.5q18 24 20 26q12 18 17 23q3 3 14 22v-2l10 11q12 11 15 22q6 29 30 29q22 0 43 -25l6 -20q-9 -38 -45 -88q-2 -3 -8 -10.5t-8 -10.5q-13 -13 -18 -26l-9 -15l-10 -14 q-1 -1 -3 -4t-3 -4l2 2q-14 -33 -41 -37q-17 0 -33.5 8.5t-21.5 26.5q-2 7 -2 12z" />
<glyph unicode="&#xde;" horiz-adv-x="907" d="M88 49q-4 52 4 82v76q-4 37 0 69q0 31 4 37v111q-4 74 -4 123q-2 37 -2 125v123q-2 48 2 135q0 4 1 14t1 14v23q4 35 -2 49q-7 19 6 39q0 1 -1 3q-1 1 -1 3.5t4 7.5q2 41 2 140q0 96 -2 145l-2 6v10q0 1 1 3t1 4t-2 6q0 1 -1 3t-1 3q-5 18 10 45q15 8 29.5 7.5t23 -4.5 t23.5 -13q13 -27 13 -47q0 -1 1 -7t1 -10q0 -10 2 -18v-15q0 -1 1 -7t1 -11q0 -1 -1 -3t-1 -3q2 -18 2 -57v-39q0 -1 -1 -4t-1 -7v-32q0 -8 -1 -30.5t-0.5 -37t3.5 -23.5h4q1 0 4 1.5t4 1.5l20 4q6 2 56 8h10q24 4 47 4q38 2 107 -6q46 -3 79 -13q51 -13 86 -30 q26 -10 68 -43q3 -2 11.5 -8.5t11.5 -8.5l12 -14q36 -31 51 -53q28 -42 51 -96q21 -76 23 -127q0 -38 -4 -70l-13 -27l-6 -16q-2 -13 -14 -25q-2 -2 -2 -4l-14 -20l-17 -19q-1 0 -1 -1l-0.5 -0.5t-2.5 -0.5q-1 -1 -6 -7t-6 -7l-21 -21l-12 -14q-1 -1 -4 -3t-4 -3 q-15 -10 -17 -12l-12 -8l-12 -7l-25 -16h-4q-8 -8 -28 -16l-11 -4q-1 0 -4 -3q-16 -8 -22 -8q-10 0 -13 -6q-24 -18 -57 -18q-11 0 -29 -6q-2 0 -6 -1.5t-6 -1.5l-29 -4h-20q-18 -6 -29 -6q-1 0 -5 -1t-9 -1l-14 -4l-60 -6q-2 0 -5 -1t-5 -1h-16q-36 -7 -84 -4v-119 q0 -3 -1 -11t-1 -14v-53q0 -2 1 -7.5t1 -8.5q0 -13 2 -25q0 -23 -4 -47q0 -26 -25 -51q-1 0 -4.5 -1t-5.5 -1h-17h-6q-16 -2 -28 4q-21 24 -21 49zM188 770q0 -12 1 -37t1 -37v-98q0 -5 1.5 -17t1.5 -18q0 -84 2 -131h69l3 -1q3 -1 7 -1q40 4 56 6h-2q16 4 32 4l37 4 q36 6 41 7l25 4q4 2 10 8q8 2 27 2l1 1q1 1 5 1q6 6 12 6l33 8q2 1 6 2t6 2q11 5 21 11l16 10l8 2q2 2 10 6l9 4l12 6q3 2 18 17q3 3 10 8.5t9 7.5l10 10q2 3 9.5 13.5t9.5 13.5l24 24q4 4 4 13q0 1 1 4t1 4q17 43 15 70l-2 8q-4 17 0 35q-5 5 -5 8q-1 2 -2 7t-2 7 q-7 36 -18 55q-27 49 -29 54l-4 8l-4 2l-33 33q-10 14 -37 35l-8 6l2 -2q-2 1 -8 4.5t-10 5.5q-9 3 -21 6q-3 1 -10 3t-10 3q-9 2 -30 7t-30 7q-18 6 -18 7l-27 6h2q-52 7 -81 4q-33 -3 -80 -8q-1 0 -3 -1t-3 -1q-61 -4 -82 -13q-9 -111 -9 -225z" />
<glyph unicode="&#xdf;" horiz-adv-x="653" d="M90 1235v115q-10 60 29 69q41 3 84 -6q9 -6 26 -6q27 -4 45 -14l56 -21l10 -14l4 -2q16 -4 35 -23l12 -16q14 -7 25 -25l3 -4q3 -5 5 -6q2 -3 7 -9t7 -9q16 -22 23 -35l14 -31q31 -67 37 -145v-25q0 -4 2 -8v-16q6 -87 -29 -168q-2 -4 -22 -39q-38 -44 -55 -56l-29 -16 l2 2q-3 -2 -5 -2t-5 -2q11 -4 35.5 -15.5t27.5 -13.5q5 -5 19 -12l10 -8l22 -19l-2 2q2 -1 8.5 -5t8.5 -5q66 -39 94 -145q4 -2 4 -8q7 -22 12 -80q6 -36 6 -54q-1 -2 -2 -8.5t-2 -10.5t-2 -11q0 -15 -2 -19q0 -4 -6 -28q-4 -12 -4 -15q0 -18 -6 -30q-2 -2 -2 -9 q-11 -32 -35 -67l-14 -19l2 2q-5 -10 -21 -26l-6 -8l2 2q-6 -11 -14 -17l-6 -6q-12 -12 -19 -14l-8 -8q-10 -15 -22 -17q-1 -1 -5.5 -4t-5.5 -4l-26 -12l-17 -6l-4 -2l-29 -15q-40 -12 -102 -12h-20q-1 0 -4 1t-5 1q-42 0 -45 41q-9 -39 -43 -39q-20 0 -34 14q-18 18 -13 66 v604q-8 12 -2 37q0 2 2 4v72q0 2 -1 5t-1 5v88q-2 49 -2 174q0 113 -2 166zM180 1321q8 -79 8 -180v-51q0 -8 -1 -25.5t-1 -26.5v-75q0 -73 4 -199q0 -16 3 -37v-4q15 27 38 27l5 1q5 1 10 1h6q4 2 15.5 8t15.5 8l-2 -2q4 3 34 18q2 1 6.5 4.5t6.5 4.5t7 3t7 3q6 2 10 6l6 8 q34 30 41 39q0 10 2 12q13 44 15 56q8 33 8 71q3 94 -37 183q-2 3 -7 13t-7 13l-4 8q-16 28 -27 37l-20 23l-23 22l-2 4l-16 9q-3 2 -8 3t-12.5 2t-12.5 3q-1 0 -4 1t-4 1l-21 4q-6 2 -24 2q-3 0 -7 1t-8 1zM188 59q8 29 43 29h80q49 0 99 39q51 35 84 102q15 37 20 70 q6 24 6 84q-1 4 -3 16.5t-3 16.5q-4 20 -4 45q0 1 -1 3t-1 3q-4 19 -12 41l-2 8q-28 50 -48 70q-29 19 -63 37q-2 1 -5 2t-5 2q-30 15 -70 24q-14 0 -20 2q-16 4 -19 4h-31q-25 0 -36 17q-9 -234 -9 -467v-146v-2z" />
<glyph unicode="&#xe0;" horiz-adv-x="477" d="M-14 51q1 3 2 12t2 11l6 30q4 30 8 43v-2q0 2 1 5.5t1 5.5l1 3q1 3 1 7q4 8 4 12l11 47q2 16 7 46.5t7 45.5l20 109q2 19 7 50t6 40q1 3 2 8t2 8q2 8 6 29.5t6 30.5q0 3 1 9t1 9v11l4 24q0 8 6 29v-2q0 1 1 4.5t1 5.5v10q7 43 9 62q9 58 12 112q3 50 14 119q0 3 1 9.5 t1 9.5v14q4 20 4 31q0 1 1 4.5t1 5.5q4 32 4 43l13 57q4 20 4 29q0 2 1 5t1 5v8q0 19 4 43q4 12 4 21q4 22 10 41q0 20 4 32v29q-4 31 17 41l-2 -2l12 6q-3 3 -8 13q-1 1 -3 4t-3 4l-13 12l-6 14l-4 2q-9 18 -12 21q-17 17 -25 29l-6 10q-11 7 -14 14q-14 12 -31 37 q-6 3 -9 8t-4 9l-1 5h-4q-17 10 -11 33q3 23 31 37q11 3 37 -10l-2 2l12 -2q9 -16 39 -51q9 -9 17 -21q18 -24 20 -26l37 -48q1 -3 14 -16l21 -31l4 -20q-9 -28 -21 -35q1 0 2 -1t2 -1l17 -35l1 -4q1 -5 1 -10l1 -2q1 -1 1 -6q4 -8 4 -21q1 -6 3 -24.5t3 -26.5l4 -45 q0 -15 4 -39q4 -36 4 -61q0 -13 7 -93l-2 -8q0 -4 4 -20q0 -1 1 -6t1 -7v-12q0 -10 2 -16q5 -37 8 -66q10 -40 14 -104v-23l4 -12v2q3 -10 5 -21.5t4.5 -24.5t3.5 -19l12 -74q3 -21 14 -76q0 -8 2 -14q4 -12 4 -17l5 -30q0 -1 1 -4t1 -5v-10q0 -8 2 -14q0 -1 1 -5.5t1 -6.5 v-11q0 -8 4 -20l4 -23l1 -3q1 -4 1 -9q1 -6 3 -21.5t3 -21.5q4 -28 4 -39q16 -130 43 -215l-2 2q12 -17 12 -57q0 -19 -5 -27t-10.5 -9t-20.5 -1h-11q-43 0 -47 45q-4 6 -4 20q-4 12 -4 23l-29 192q-3 25 -10 84q0 2 -1 7.5t-1 7.5q-8 62 -23 137h-12q-37 0 -51 2h-20 q-2 0 -5.5 1t-5.5 1h-69q-2 -6 -2.5 -17.5t-1.5 -15.5q0 -1 -1 -5t-1 -5q0 -3 -1.5 -10.5t-1.5 -11.5v-15q-2 -36 -14 -80l-6 -24q0 -11 -2 -15q-2 -6 -2 -12l-8 -39q0 -7 -1 -18t-1 -13l-4 -34q-7 -23 -9 -35q-1 -3 -3 -14.5t-3 -14.5l-2 -4l-2 -16q-8 -13 -8 -29 q4 -18 -4 -33q-2 -2 -2 -8q-2 -4 -2 -16q-3 -12 -5.5 -19t-12 -13.5t-23.5 -6.5q-29 0 -42.5 17.5t-4.5 43.5zM172 600h2q8 2 29 2q17 0 71 -4l14 -1q15 -1 15 1q-7 28 -8 33q-1 4 -2 14t-2 14l-12 64q-12 91 -29 170q-4 23 -19 164q0 -3 -1 -8t-1 -7v-8q0 -12 -2 -18 q0 -2 -1 -6.5t-1 -5.5q-8 -32 -8 -46q0 -17 -4 -45q-2 -12 -2 -32q0 -21 -4 -37v2q-4 -24 -4 -41q0 -19 -2 -27l-2 -4v-8q0 -19 -4 -39l-2 -6q-7 -25 -7 -37q0 -25 -2 -39l-6 -33q-4 -8 -6 -10v-2z" />
<glyph unicode="&#xe1;" horiz-adv-x="477" d="M-14 51q1 3 2 12t2 11l6 30q4 30 8 43v-2q0 2 1 5.5t1 5.5l1 3q1 3 1 7q4 8 4 12l11 47q2 16 7 46.5t7 45.5l20 109q2 19 7 50t6 40q1 3 2 8t2 8q2 8 6 29.5t6 30.5q0 3 1 9t1 9v11l4 24q0 8 6 29v-2q0 1 1 4.5t1 5.5v10q7 43 9 62q9 58 12 112q3 50 14 119q0 3 1 9.5 t1 9.5v14q4 20 4 31q0 1 1 4.5t1 5.5q4 32 4 43l13 57q4 20 4 29q0 2 1 5t1 5v8q0 19 4 43q4 12 4 21q4 22 10 41q0 20 4 32v29q-4 31 17 41l-2 -2q5 5 14 8q-14 7 -20 27q-2 7 -2 12t2 10.5t2.5 7t5.5 8t6 7.5l2 2q12 20 27 41l-2 -2q13 22 24 29q8 12 14 18l13 20 q1 1 5 6.5t5 6.5q2 2 14 20q2 10 11 19.5t22 9.5q20 0 41 -25l6 -20q-11 -43 -43 -84l-18 -25q-14 -14 -19 -24l-16 -29q-1 -1 -3 -4t-3 -4l2 2q-10 -22 -31 -33l12 -6l17 -35l1 -4q1 -5 1 -10l1 -2q1 -1 1 -6q4 -8 4 -21q1 -6 3 -24.5t3 -26.5l4 -45q0 -15 4 -39 q4 -36 4 -61q0 -13 7 -93l-2 -8q0 -4 4 -20q0 -1 1 -6t1 -7v-12q0 -10 2 -16q5 -37 8 -66q10 -40 14 -104v-23l4 -12v2q3 -10 5 -21.5t4.5 -24.5t3.5 -19l12 -74q3 -21 14 -76q0 -8 2 -14q4 -12 4 -17l5 -30q0 -1 1 -4t1 -5v-10q0 -8 2 -14q0 -1 1 -5.5t1 -6.5v-11 q0 -8 4 -20l4 -23l1 -3q1 -4 1 -9q1 -6 3 -21.5t3 -21.5q4 -28 4 -39q16 -130 43 -215l-2 2q12 -17 12 -57q0 -19 -5 -27t-10.5 -9t-20.5 -1h-11q-43 0 -47 45q-4 6 -4 20q-4 12 -4 23l-29 192q-3 25 -10 84q0 2 -1 7.5t-1 7.5q-8 62 -23 137h-12q-37 0 -51 2h-20 q-2 0 -5.5 1t-5.5 1h-69q-2 -6 -2.5 -17.5t-1.5 -15.5q0 -1 -1 -5t-1 -5q0 -3 -1.5 -10.5t-1.5 -11.5v-15q-2 -36 -14 -80l-6 -24q0 -11 -2 -15q-2 -6 -2 -12l-8 -39q0 -7 -1 -18t-1 -13l-4 -34q-7 -23 -9 -35q-1 -3 -3 -14.5t-3 -14.5l-2 -4l-2 -16q-8 -13 -8 -29 q4 -18 -4 -33q-2 -2 -2 -8q-2 -4 -2 -16q-3 -12 -5.5 -19t-12 -13.5t-23.5 -6.5q-29 0 -42.5 17.5t-4.5 43.5zM172 600h2q8 2 29 2q17 0 71 -4l14 -1q15 -1 15 1q-7 28 -8 33q-1 4 -2 14t-2 14l-12 64q-12 91 -29 170q-4 23 -19 164q0 -3 -1 -8t-1 -7v-8q0 -12 -2 -18 q0 -2 -1 -6.5t-1 -5.5q-8 -32 -8 -46q0 -17 -4 -45q-2 -12 -2 -32q0 -21 -4 -37v2q-4 -24 -4 -41q0 -19 -2 -27l-2 -4v-8q0 -19 -4 -39l-2 -6q-7 -25 -7 -37q0 -25 -2 -39l-6 -33q-4 -8 -6 -10v-2z" />
<glyph unicode="&#xe2;" horiz-adv-x="477" d="M-14 51q1 3 2 12t2 11l6 30q4 30 8 43v-2q0 2 1 5.5t1 5.5l1 3q1 3 1 7q4 8 4 12l11 47q2 16 7 46.5t7 45.5l20 109q2 19 7 50t6 40q1 3 2 8t2 8q2 8 6 29.5t6 30.5q0 3 1 9t1 9v11l4 24q0 8 6 29v-2q0 1 1 4.5t1 5.5v10q7 43 9 62q9 58 12 112q3 50 14 119q0 3 1 9.5 t1 9.5v14q4 20 4 31q0 1 1 4.5t1 5.5q4 32 4 43l13 57q4 20 4 29q0 2 1 5t1 5v8q0 19 4 43q4 12 4 21q4 22 10 41q0 20 4 32v29q-4 31 17 41l-2 -2q1 1 4 3t4 3q-42 -6 -61 25q-7 22 4 33q11 32 14 73l8 25q0 3 2 8t2 8l6 43v8l4 46q17 0 23 6q41 7 70 -29l2 -8 q7 -39 16 -84q2 -28 10 -43l11 -31l8 -33q0 -1 -1 -4t-1 -4q0 -25 -31 -45q-37 0 -55 33h2q-4 4 -6 8q-2 -6 -8 -17.5t-7 -15.5q30 7 51 -10l17 -35l1 -4q1 -5 1 -10l1 -2q1 -1 1 -6q4 -8 4 -21q1 -6 3 -24.5t3 -26.5l4 -45q0 -15 4 -39q4 -36 4 -61q0 -13 7 -93l-2 -8 q0 -4 4 -20q0 -1 1 -6t1 -7v-12q0 -10 2 -16q5 -37 8 -66q10 -40 14 -104v-23l4 -12v2q3 -10 5 -21.5t4.5 -24.5t3.5 -19l12 -74q3 -21 14 -76q0 -8 2 -14q4 -12 4 -17l5 -30q0 -1 1 -4t1 -5v-10q0 -8 2 -14q0 -1 1 -5.5t1 -6.5v-11q0 -8 4 -20l4 -23l1 -3q1 -4 1 -9 q1 -6 3 -21.5t3 -21.5q4 -28 4 -39q16 -130 43 -215l-2 2q12 -17 12 -57q0 -19 -5 -27t-10.5 -9t-20.5 -1h-11q-43 0 -47 45q-4 6 -4 20q-4 12 -4 23l-29 192q-3 25 -10 84q0 2 -1 7.5t-1 7.5q-8 62 -23 137h-12q-37 0 -51 2h-20q-2 0 -5.5 1t-5.5 1h-69q-2 -6 -2.5 -17.5 t-1.5 -15.5q0 -1 -1 -5t-1 -5q0 -3 -1.5 -10.5t-1.5 -11.5v-15q-2 -36 -14 -80l-6 -24q0 -11 -2 -15q-2 -6 -2 -12l-8 -39q0 -7 -1 -18t-1 -13l-4 -34q-7 -23 -9 -35q-1 -3 -3 -14.5t-3 -14.5l-2 -4l-2 -16q-8 -13 -8 -29q4 -18 -4 -33q-2 -2 -2 -8q-2 -4 -2 -16 q-3 -12 -5.5 -19t-12 -13.5t-23.5 -6.5q-29 0 -42.5 17.5t-4.5 43.5zM172 600h2q8 2 29 2q17 0 71 -4l14 -1q15 -1 15 1q-7 28 -8 33q-1 4 -2 14t-2 14l-12 64q-12 91 -29 170q-4 23 -19 164q0 -3 -1 -8t-1 -7v-8q0 -12 -2 -18q0 -2 -1 -6.5t-1 -5.5q-8 -32 -8 -46 q0 -17 -4 -45q-2 -12 -2 -32q0 -21 -4 -37v2q-4 -24 -4 -41q0 -19 -2 -27l-2 -4v-8q0 -19 -4 -39l-2 -6q-7 -25 -7 -37q0 -25 -2 -39l-6 -33q-4 -8 -6 -10v-2z" />
</font>
</defs>
</svg>
